<?xml version="1.0" encoding="utf-8"?>
<!-- Generator: Adobe Illustrator 19.1.0, SVG Export Plug-In . SVG Version: 6.00 Build 0)  -->
<svg version="1.1" id="save-image" xmlns="http://www.w3.org/2000/svg" xmlns:xlink="http://www.w3.org/1999/xlink" x="0px" y="0px"
	 viewBox="0 0 16 16" style="enable-background:new 0 0 16 16;" xml:space="preserve">
<g>
	<circle cx="4.2" cy="3.3" r="1.4"/>
</g>
<g>
	<polygon points="6.3,6.8 5.1,5.7 2.8,8 2.8,9.4 13.2,9.4 13.2,6.1 10.1,3.1 	"/>
</g>
<g>
	<path d="M13.9,0H2.1C1.4,0,0.9,0.5,0.9,1.2v9c0,0.6,0.5,1.2,1.2,1.2h5.2v3.2l-1.4-1.4l-0.5,0.5L7.6,16l2.5-2.5L9.6,13l-1.5,1.5
		v-3.2h5.8c0.6,0,1.2-0.5,1.2-1.2v-9C15.1,0.5,14.5,0,13.9,0z M14.1,10.1c0,0.1-0.1,0.2-0.2,0.2H2.1c-0.1,0-0.2-0.1-0.2-0.2v-9
		c0-0.1,0.1-0.2,0.2-0.2h11.8c0.1,0,0.2,0.1,0.2,0.2V10.1z"/>
</g>
</svg>
