<?xml version="1.0" encoding="utf-8"?>
<!-- Generator: Adobe Illustrator 18.1.1, SVG Export Plug-In . SVG Version: 6.00 Build 0)  -->
<svg version="1.1" id="bound_markers" xmlns="http://www.w3.org/2000/svg" xmlns:xlink="http://www.w3.org/1999/xlink" x="0px"
	 y="0px" viewBox="0 0 16 16" enable-background="new 0 0 16 16" xml:space="preserve">
<path d="M14.2,11.5v-7c1-0.3,1.7-1.1,1.7-2.2c0-1.2-1-2.3-2.3-2.3s-2.3,1-2.3,2.3c0,0.5,0.1,0.8,0.3,1.1l-8.3,8.3
	c-0.3-0.2-0.8-0.3-1.1-0.3c-1.2,0-2.3,1-2.3,2.3s1,2.3,2.3,2.3c1,0,1.9-0.7,2.2-1.7h7.1c0.2,0.9,1.1,1.7,2.2,1.7
	c1.2,0,2.3-1,2.3-2.3C15.9,12.6,15.2,11.7,14.2,11.5z M4.2,12.5l8.3-8.4c0.2,0.1,0.3,0.2,0.6,0.2v7.1c-0.8,0.2-1.4,0.8-1.6,1.6h-7
	C4.3,12.8,4.2,12.7,4.2,12.5z"/>
</svg>
