<?xml version="1.0" encoding="utf-8"?>
<!-- Generator: Adobe Illustrator 19.0.1, SVG Export Plug-In . SVG Version: 6.00 Build 0)  -->
<svg version="1.1" id="Collapse_ALl" xmlns="http://www.w3.org/2000/svg" xmlns:xlink="http://www.w3.org/1999/xlink" x="0px"
	 y="0px" viewBox="0 0 16 16" enable-background="new 0 0 16 16" xml:space="preserve">
<path d="M0,4c0-1.3,0-2.7,0-4c5.3,0,10.7,0,16,0c0,1.3,0,2.6,0,4C10.7,4,5.3,4,0,4z"/>
<path d="M16,15c0,0.3,0,0.6,0,1c-5.3,0-10.7,0-16,0c0-0.3,0-0.6,0-1C5.3,15,10.7,15,16,15z"/>
<polygon points="5.1,9.1 5.8,9.7 7.5,7.9 7.5,13.5 7.5,13.5 8.5,13.5 8.5,13.5 8.5,7.9 10.2,9.7 10.9,9.1 8,6 8,6 8,6 "/>
</svg>
