<?xml version="1.0" encoding="utf-8"?>
<!-- Generator: Adobe Illustrator 19.0.0, SVG Export Plug-In . SVG Version: 6.00 Build 0)  -->
<svg version="1.1" id="globe-countries" xmlns="http://www.w3.org/2000/svg" xmlns:xlink="http://www.w3.org/1999/xlink" x="0px"
	 y="0px" viewBox="0 0 16 16" enable-background="new 0 0 16 16" xml:space="preserve">
<path fill-rule="evenodd" clip-rule="evenodd" d="M8,0c4.4,0,8,3.6,8,8c0,4.4-3.6,8-8,8c-4.4,0-8-3.6-8-8C0,3.6,3.6,0,8,0z M3.5,2.7
	C3.5,2.8,3.5,2.8,3.5,2.7C1.5,4.6,0.7,6.9,1.2,9.5c0.8,3.7,4.2,5.9,7.9,5.4c0.1,0,0.2-0.1,0.3-0.2c0.3-0.6,0.5-1.3,0.8-1.9
	c0.1-0.1,0-0.2-0.1-0.3c-0.3-0.2-0.6-0.4-0.6-0.8c0-0.3-0.1-0.5-0.2-0.8c0-0.1,0-0.2,0-0.2c0.1-0.2,0.2-0.4,0.3-0.6
	C9.4,10.2,9.3,10,9.1,9.8c-0.2-0.4-0.6-0.6-1-0.7C7.9,9,7.6,8.9,7.3,8.8c-0.1,0-0.1-0.1-0.2-0.1c-0.3-0.6-0.7-1.1-1-1.7
	C5.9,6.5,5.7,6.1,5.8,5.7c0.1-0.4-0.1-0.8-0.3-1.2C5.3,4.1,5,3.8,4.6,3.7c-0.1,0-0.2,0-0.3,0.1C4,4.1,3.7,4.3,3.4,4.6
	c0.1-0.2,0.2-0.3,0.3-0.4c-0.1,0-0.2,0-0.2,0c0-0.2-0.1-0.3,0-0.5c0-0.1,0.2-0.3,0.3-0.4c-0.1,0-0.2,0-0.3,0c0-0.2,0.1-0.4,0.3-0.4
	C3.6,2.9,3.6,2.8,3.5,2.7z M12.1,6c-0.3,0.1-0.5,0.2-0.7,0.3c-0.3,0.1-0.7,0.2-0.8,0.4c-0.3,0.4-0.8,0.8-0.7,1.4c0,0,0,0,0,0
	c-0.1,0-0.2,0-0.2,0c0-0.1-0.1-0.3-0.1-0.4c0-0.1-0.1-0.2-0.2-0.1c-0.3,0-0.5,0.1-0.8,0.1c0,0-0.1,0-0.1,0C8.2,8,8.1,8.2,8,8.4
	c0,0.1,0.2,0.3,0.2,0.4c0.2-0.2,0.5-0.5,0.8-0.3C9.1,8.7,9,8.8,9,8.8C9,8.9,9,9,8.9,9.1c0,0,0.1,0,0.1,0c0.4,0,0.4,0,0.5,0.4
	c0,0.2,0.2,0.3,0.4,0.3c0.3-0.4,0.3-0.4,0.7-0.3c0.1,0,0.1,0,0.2,0c0.5-0.1,0.9,0.2,1.2,0.6c0.1,0.1,0.1,0.2,0.1,0.3
	c0,0.3,0.1,0.4,0.4,0.5c0,0,0,0,0.1,0c0.1,0,0.1,0.1,0.1,0.2c-0.1,0.3-0.2,0.6-0.2,1c0,0.3-0.2,0.4-0.4,0.6c-0.1,0-0.1,0.1-0.1,0.2
	c0,0.3-0.2,0.5-0.4,0.7c-0.3,0.3-0.6,0.5-0.9,0.8c0,0-0.1,0.1-0.1,0.1c2-0.7,4.2-2.7,4.5-5.8C15.1,5.7,13.6,3,11,1.8
	C8.6,0.6,5.9,1,4.3,2.2c0.4,0.1,0.8,0.2,1.2,0.4c0.1,0,0.1,0,0.2,0c0.3-0.2,0.6-0.3,1-0.1c0.1,0,0.2,0,0.2,0.1
	c0.3,0.1,0.6,0.1,1,0.1c0.6,0,1.2,0,1.7,0c0.1,0,0.2,0,0.2,0.1C9.8,2.8,9.9,3,9.9,3.3c-0.3,0-0.6,0-0.9,0.1c-0.2,0-0.2,0.2-0.3,0.4
	c0,0,0.1,0.1,0.1,0.2c0.3,0.3,0.6,0.5,0.8,0.8c0.1,0.1,0.2,0.2,0.4,0.1c0-0.4,0-0.7,0.1-1.1c0.2,0,0.3,0,0.4,0
	c0.1,0,0.2,0.1,0.3,0.2C10.9,4,11,4.2,11.1,4.4c0.1,0,0.2-0.1,0.3-0.1C11.6,4.8,11.8,5.4,12.1,6z"/>
</svg>
