<?xml version="1.0" encoding="utf-8"?>
<!-- Generator: Adobe Illustrator 19.1.0, SVG Export Plug-In . SVG Version: 6.00 Build 0)  -->
<svg version="1.1" id="image-new" xmlns="http://www.w3.org/2000/svg" xmlns:xlink="http://www.w3.org/1999/xlink" x="0px" y="0px"
	 viewBox="0 0 16 16" style="enable-background:new 0 0 16 16;" xml:space="preserve">
<g>
	<circle cx="4.1" cy="3.7" r="1.6"/>
</g>
<g>
	<polygon points="6.1,9.9 4.8,8.6 2.1,11.3 2.1,13.9 13.9,13.9 13.9,9.1 10.4,5.7 	"/>
</g>
<g>
	<path d="M14.7,0H1.3C0.6,0,0,0.6,0,1.3v13.3C0,15.4,0.6,16,1.3,16h13.3c0.7,0,1.3-0.6,1.3-1.3V1.3C16,0.6,15.4,0,14.7,0z
		 M14.9,14.7c0,0.1-0.1,0.3-0.3,0.3H1.3c-0.1,0-0.3-0.1-0.3-0.3V1.3c0-0.1,0.1-0.3,0.3-0.3h13.3c0.1,0,0.3,0.1,0.3,0.3V14.7z"/>
</g>
</svg>
