<?xml version="1.0" encoding="utf-8"?>
<!-- Generator: Adobe Illustrator 19.1.0, SVG Export Plug-In . SVG Version: 6.00 Build 0)  -->
<svg version="1.1" id="Add_to_Folder" xmlns="http://www.w3.org/2000/svg" xmlns:xlink="http://www.w3.org/1999/xlink" x="0px"
	 y="0px" viewBox="0 0 16 16" style="enable-background:new 0 0 16 16;" xml:space="preserve">
<path d="M15.5,2.9c-0.1,0-0.1,0-0.1,0H8c-0.1,0-0.2-0.1-0.3-0.1L6.2,1.4C6.1,1.4,5.9,1.2,5.8,1.2c-1.4,0-1.7,0-3,0
	C2.3,1.2,2,1.5,2,2v1.9h0.8V2h2.7c0.1,0,0.2,0.1,0.3,0.1c0.5,0.4,1,0.9,1.6,1.4c0.1,0.1,0.3,0.2,0.5,0.2h7.4v10H2.8v-1.3H2v1.1
	c0,0.3,0.1,0.5,0.3,0.7c0.1,0.1,0.4,0.3,0.7,0.3h12.4c0.4,0,0.6-0.2,0.7-0.6c0-0.1,0-0.2,0-0.3c0-3,0-7,0-10c0-0.1,0-0.1,0-0.2
	C16,3.2,15.8,3,15.5,2.9z"/>
<polygon points="3,7.7 3,5.7 2,5.7 2,7.7 0,7.7 0,8.7 2,8.7 2,10.7 3,10.7 3,8.7 5,8.7 5,7.7 "/>
<polygon points="10.1,5.3 9.5,6 11.4,7.7 6.8,7.7 6.8,7.7 6.8,8.7 6.8,8.7 11.4,8.7 9.5,10.4 10.1,11.1 13.2,8.2 13.2,8.2 13.2,8.2 
	"/>
</svg>
