<?xml version="1.0" encoding="utf-8"?>
<!-- Generator: Adobe Illustrator 18.1.1, SVG Export Plug-In . SVG Version: 6.00 Build 0)  -->
<svg version="1.1" id="Doc_Page_Open" xmlns="http://www.w3.org/2000/svg" xmlns:xlink="http://www.w3.org/1999/xlink" x="0px"
	 y="0px" viewBox="0 0 16 16" enable-background="new 0 0 16 16" xml:space="preserve">
<path d="M11,4.2H7.4C7.2,4.2,7.1,4.2,7,4.3L4.6,6.7C4.6,6.8,4.4,6.9,4.4,7v4.6h0.4V7.1h2.8V4.6h3.3v7h0.4V4.5 C11.4,4.3,11.2,4.2,11,4.2z M7.2,6.7h-2l2-2V6.7z"/>
<text transform="matrix(1 0 0 1 100 100)" font-family="'MyriadPro-Regular'" font-size="12">0 px</text>
<path d="M15.4,0.4C15.3,0.2,15.2,0.1,15,0c-0.1,0-0.2,0-0.2,0h-2.7H2.8H1.2C1.1,0,1.1,0,1,0C0.8,0.1,0.7,0.2,0.6,0.4 c0,0.1,0,0.2,0,0.2v0.1v0v0.1v0.1v14.5c0,0.3,0.3,0.6,0.6,0.6h0.3h13h0.3c0.3,0,0.6-0.3,0.6-0.6V0.9V0.8V0.7v0V0.6 C15.4,0.5,15.4,0.4,15.4,0.4z M14.4,15.1l-6.4,0l-6.3,0V1.1h12.7V15.1z"/>
</svg>
