<?xml version="1.0" encoding="utf-8"?>
<!-- Generator: Adobe Illustrator 19.0.0, SVG Export Plug-In . SVG Version: 6.00 Build 0)  -->
<svg version="1.1" id="last_updated" xmlns="http://www.w3.org/2000/svg" xmlns:xlink="http://www.w3.org/1999/xlink" x="0px"
	 y="0px" viewBox="0 0 16 16" enable-background="new 0 0 16 16" xml:space="preserve">
<path d="M8.5,0.3c-3.5,0-6.7,2.6-7.4,6H0l2,3.4l2.2-3.4H2.9C3.6,3.7,5.8,2,8.5,2c3.3,0,5.8,2.6,5.8,6c0,3.4-2.5,6-5.8,6
	c-2.1,0-4-1-5-2.8L3.6,11h-2l0.2,0.3c1.2,2.5,4,4.3,6.8,4.3c4.1,0,7.4-3.4,7.4-7.7S12.6,0.3,8.5,0.3z"/>
<polygon points="8.9,8.4 8.9,3.5 7.5,3.5 7.5,9.1 7.5,9.1 7.5,9.1 11.4,11.5 12.1,10.4 "/>
</svg>
