<?xml version="1.0" encoding="utf-8"?>
<!-- Generator: Adobe Illustrator 19.0.1, SVG Export Plug-In . SVG Version: 6.00 Build 0)  -->
<svg version="1.1" id="Add_Attribute" xmlns="http://www.w3.org/2000/svg" xmlns:xlink="http://www.w3.org/1999/xlink" x="0px"
	 y="0px" viewBox="0 0 16 16" enable-background="new 0 0 16 16" xml:space="preserve">
<g>
	<path d="M5.7,9.1C5.3,9.1,5,9.1,4.8,9C4.5,8.9,4.3,8.7,4.1,8.6C3.9,8.4,3.8,8.2,3.7,8C3.6,7.8,3.5,7.6,3.5,7.3
		c0-0.3,0.1-0.5,0.2-0.7C3.8,6.4,4,6.2,4.2,6c0.2-0.2,0.5-0.3,0.8-0.4s0.7-0.1,1.1-0.1c0.3,0,0.6,0,1,0.1C7.4,5.7,7.7,5.8,8,5.9V5.3
		c0-0.5-0.2-0.9-0.5-1.2C7.2,3.8,6.8,3.7,6.2,3.7c-0.3,0-0.7,0.1-1,0.2C4.9,4,4.6,4.1,4.2,4.4L3.9,3.9c0.4-0.3,0.8-0.4,1.2-0.6
		c0.4-0.1,0.8-0.2,1.2-0.2c0.8,0,1.4,0.2,1.8,0.6c0.4,0.4,0.7,1,0.7,1.7V8c0,0.2,0.1,0.3,0.3,0.3V9C9,9,9,9,8.9,9C8.9,9,8.8,9,8.8,9
		C8.6,9,8.5,9,8.3,8.9C8.2,8.8,8.1,8.7,8.1,8.5l0-0.5C7.8,8.4,7.5,8.6,7,8.8C6.6,9,6.1,9.1,5.7,9.1z M5.9,8.5c0.4,0,0.7-0.1,1.1-0.2
		C7.3,8.2,7.6,8,7.8,7.7c0.1-0.1,0.1-0.1,0.1-0.2S8,7.3,8,7.3V6.3C7.7,6.2,7.4,6.2,7.1,6.1S6.6,6,6.3,6C5.7,6,5.2,6.1,4.8,6.4
		S4.3,6.9,4.3,7.3c0,0.2,0,0.3,0.1,0.5C4.5,7.9,4.6,8,4.7,8.1C4.8,8.2,5,8.3,5.2,8.4C5.4,8.5,5.6,8.5,5.9,8.5z"/>
</g>
<path d="M6.4,12.8C2.9,12.8,0,10,0,6.4C0,2.9,2.9,0,6.4,0c3.5,0,6.4,2.9,6.4,6.4C12.8,10,10,12.8,6.4,12.8z M6.4,0.7
	c-3.1,0-5.7,2.6-5.7,5.7c0,3.1,2.6,5.7,5.7,5.7c3.1,0,5.7-2.6,5.7-5.7C12.1,3.3,9.6,0.7,6.4,0.7z"/>
<polygon points="14,13 14,11 13,11 13,13 11,13 11,14 13,14 13,16 14,16 14,14 16,14 16,13 "/>
</svg>
