<?xml version="1.0" encoding="utf-8"?>
<!-- Generator: Adobe Illustrator 19.0.1, SVG Export Plug-In . SVG Version: 6.00 Build 0)  -->
<svg version="1.1" id="Attribute_1_" xmlns="http://www.w3.org/2000/svg" xmlns:xlink="http://www.w3.org/1999/xlink" x="0px"
	 y="0px" viewBox="0 0 16 16" enable-background="new 0 0 16 16" xml:space="preserve">
<path d="M7.1,11.7c-0.4,0-0.8-0.1-1.1-0.2s-0.6-0.3-0.8-0.5c-0.2-0.2-0.4-0.5-0.5-0.8S4.4,9.6,4.4,9.3c0-0.4,0.1-0.7,0.2-1
	S5,7.7,5.3,7.5s0.6-0.4,1-0.5s0.9-0.2,1.3-0.2c0.4,0,0.8,0,1.2,0.1C9.3,7,9.6,7.1,10,7.3V6.6c0-0.7-0.2-1.2-0.6-1.6
	C9,4.5,8.4,4.3,7.8,4.3c-0.4,0-0.8,0.1-1.3,0.2C6.1,4.7,5.7,4.9,5.3,5.2L4.9,4.6c0.5-0.3,1-0.6,1.5-0.8c0.5-0.2,1-0.3,1.5-0.3
	c0.9,0,1.7,0.3,2.3,0.8C10.7,4.9,11,5.7,11,6.7v3.5c0,0.3,0.1,0.4,0.4,0.4v0.9c-0.1,0-0.2,0-0.2,0c-0.1,0-0.1,0-0.2,0
	c-0.2,0-0.4-0.1-0.5-0.2s-0.3-0.3-0.3-0.5l0-0.6c-0.3,0.5-0.8,0.8-1.3,1.1S7.6,11.7,7.1,11.7z M7.3,10.9c0.5,0,0.9-0.1,1.3-0.3
	c0.4-0.2,0.8-0.5,1.1-0.8c0.1-0.1,0.1-0.2,0.2-0.3c0-0.1,0.1-0.2,0.1-0.3V7.9C9.6,7.8,9.3,7.7,8.9,7.6C8.5,7.5,8.2,7.5,7.8,7.5
	C7.1,7.5,6.5,7.7,6,8S5.4,8.7,5.4,9.2c0,0.2,0,0.4,0.1,0.6s0.2,0.4,0.4,0.5c0.2,0.2,0.4,0.3,0.6,0.4C6.7,10.8,7,10.9,7.3,10.9z"/>
<path d="M8,16c-4.4,0-8-3.6-8-8c0-4.4,3.6-8,8-8c4.4,0,8,3.6,8,8C16,12.4,12.4,16,8,16z M8,0.9C4.1,0.9,0.9,4.1,0.9,8
	c0,3.9,3.2,7.1,7.1,7.1c3.9,0,7.1-3.2,7.1-7.1C15.1,4.1,11.9,0.9,8,0.9z"/>
</svg>
