<?xml version="1.0" encoding="utf-8"?>
<!-- Generator: Adobe Illustrator 19.0.1, SVG Export Plug-In . SVG Version: 6.00 Build 0)  -->
<svg version="1.1" id="Add_Value" xmlns="http://www.w3.org/2000/svg" xmlns:xlink="http://www.w3.org/1999/xlink" x="0px" y="0px"
	 viewBox="0 0 16 16" enable-background="new 0 0 16 16" xml:space="preserve">
<polygon points="14,13 14,11 13,11 13,13 11,13 11,14 13,14 13,16 14,16 14,14 16,14 16,13 "/>
<path d="M6,9.6L3.4,3.3h0.9l2.2,5.5l2.2-5.5h0.8L6.9,9.6H6z"/>
<path d="M6.4,12.9C2.9,12.9,0,10,0,6.4C0,2.9,2.9,0,6.4,0c3.5,0,6.4,2.9,6.4,6.4C12.9,10,10,12.9,6.4,12.9z M6.4,0.7
	c-3.2,0-5.7,2.6-5.7,5.7c0,3.2,2.6,5.7,5.7,5.7c3.2,0,5.7-2.6,5.7-5.7C12.2,3.3,9.6,0.7,6.4,0.7z"/>
</svg>
