<?xml version="1.0" encoding="utf-8"?>
<!-- Generator: Adobe Illustrator 19.0.1, SVG Export Plug-In . SVG Version: 6.00 Build 0)  -->
<svg version="1.1" id="add_workspace" xmlns="http://www.w3.org/2000/svg" xmlns:xlink="http://www.w3.org/1999/xlink" x="0px"
	 y="0px" viewBox="0 0 16 16" enable-background="new 0 0 16 16" xml:space="preserve">
<path fill-rule="evenodd" clip-rule="evenodd" d="M0,10.1c0.6-0.3,1.2-0.6,1.8-0.9C1.2,8.9,0.6,8.6,0,8.3C0.6,8,1.2,7.7,1.8,7.4
	C1.2,7,0.6,6.8,0,6.4c0.1-0.1,0.2-0.1,0.3-0.2c2.5-1.2,5-2.5,7.4-3.7c0.2-0.1,0.3-0.1,0.5,0c2.2,1.1,4.5,2.2,6.7,3.4
	c0.3,0.2,0.6,0.3,1,0.5c-0.6,0.3-1.2,0.6-1.8,0.9C14.8,7.7,15.4,8,16,8.3c-0.6,0.3-1.2,0.6-1.8,0.9c0.6,0.3,1.2,0.6,1.8,0.9
	c-0.1,0.1-0.1,0.1-0.2,0.1c-2.5,1.3-5.1,2.5-7.6,3.8c-0.1,0.1-0.3,0-0.4,0c-2.3-1.1-4.5-2.3-6.8-3.4C0.7,10.4,0.4,10.3,0,10.1z
	 M1.4,6.4c0.1,0,0.1,0.1,0.2,0.1c2.1,1,4.2,2.1,6.3,3.1c0.1,0.1,0.3,0,0.4,0c2.1-1,4.1-2,6.2-3.1c0.1,0,0.1-0.1,0.2-0.1
	c0,0-0.1,0-0.1-0.1c-2.1-1.1-4.2-2.1-6.3-3.2c-0.1-0.1-0.3,0-0.4,0C5.8,4.2,3.9,5.2,2,6.1C1.8,6.2,1.6,6.3,1.4,6.4z M1.4,10.1
	c0.1,0.1,0.1,0.1,0.1,0.1c2.1,1.1,4.2,2.1,6.3,3.2c0.1,0.1,0.3,0,0.4,0c2.1-1,4.1-2,6.2-3.1c0.1,0,0.1-0.1,0.2-0.1
	c-0.3-0.2-0.6-0.3-0.9-0.4c-0.2-0.1-0.4-0.1-0.5,0c-1.7,0.8-3.3,1.7-5,2.5c-0.2,0.1-0.3,0.1-0.5,0c-1.7-0.8-3.3-1.7-5-2.5
	c-0.1-0.1-0.3-0.1-0.4,0C2,9.7,1.7,9.9,1.4,10.1z M14.6,8.3C14.3,8.1,14,8,13.7,7.8c-0.2-0.1-0.3-0.1-0.5,0
	c-1.6,0.8-3.3,1.6-4.9,2.5c-0.2,0.1-0.4,0.1-0.7,0C6,9.4,4.4,8.6,2.8,7.8c-0.1,0-0.2-0.1-0.3-0.1C2.1,7.9,1.7,8.1,1.3,8.3
	c0.5,0.3,1,0.5,1.5,0.7c1.6,0.8,3.3,1.6,4.9,2.5c0.1,0.1,0.3,0.1,0.4,0C10.3,10.4,12.5,9.4,14.6,8.3z"/>
<polygon points="10.4,6.1 8.3,6.1 8.3,3.9 7.7,3.9 7.7,6.1 5.6,6.1 5.6,6.6 7.7,6.6 7.7,8.8 8.3,8.8 8.3,6.6 10.4,6.6 "/>
</svg>
