<?xml version="1.0" encoding="utf-8"?>
<!-- Generator: Adobe Illustrator 19.1.0, SVG Export Plug-In . SVG Version: 6.00 Build 0)  -->
<svg version="1.1" id="Ingest" xmlns="http://www.w3.org/2000/svg" xmlns:xlink="http://www.w3.org/1999/xlink" x="0px" y="0px"
	 viewBox="0 0 16 16" style="enable-background:new 0 0 16 16;" xml:space="preserve">
<path d="M8.4,16c-4.4,0-8-3.6-8-8s3.6-8,8-8c2.8,0,5.5,1.5,6.9,4l0.2,0.4L9.3,8l6.3,3.6L15.3,12C13.9,14.5,11.2,16,8.4,16z M8.4,0.9
	C4.5,0.9,1.3,4.1,1.3,8c0,3.9,3.2,7.1,7.1,7.1c2.3,0,4.5-1.2,5.8-3.1L7.4,8l6.9-4C12.9,2.1,10.7,0.9,8.4,0.9z"/>
</svg>
