<?xml version="1.0" encoding="utf-8"?>
<!-- Generator: Adobe Illustrator 19.0.0, SVG Export Plug-In . SVG Version: 6.00 Build 0)  -->
<svg version="1.1" id="Piechart" xmlns="http://www.w3.org/2000/svg" xmlns:xlink="http://www.w3.org/1999/xlink" x="0px" y="0px"
	 viewBox="0 0 16 16" enable-background="new 0 0 16 16" xml:space="preserve">
<path d="M10.5,1.3c1.8,0.9,3.3,2.3,4.1,4.1l-1.6,0.4L9,6.9l1.1-4.1L10.5,1.3 M9.9,0L9.1,2.6L7.6,8.3l5.8-1.5L16,6.1
	C15,3.2,12.7,1,9.9,0L9.9,0z"/>
<path d="M13.4,7.8l-0.3,0.1c0.1,0.3,0.1,0.7,0.1,1c0,3.4-2.7,6.1-6.1,6.1S1,12.3,1,8.9c0-3.4,2.7-6.1,6.1-6.1c0.4,0,0.8,0.1,1.2,0.1
	l0.2-1c-0.5-0.1-1-0.2-1.5-0.2C3.2,1.8,0,4.9,0,8.9C0,12.8,3.2,16,7.1,16s7.1-3.2,7.1-7.1c0-0.4-0.1-0.9-0.1-1.3L13.4,7.8z"/>
</svg>
