<?xml version="1.0" encoding="utf-8"?>
<!-- Generator: Adobe Illustrator 18.1.1, SVG Export Plug-In . SVG Version: 6.00 Build 0)  -->
<svg version="1.1" xmlns="http://www.w3.org/2000/svg" xmlns:xlink="http://www.w3.org/1999/xlink" x="0px" y="0px"
	 viewBox="0 0 16 16" enable-background="new 0 0 16 16" xml:space="preserve">
		<path d="M8,12.6c-0.4,0-0.9,0-1.3-0.1c-1.2,1-2.6,1.8-4.1,2.2c-0.3,0.1-0.7,0.2-1,0.2c0,0,0,0,0,0c-0.2,0-0.3-0.1-0.4-0.3 c0,0,0,0,0,0c0-0.2,0.1-0.4,0.2-0.5C2,13.4,2.6,12.9,3,11.4c-1.8-1-3-2.7-3-4.5c0-3.2,3.6-5.7,8-5.7s8,2.6,8,5.7 C16,10.1,12.4,12.6,8,12.6z M1.1,6.9c0,1.3,0.9,2.6,2.4,3.5l0.8,0.4l-0.2,0.9c-0.2,0.6-0.4,1.1-0.6,1.5c0.9-0.4,1.7-0.9,2.5-1.5 l0.4-0.3l0.5,0.1c0.4,0,0.8,0.1,1.2,0.1c3.7,0,6.9-2.1,6.9-4.6S11.7,2.3,8,2.3S1.1,4.4,1.1,6.9z"/>
</svg>
