<?xml version="1.0" encoding="utf-8"?>
<!-- Generator: Adobe Illustrator 19.0.1, SVG Export Plug-In . SVG Version: 6.00 Build 0)  -->
<svg version="1.1" id="tag" xmlns="http://www.w3.org/2000/svg" xmlns:xlink="http://www.w3.org/1999/xlink" x="0px" y="0px"
	 viewBox="0 0 16 16" enable-background="new 0 0 16 16" xml:space="preserve">
<g>
	<path d="M9.4,15.9c-0.5,0-0.9-0.2-1.2-0.5L1,8.4C0.5,7.8,0,6.7,0,5.9V1.8C0,0.8,0.8,0,1.8,0h4.1c0.8,0,1.9,0.4,2.5,1l7.1,7
		C15.8,8.4,16,8.9,16,9.3c0,0.5-0.2,0.9-0.5,1.2l-4.9,4.9C10.3,15.8,9.8,15.9,9.4,15.9z M1.8,1C1.4,1,1,1.3,1,1.8v4.1
		c0,0.6,0.3,1.4,0.8,1.8l7.1,7.1c0.3,0.3,0.8,0.3,1.1,0l4.9-4.8C14.9,9.7,15,9.5,15,9.3c0-0.2-0.1-0.4-0.2-0.6l-7.1-7
		C7.3,1.3,6.5,1,5.9,1H1.8z"/>
</g>
<path d="M4.3,2.9c-0.7,0-1.3,0.6-1.3,1.3s0.6,1.3,1.3,1.3S5.6,5,5.6,4.3S5,2.9,4.3,2.9z"/>
</svg>
