<?xml version="1.0" encoding="utf-8"?>
<!-- Generator: Adobe Illustrator 18.1.1, SVG Export Plug-In . SVG Version: 6.00 Build 0)  -->
<svg version="1.1" id="Card_Open" xmlns="http://www.w3.org/2000/svg" xmlns:xlink="http://www.w3.org/1999/xlink" x="0px" y="0px"
	 viewBox="0 0 16 16" enable-background="new 0 0 16 16" xml:space="preserve">
<g>
	<path d="M14.6,15.6c0.3,0,0.5-0.4,0.5-0.4c0-0.1,0.1-0.3,0.1-0.4V1.2c0-0.1,0-0.2,0-0.3c0,0,0-0.1,0-0.1s0,0,0,0s0,0,0,0
		s0-0.1,0-0.2c0,0,0,0,0-0.1c-0.1-0.1-0.2-0.3-0.3-0.3c-0.1,0-0.1,0-0.1,0c-0.1,0-0.3,0-0.4,0H3.8c-0.1,0-0.3,0-0.4,0c0,0,0,0-0.1,0
		C3.2,0.3,3.1,0.4,3,0.6c0,0.1,0,0.1,0,0.1c0,0.1,0,0.2,0,0.2s0,0,0,0s0,0,0,0S3,1,3,1c0,0,0,0.1,0,0.3v7.3c0,0.1-0.1,0.2-0.2,0.2
		H0.4c-0.1,0-0.2,0.1-0.2,0.2v0.5c0,0.1,0.1,0.2,0.2,0.2h2.4C2.9,9.6,3,9.7,3,9.8v5c0,0.1,0,0.3,0.1,0.4c0,0,0.2,0.4,0.5,0.4
		 M12.8,1.4c0.2,0,0.4,0.2,0.4,0.4c0,0.2-0.2,0.4-0.4,0.4s-0.4-0.2-0.4-0.4C12.4,1.6,12.6,1.4,12.8,1.4z M11.6,1.4
		c0.2,0,0.4,0.2,0.4,0.4c0,0.2-0.2,0.4-0.4,0.4c-0.2,0-0.4-0.2-0.4-0.4C11.2,1.6,11.4,1.4,11.6,1.4z M4.2,14.7
		c-0.1,0-0.2-0.1-0.2-0.2V9.8c0-0.1,0.1-0.2,0.2-0.2h4.2c0.1,0,0.1,0.1,0.1,0.1l-1.3,1.3c-0.1,0.1-0.1,0.2,0,0.3l0.3,0.3
		c0.1,0.1,0.2,0.1,0.3,0l2.4-2.4c0.1-0.1,0.1-0.2,0-0.3L7.7,6.4c-0.1-0.1-0.2-0.1-0.3,0L7,6.7C7,6.8,7,6.9,7,7l1.5,1.5
		c0.1,0.1,0,0.1-0.1,0.1H4.2C4.1,8.7,4,8.6,4,8.5V4.2C4,4.1,4.1,4,4.2,4H14c0.1,0,0.2,0.1,0.2,0.2v10.3c0,0.1-0.1,0.2-0.2,0.2H4.2z
		 M14.1,2.3c-0.2,0-0.4-0.2-0.4-0.4c0-0.2,0.2-0.4,0.4-0.4c0.2,0,0.4,0.2,0.4,0.4C14.5,2.1,14.3,2.3,14.1,2.3z"/>
</g>
</svg>
