<?xml version="1.0" encoding="utf-8"?>
<!-- Generator: Adobe Illustrator 19.0.0, SVG Export Plug-In . SVG Version: 6.00 Build 0)  -->
<svg version="1.1" id="Cloud" xmlns="http://www.w3.org/2000/svg" xmlns:xlink="http://www.w3.org/1999/xlink" x="0px" y="0px"
	 viewBox="0 0 16 16" enable-background="new 0 0 16 16" xml:space="preserve">
<path d="M13.3,5.8c0,0-0.1-0.1-0.1-0.1l0-0.1c-0.6-1.3-2-1.9-3.3-1.4c0,0,0,0,0,0c0,0,0,0-0.1-0.1C8.5,2.6,6.4,2.2,4.6,3
	C3.2,3.6,2.3,4.9,2,6.6C0.8,6.8-0.1,7.9,0,9.2c0.1,1.3,1.2,2.2,2.5,2.2h10.6c0.1,0,0.2,0,0.4-0.1c0.1,0,0.2-0.1,0.3-0.1
	c1.4-0.2,2.4-1.5,2.2-2.9C15.9,7,14.7,5.9,13.3,5.8z M14.8,8.5c-0.1,1.1-0.9,1.9-1.9,1.9H2.8c-0.9,0-1.5-0.5-1.6-1.4
	c0-0.3,0-0.6,0.2-0.9c0.2-0.3,0.7-0.5,1.2-0.6l0,0l0,0C2.7,7.4,2.8,7.4,3,7.4h0.1V7.3c0-1.8,0.8-2.9,2.4-3.4c1.6-0.5,2.8,0,4,1.4
	l0.1,0.1l0.1-0.1c0,0,0.1,0,0.1-0.1c0.1,0,0.2-0.1,0.4-0.2c0.4-0.2,0.9-0.2,1.3,0c0.4,0.2,0.7,0.5,0.8,1c0.1,0.5,0.2,0.5,0.7,0.5
	C14,6.6,14.8,7.5,14.8,8.5z"/>
</svg>
