<?xml version="1.0" encoding="utf-8"?>
<!-- Generator: Adobe Illustrator 19.0.0, SVG Export Plug-In . SVG Version: 6.00 Build 0)  -->
<svg version="1.1" id="lock" xmlns="http://www.w3.org/2000/svg" xmlns:xlink="http://www.w3.org/1999/xlink" x="0px" y="0px"
	 viewBox="0 0 16 16" enable-background="new 0 0 16 16" xml:space="preserve">
<path d="M13.7,7.1h-0.2V5.4l0,0C13.4,2.4,11,0,8,0S2.7,2.4,2.5,5.4l0,0v1.7H2.3c-0.9,0-1.7,0.8-1.7,1.7v5.5c0,1,0.8,1.7,1.7,1.7
	h11.4c0.9,0,1.7-0.8,1.7-1.7V8.8C15.5,7.9,14.8,7.1,13.7,7.1z M3.6,5.6c0-2.4,2.1-4.5,4.5-4.5s4.5,1.9,4.5,4.5v1.5H3.6V5.6z
	 M14.3,14.3c0,0.3-0.2,0.6-0.6,0.6H2.3c-0.3,0-0.6-0.2-0.6-0.6V8.8c0-0.3,0.2-0.6,0.6-0.6h11.4c0.3,0,0.6,0.2,0.6,0.6V14.3z"/>
<path d="M9.3,10.9c0-0.7-0.6-1.3-1.3-1.3s-1.3,0.6-1.3,1.3c0,0.5,0.3,0.9,0.8,1.1v0.8c0,0.2,0.2,0.5,0.5,0.5c0.2,0,0.5-0.2,0.5-0.5
	V12C8.9,11.8,9.3,11.3,9.3,10.9z"/>
</svg>
