<?xml version="1.0" encoding="utf-8"?>
<!-- Generator: Adobe Illustrator 19.1.0, SVG Export Plug-In . SVG Version: 6.00 Build 0)  -->
<svg version="1.1" id="saveddoc" xmlns="http://www.w3.org/2000/svg" xmlns:xlink="http://www.w3.org/1999/xlink" x="0px" y="0px"
	 viewBox="0 0 16 16" style="enable-background:new 0 0 16 16;" xml:space="preserve">
<polygon points="8,10.7 5.1,7.8 5.9,7.1 8,9.3 10.1,7.1 10.9,7.8 "/>
<path d="M14.9,14.3H1.3c-0.3,0-0.7-0.1-0.9-0.4C0.1,13.7,0,13.4,0,13V2.6C0,2,0.5,1.5,1.1,1.5H5c0.2,0,0.4,0.1,0.6,0.2l0.2,0.1
	L7.2,3H15c0.8,0.2,1,0.6,1,1v9.4C15.9,14,15.5,14.3,14.9,14.3z M0.9,13.2c0,0.1,0.1,0.2,0.3,0.2h13.7c0.1,0,0.1,0,0.2-0.1l0-9.3
	L6.9,4l-2-1.5l-3.8,0c-0.2,0-0.2,0-0.2,0.2L0.9,13.2z"/>
</svg>
