<?xml version="1.0" encoding="utf-8"?>
<!-- Generator: Adobe Illustrator 19.0.0, SVG Export Plug-In . SVG Version: 6.00 Build 0)  -->
<svg version="1.1" id="calendar" xmlns="http://www.w3.org/2000/svg" xmlns:xlink="http://www.w3.org/1999/xlink" x="0px" y="0px"
	 viewBox="0 0 16 16" enable-background="new 0 0 16 16" xml:space="preserve">
<rect x="2.4" y="6.1" width="11.2" height="0.8"/>
<rect x="2.4" y="9.1" width="11.2" height="0.8"/>
<rect x="2.4" y="12.2" width="11.2" height="0.8"/>
<path d="M15,3.4h-3.7V0h-1v3.4H5.2V0h-1v3.4H1c-0.6,0-1,0.5-1,1V15c0,0.6,0.5,1,1,1h14c0.6,0,1-0.5,1-1V4.4C16,3.8,15.5,3.4,15,3.4z
	 M15,15L1,15L1,4.4h14l0,0L15,15z"/>
</svg>
