<?xml version="1.0" encoding="utf-8"?>
<!-- Generator: Adobe Illustrator 19.0.0, SVG Export Plug-In . SVG Version: 6.00 Build 0)  -->
<svg version="1.1" id="Download" xmlns="http://www.w3.org/2000/svg" xmlns:xlink="http://www.w3.org/1999/xlink" x="0px" y="0px"
	 viewBox="0 0 16 16" enable-background="new 0 0 16 16" xml:space="preserve">
<g>
	<path d="M10,13.2c-0.1-0.1-0.2-0.1-0.3,0l-1.2,1.1c-0.1,0.1-0.1,0-0.1-0.1v-0.4c0-0.1,0-0.3,0-0.4v-0.3c0-0.1,0-0.3,0-0.4V9.7
		c0-0.1-0.1-0.2-0.2-0.2H7.7c-0.1,0-0.2,0.1-0.2,0.2v3.1c0,0.1,0,0.3,0,0.4v0.3c0,0.1,0,0.3,0,0.4v0.4c0,0.1-0.1,0.1-0.1,0.1l-1.1-1
		c-0.1-0.1-0.2-0.1-0.3,0l-0.2,0.2c-0.1,0.1-0.1,0.2,0,0.3l1.5,1.5c0.1,0.1,0.2,0.2,0.3,0.3l0.2,0.2c0.1,0.1,0.2,0.1,0.3,0l0.2-0.2
		c0.1-0.1,0.2-0.2,0.3-0.3l1.6-1.6c0.1-0.1,0.1-0.2,0-0.3L10,13.2z"/>
</g>
<path d="M14.3,0H6.9C6.6,0,6.3,0.1,6.1,0.3l-4.7,5C1.1,5.6,1,5.9,1,6.2V15h0.9V6.4h5.6V0.9h6.7V15H15V0.8C15,0.3,14.7,0,14.3,0z
	 M6.6,5.4H2.5l4.1-4.3V5.4z"/>
</svg>
