<?xml version="1.0" encoding="utf-8"?>
<!-- Generator: Adobe Illustrator 19.0.1, SVG Export Plug-In . SVG Version: 6.00 Build 0)  -->
<svg version="1.1" id="cloud_tag_toggle" xmlns="http://www.w3.org/2000/svg" xmlns:xlink="http://www.w3.org/1999/xlink" x="0px"
	 y="0px" viewBox="0 0 16 16" enable-background="new 0 0 16 16" xml:space="preserve">
<path d="M8,14.9c-0.4,0-0.8-0.2-1.1-0.5L0.9,8.5C0.4,8,0,7,0,6.3V2.8C0,2,0.7,1.3,1.6,1.3H5c0.7,0,1.7,0.4,2.2,0.9l5.9,5.9
	c0.3,0.3,0.5,0.7,0.5,1.1c0,0.4-0.2,0.8-0.5,1.1l-4.1,4.1C8.8,14.7,8.4,14.9,8,14.9z M1.6,2.3C1.3,2.3,1,2.5,1,2.8v3.5
	c0,0.5,0.3,1.1,0.6,1.4l5.9,6c0.2,0.2,0.6,0.2,0.8,0l4.1-4.1c0.1-0.1,0.2-0.2,0.2-0.4c0-0.1-0.1-0.3-0.2-0.4L6.5,2.9
	C6.2,2.6,5.5,2.3,5,2.3H1.6z"/>
<circle cx="3.9" cy="4.6" r="1.1"/>
<path d="M15.5,8L9.6,2.1C9.1,1.6,8.1,1.2,7.4,1.2h-2c0.7,0,1.7,0.4,2.2,0.9l0.2,0.2c0.4,0.1,0.9,0.3,1.1,0.6l5.9,5.9
	C14.9,8.9,15,9,15,9.2c0,0.1-0.1,0.3-0.2,0.4l-4.1,4.1c-0.2,0.2-0.5,0.2-0.7,0.1l-0.7,0.7c0,0-0.1,0.1-0.1,0.1
	c0.3,0.2,0.6,0.4,1,0.4c0.4,0,0.8-0.2,1.1-0.5l4.1-4.1C15.8,10,16,9.6,16,9.2C16,8.8,15.8,8.3,15.5,8z"/>
</svg>
