<?xml version="1.0" encoding="utf-8"?>
<!-- Generator: Adobe Illustrator 19.1.0, SVG Export Plug-In . SVG Version: 6.00 Build 0)  -->
<svg version="1.1" id="Video" xmlns="http://www.w3.org/2000/svg" xmlns:xlink="http://www.w3.org/1999/xlink" x="0px" y="0px"
	 viewBox="0 0 16 16" style="enable-background:new 0 0 16 16;" xml:space="preserve">
<path d="M9.8,13.9H2.1C1,13.9,0,13,0,11.8V4.1C0,3,1,2,2.1,2h7.7c1.1,0,2.1,0.9,2.1,2.1l2.2-1.6h0.3C15.3,2.5,16,3.2,16,4v7.9
	c0,0.9-0.7,1.6-1.6,1.6h-0.3l-2.2-1.6C11.9,13,11,13.9,9.8,13.9z M2.1,2.9c-0.7,0-1.2,0.5-1.2,1.2v7.7c0,0.7,0.5,1.2,1.2,1.2h7.7
	c0.7,0,1.2-0.5,1.2-1.2V9.3c0,0,0.2,1.1,3.4,3.2c0,0,0.6-0.3,0.6-0.6V4c0-0.3-0.3-0.6-0.6-0.6h0C11.3,5.2,11,6.8,11,6.8V4.1
	c0-0.7-0.5-1.2-1.2-1.2H2.1z"/>
</svg>
