<?xml version="1.0" encoding="utf-8"?>
<!-- Generator: Adobe Illustrator 19.0.0, SVG Export Plug-In . SVG Version: 6.00 Build 0)  -->
<svg version="1.1" id="alert" xmlns="http://www.w3.org/2000/svg" xmlns:xlink="http://www.w3.org/1999/xlink" x="0px" y="0px"
	 viewBox="0 0 16 16" enable-background="new 0 0 16 16" xml:space="preserve">
<path d="M7.2,12c0-0.5,0.3-0.8,0.8-0.8c0.5,0,0.8,0.4,0.8,0.8c0,0.5-0.3,0.8-0.8,0.8C7.5,12.9,7.2,12.5,7.2,12z"/>
<polygon points="7.4,10 7.1,5.8 8.9,5.8 8.6,10 "/>
<g>
	<path fill="none" stroke="#000000" stroke-miterlimit="10" d="M7.4,1.3c0.3-0.6,0.8-0.6,1.2,0l6.7,12.5c0.3,0.6,0,1.1-0.6,1.1H1.3
		c-0.7,0-1-0.5-0.6-1.1L7.4,1.3z"/>
</g>
</svg>
