<?xml version="1.0" encoding="utf-8"?>
<!-- Generator: Adobe Illustrator 18.1.1, SVG Export Plug-In . SVG Version: 6.00 Build 0)  -->
<svg version="1.1" id="Object_svg" xmlns="http://www.w3.org/2000/svg" xmlns:xlink="http://www.w3.org/1999/xlink" x="0px" y="0px"
	 viewBox="0 0 16 16" enable-background="new 0 0 16 16" xml:space="preserve">
<path d="M15.8,11.2c0,0.7,0,1.5,0,2.2c0,0.1,0,0.2-0.1,0.2c-1.3,0.6-2.5,1.3-3.8,1.9c-0.1,0.1-0.2,0-0.3,0c-1.2-0.6-2.3-1.2-3.5-1.7 c-0.1-0.1-0.2-0.1-0.3,0c-1.1,0.6-2.3,1.1-3.4,1.7c-0.1,0.1-0.2,0.1-0.4,0c-1.2-0.6-2.5-1.3-3.7-1.9c-0.1-0.1-0.2-0.1-0.2-0.3 c0-1.5,0-3,0-4.4c0-0.1,0-0.2,0.2-0.3C1.4,8.1,2.6,7.6,3.7,7c0.1-0.1,0.2-0.1,0.2-0.2c0-1.4,0-2.7,0-4.1c0-0.1,0-0.2,0.2-0.3 c1.3-0.6,2.5-1.3,3.8-1.9c0.1-0.1,0.2,0,0.3,0c1.3,0.6,2.5,1.3,3.8,1.9c0.1,0.1,0.2,0.1,0.2,0.3c0,1.3,0,2.7,0,4 c0,0.1,0,0.2,0.2,0.3c1.2,0.6,2.3,1.1,3.5,1.7c0.1,0.1,0.2,0.1,0.2,0.3C15.8,9.7,15.8,10.5,15.8,11.2z M4.5,3.2 C4.5,3.3,4.5,3.3,4.5,3.2c0,1.2,0,2.4,0,3.6c0,0.1,0.1,0.2,0.2,0.2c0.9,0.5,1.9,0.9,2.8,1.4c0,0,0.1,0,0.1,0.1c0,0,0-0.1,0-0.1 c0-1.2,0-2.3,0-3.5c0-0.1-0.1-0.2-0.1-0.2C6.6,4.3,5.7,3.8,4.8,3.3C4.7,3.3,4.6,3.3,4.5,3.2z M11.4,3.2C11.4,3.2,11.3,3.3,11.4,3.2 c-1.1,0.5-2,1-3,1.5C8.3,4.8,8.3,4.8,8.3,4.9c0,1.1,0,2.2,0,3.3c0,0.1,0,0.1,0,0.2c0,0,0.1,0,0.1,0c1-0.5,1.9-1,2.9-1.5 c0.1,0,0.1-0.1,0.1-0.2c0-0.9,0-1.9,0-2.8C11.4,3.7,11.4,3.5,11.4,3.2z M0.7,9.5c0,0,0,0.1,0,0.1c0,1.2,0,2.3,0,3.5 c0,0.1,0,0.1,0.1,0.2c1,0.5,1.9,1,2.9,1.4c0,0,0.1,0,0.1,0c0,0,0,0,0-0.1c0-1.2,0-2.3,0-3.5c0-0.1-0.1-0.1-0.1-0.2 C3,10.6,2.2,10.3,1.5,9.9C1.3,9.8,1,9.6,0.7,9.5z M4.5,14.8c0.1,0,0.1-0.1,0.2-0.1c0.9-0.5,1.9-0.9,2.8-1.4c0.1-0.1,0.2-0.1,0.2-0.3 c0-1.1,0-2.2,0-3.2c0-0.1,0-0.2,0-0.3c0,0-0.1,0-0.1,0c-1,0.5-2,1-3,1.5c-0.1,0-0.1,0.1-0.1,0.2c0,1.1,0,2.2,0,3.4 C4.5,14.6,4.5,14.7,4.5,14.8z M11.4,14.8c0-1.2,0-2.4,0-3.6c0-0.1-0.1-0.1-0.1-0.2c-1-0.5-1.9-1-2.9-1.4c0,0-0.1,0-0.1-0.1 c0,0.1,0,0.1,0,0.2c0,1.1,0,2.2,0,3.3c0,0.1,0,0.2,0.2,0.3c0.9,0.5,1.9,0.9,2.8,1.4C11.3,14.7,11.3,14.7,11.4,14.8z M12,14.7 C12.1,14.7,12.1,14.7,12,14.7c1.1-0.5,2.1-1,3-1.5c0.1,0,0.1-0.1,0.1-0.2c0-1.1,0-2.3,0-3.4c0,0,0-0.1,0-0.1c0,0,0,0-0.1,0 c-1,0.5-2,1-3,1.5c-0.1,0-0.1,0.1-0.1,0.2c0,0.6,0,1.1,0,1.7C12,13.5,12,14.1,12,14.7z M4.9,2.7C4.9,2.7,5,2.7,4.9,2.7 c1,0.5,2,1,3,1.5c0.1,0,0.2,0,0.2,0C9,3.7,10,3.2,10.9,2.8c0,0,0.1,0,0.1-0.1c-1-0.5-2-1-3-1.5c0,0-0.1,0-0.1,0 C6.9,1.7,5.9,2.2,4.9,2.7z M7.2,9c0,0-0.1-0.1-0.1-0.1C6.2,8.5,5.2,8,4.3,7.5c-0.1,0-0.2,0-0.2,0C3.4,7.9,2.7,8.2,2,8.6 C1.7,8.7,1.4,8.8,1.1,9c0.1,0,0.1,0.1,0.2,0.1c0.8,0.4,1.6,0.8,2.4,1.2c0.3,0.2,0.6,0.2,1,0C5.5,9.8,6.4,9.4,7.2,9z M8.7,9 c1,0.5,2,1,3,1.5c0.1,0,0.2,0,0.2,0c0.8-0.4,1.6-0.8,2.4-1.2c0.2-0.1,0.3-0.2,0.5-0.3c0,0-0.1,0-0.1-0.1c-1-0.5-1.9-1-2.9-1.4 c-0.1,0-0.2,0-0.2,0c-0.7,0.3-1.4,0.7-2.1,1.1C9.2,8.7,9,8.8,8.7,9z"/>
</svg>
