<?xml version="1.0" encoding="utf-8"?>
<!-- Generator: Adobe Illustrator 19.1.0, SVG Export Plug-In . SVG Version: 6.00 Build 0)  -->
<svg version="1.1" id="notification" xmlns="http://www.w3.org/2000/svg" xmlns:xlink="http://www.w3.org/1999/xlink" x="0px"
	 y="0px" viewBox="0 0 16 16" style="enable-background:new 0 0 16 16;" xml:space="preserve">
<path d="M15.4,12.2c-1.4-0.7-2.5-3.3-2.7-5.1l-0.1-1.8c0-1.9-1.3-3.7-3.4-4c-0.1,0-0.2,0-0.3,0C9,1.2,9,1.1,9,1c0-0.5-0.4-1-1-1
	S7,0.4,7,1c0,0.1,0,0.2,0.1,0.3c-0.2,0-0.3,0-0.5,0.1c-2,0.4-3.3,2.1-3.3,4L3.2,7.1C3.1,9,1.9,11.6,0.5,12.3c0,0,0,0,0,0
	c-0.2,0.1-0.4,0.3-0.5,0.6c-0.1,0.4,0.2,0.8,0.6,0.8c1.6,0.2,3.3,0.4,4.9,0.5C5.9,15.2,6.8,16,8,16s2.1-0.8,2.4-1.9
	c1.6-0.1,3.3-0.2,4.9-0.5c0.4-0.1,0.7-0.4,0.6-0.8C15.9,12.5,15.7,12.3,15.4,12.2z M8.3,15.5c-0.1,0-0.2-0.1-0.2-0.2S8.1,15,8.3,15
	c0.6,0,1-0.4,1-0.9c0-0.1,0.1-0.2,0.2-0.2s0.2,0.1,0.2,0.2C9.8,14.9,9.2,15.5,8.3,15.5z M2,12.4c1.1-1,2.1-2.8,2.3-5l0.1-2
	c0-1.6,1-3,2.6-3.1l0.9,0c0.3,0,0.6,0,0.9,0c1.6,0.2,2.6,1.6,2.6,3.1l0.1,2c0.2,2.2,1.2,4.1,2.3,5C10,12.8,6,12.8,2,12.4z"/>
</svg>
