<?xml version="1.0" encoding="utf-8"?>
<!-- Generator: Adobe Illustrator 19.0.1, SVG Export Plug-In . SVG Version: 6.00 Build 0)  -->
<svg version="1.1" id="view" xmlns="http://www.w3.org/2000/svg" xmlns:xlink="http://www.w3.org/1999/xlink" x="0px" y="0px"
	 viewBox="0 0 16 16" enable-background="new 0 0 16 16" xml:space="preserve">
<path d="M8.1,10.4c-1.5,0-2.8-1.3-2.8-2.8c0-1.5,1.3-2.8,2.8-2.8s2.8,1.3,2.8,2.8C10.9,9.2,9.7,10.4,8.1,10.4z M8.1,5.6
	c-1.1,0-2,0.9-2,2s0.9,2,2,2c1.1,0,2-0.9,2-2S9.2,5.6,8.1,5.6z"/>
<path d="M16,7.4C14,4.6,11.2,3,8.2,3c0,0,0,0,0,0C5.1,3,2.1,4.6,0,7.5l0,0L0,7.6c2.1,2.9,5.1,4.5,8.2,4.5c0,0,0,0,0,0
	C11.2,12,14,10.3,16,7.4L16,7.4L16,7.4z M8.2,11.1C8.2,11.1,8.2,11.1,8.2,11.1c-2.6,0-5.1-1.3-7.1-3.6c1.9-2.3,4.4-3.7,7-3.7
	c0,0,0,0,0,0c2.6,0,4.9,1.3,6.8,3.5C13.1,9.7,10.8,11.1,8.2,11.1z"/>
</svg>
