<?xml version="1.0" encoding="utf-8"?>
<!-- Generator: Adobe Illustrator 19.1.0, SVG Export Plug-In . SVG Version: 6.00 Build 0)  -->
<svg version="1.1" id="tweet" xmlns="http://www.w3.org/2000/svg" xmlns:xlink="http://www.w3.org/1999/xlink" x="0px" y="0px"
	 viewBox="0 0 16 16" style="enable-background:new 0 0 16 16;" xml:space="preserve">
<path d="M11.3,1.6l-0.8,0c-1.8,0.3-3,1.9-2.8,3.6l0,0.2C5.3,5.3,3.2,4.2,1.5,2.2L1.4,2.1L1.3,2.3C0.9,3,0.8,3.8,1,4.6
	c0.2,0.7,0.5,1.3,1,1.7C1.7,6.3,1.4,6.2,1,6L0.9,5.9l0,0.2C1,7.7,1.7,8.7,3,9.2c-0.3,0-0.6,0-0.9,0l-0.2,0L2,9.3
	c0.5,1.3,1.4,2,2.7,2.2c-0.4,0.3-0.9,0.5-1.3,0.7c-0.9,0.4-1.9,0.5-2.9,0.4l-0.4,0L0.4,13c1.1,0.7,2.2,1.1,3.4,1.3l0.8,0.1l1.2,0
	L7,14.2c2.5-0.5,4.4-1.8,5.8-3.9c1-1.6,1.6-3.4,1.5-5.3c0,0,0-0.1,0-0.1l0.2-0.2c0.2-0.2,0.6-0.5,0.7-0.7L16,3l-0.4,0.2
	c-0.5,0.2-0.8,0.3-1.2,0.4c0.5-0.4,0.8-0.9,1-1.5l0.1-0.3L15.1,2c-0.5,0.3-1,0.5-1.6,0.6c-0.1,0-0.1,0-0.2,0
	c-0.4-0.4-0.9-0.7-1.4-0.8L11.3,1.6z M3.2,6.2C2.8,6,2.5,5.8,2.2,5.5C1.8,4.9,1.6,4.3,1.7,3.5c1.9,1.8,4.2,2.7,6.9,2.7l0.1,0
	L8.6,5.8c0-0.2-0.1-0.4-0.1-0.6C8.4,4.6,8.6,3.9,9,3.4c0.4-0.5,1-0.9,1.6-1c0.9-0.1,1.7,0.2,2.3,0.8c0.1,0.1,0.2,0.2,0.4,0.1
	c0,0,0.1,0,0.1,0l-0.8,0.7l0.2,0.1c0.3,0.1,0.6,0.2,0.9,0.2c0,0-0.1,0.1-0.1,0.1c-0.1,0.1-0.1,0.2-0.1,0.3c0.1,2.2-0.6,4.2-2,6
	c-1,1.3-2.4,2.1-3.9,2.6c-1.6,0.4-3.1,0.4-4.6,0c1.4-0.4,2.5-1.2,3.6-2.2l0.2-0.2H5.3c0,0,0,0,0,0c-0.6,0-1-0.1-1.4-0.3
	c-0.3-0.2-0.5-0.4-0.8-0.6c0.6-0.1,1.1-0.3,1.6-0.5c0.3-0.1,0.5-0.2,0.8-0.3L6.1,9L3.6,8.6C2.7,8.4,2.2,7.9,1.8,7.1
	c0.8,0.1,1.6,0.1,2.4,0.1l0.4,0L3.9,6.7L3.2,6.2z"/>
</svg>
