<?xml version="1.0" encoding="utf-8"?>
<!-- Generator: Adobe Illustrator 19.0.1, SVG Export Plug-In . SVG Version: 6.00 Build 0)  -->
<svg version="1.1" id="Home_inverse" xmlns="http://www.w3.org/2000/svg" xmlns:xlink="http://www.w3.org/1999/xlink" x="0px"
	 y="0px" viewBox="0 0 16 16" enable-background="new 0 0 16 16" xml:space="preserve">
<path fill="none" stroke="#000000" stroke-width="0.54" stroke-miterlimit="10" d="M8,3.9L2.4,8.4v6.4c0,0.5,0.6,1,1.2,1h1.5v-5.4
	h2.8v5.4h4.4c0.7,0,1.2-0.4,1.2-1V8.4L8,3.9z"/>
<g>
	<path fill="none" stroke="#000000" stroke-width="0.54" stroke-miterlimit="10" d="M13.8,4.7c-0.1-0.1-0.2-0.3-0.2-0.4V0.7
		c0-0.1-0.1-0.3-0.3-0.3H12c-0.1,0-0.3,0.1-0.3,0.3v2.1c0,0.1-0.1,0.2-0.2,0.1L8.2,0.3c-0.1-0.1-0.3-0.1-0.4,0L0.3,6.1
		c-0.1,0.1-0.1,0.2,0,0.4l0.6,0.8c0.1,0.1,0.2,0.1,0.4,0l6.5-5.1c0.1-0.1,0.3-0.1,0.4,0l6.5,5.1c0.1,0.1,0.3,0.1,0.4,0l0.6-0.8
		c0.1-0.1,0.1-0.3,0-0.4L13.8,4.7z"/>
</g>
</svg>
