<?xml version="1.0" encoding="utf-8"?>
<!-- Generator: Adobe Illustrator 19.1.0, SVG Export Plug-In . SVG Version: 6.00 Build 0)  -->
<svg version="1.1" id="image" xmlns="http://www.w3.org/2000/svg" xmlns:xlink="http://www.w3.org/1999/xlink" x="0px" y="0px"
	 viewBox="0 0 16 16" style="enable-background:new 0 0 16 16;" xml:space="preserve">
<polygon points="6.4,11.6 5.3,10.5 3.7,12.2 3.7,13.8 12.5,13.8 12.5,11.1 9.8,8.3 "/>
<path d="M5.3,8.7c0.5,0,0.9-0.2,1.2-0.5C6.8,7.9,7,7.5,7,7c0-0.5-0.2-0.9-0.5-1.2C6.2,5.5,5.8,5.3,5.3,5.3c-0.5,0-0.9,0.2-1.2,0.5
	C3.8,6.1,3.7,6.5,3.7,7c0,0.5,0.2,0.9,0.5,1.2C4.5,8.5,4.9,8.7,5.3,8.7z"/>
<path d="M13.8,3.9c0-0.2-0.1-0.4-0.2-0.6l-3.1-3.1C10.3,0.1,10.1,0,9.8,0H2.9C2.5,0,2.1,0.4,2.1,0.9v14.3c0,0.5,0.4,0.9,0.9,0.9h10
	c0.5,0,0.9-0.4,0.9-0.9V3.9z M9.9,0.6c0,0,0.1,0,0.1,0.1l3.1,3.1c0,0,0.1,0.1,0.1,0.1H9.9V0.6z M13.2,15.1c0,0.2-0.1,0.3-0.3,0.3
	h-10c-0.2,0-0.3-0.1-0.3-0.3V0.9c0-0.2,0.1-0.3,0.3-0.3h6.4v3.9h3.9V15.1z"/>
</svg>
