<?xml version="1.0" encoding="utf-8"?>
<!-- Generator: Adobe Illustrator 19.1.0, SVG Export Plug-In . SVG Version: 6.00 Build 0)  -->
<svg version="1.1" id="audio" xmlns="http://www.w3.org/2000/svg" xmlns:xlink="http://www.w3.org/1999/xlink" x="0px" y="0px"
	 viewBox="0 0 16 16" style="enable-background:new 0 0 16 16;" xml:space="preserve">
<style type="text/css">
	.st0{fill:none;}
</style>
<path d="M13.1,16h-10c-0.5,0-0.9-0.4-0.9-0.9V0.9C2.2,0.4,2.6,0,3.1,0H10c0.2,0,0.4,0.1,0.6,0.2l3.1,3.1C13.9,3.5,14,3.7,14,3.9
	v11.2C14,15.6,13.6,16,13.1,16z M3.1,0.6c-0.2,0-0.3,0.1-0.3,0.3v14.3c0,0.2,0.1,0.3,0.3,0.3h10c0.2,0,0.3-0.1,0.3-0.3V4.4H9.5V0.6
	H3.1z M10.1,3.9h3.3c0,0,0-0.1-0.1-0.1l-3.1-3.1c0,0-0.1-0.1-0.1-0.1V3.9z"/>
<path d="M11.1,8.6c-0.2,0-0.3,0.1-0.3,0.3v0.9c0,1.5-1.2,2.7-2.7,2.7s-2.7-1.2-2.7-2.7V8.9c0-0.2-0.1-0.3-0.3-0.3
	C5,8.6,4.8,8.7,4.8,8.9v0.9c0,1.7,1.3,3.1,3,3.3v1.2h-1v0.6h2.6v-0.6h-1V13c1.7-0.1,3-1.5,3-3.3V8.9C11.4,8.7,11.3,8.6,11.1,8.6z"/>
<path d="M8.1,5.1c-1.1,0-2,0.9-2,2v2.6c0,1.1,0.9,2,2,2s2-0.9,2-2V7.1C10.1,6,9.2,5.1,8.1,5.1z M8.1,5.7c0.8,0,1.4,0.6,1.4,1.4v1
	H6.7v-1C6.7,6.4,7.3,5.7,8.1,5.7z M8.1,11.1c-0.8,0-1.4-0.6-1.4-1.4v-1h2.9v1C9.5,10.5,8.9,11.1,8.1,11.1z"/>
<rect id="_x3C_Slice_x3E_" class="st0" width="16" height="16"/>
</svg>
