<?xml version="1.0" encoding="utf-8"?>
<!-- Generator: Adobe Illustrator 19.1.0, SVG Export Plug-In . SVG Version: 6.00 Build 0)  -->
<svg version="1.1" id="Time_selection" xmlns="http://www.w3.org/2000/svg" xmlns:xlink="http://www.w3.org/1999/xlink" x="0px"
	 y="0px" viewBox="0 0 16 16" style="enable-background:new 0 0 16 16;" xml:space="preserve">
<path d="M16,16v-1.1h-2.1c0,0,0,0,0,0V9.5c0.6-0.1,1-0.8,1-1.7s-0.5-1.5-1-1.7V4.6l1.4-2c0.1-0.2,0.1-0.4-0.1-0.5
	C15,2,14.7,2,14.6,2.2l-0.7,1.1V0.4c0-0.2-0.2-0.4-0.4-0.4S13,0.2,13,0.4v1.9H3V0.4C3,0.2,2.8,0,2.6,0S2.2,0.2,2.2,0.4v5.7
	c-0.6,0.1-1,0.8-1,1.7s0.5,1.5,1,1.7v3.4l-1.6,2.1H0V16H16z M9.2,8.2l0.4-0.9l2,0.4L13,5.8v2.4H9.2z M13,8.8v2.4H7.7L9,8.8H13z
	 M3,2.9h10v1.6L12.7,5H3V2.9z M3,5.6h9.3l-0.9,1.3L9.3,6.5L8.4,8.2H3V5.6z M3,11.2V8.8h5.1l-1.2,2.4H6.3L4.9,9.3l-1.5,1.9H3z
	 M5.3,11.2h-1l0.5-0.7L5.3,11.2z M2.1,14.9l-0.6,0l0.6-0.8L2.1,14.9z M3,13l1-1.3h1.8l1,1.4l0.7-1.4H13v3.1c0,0,0,0,0,0l-10,0L3,13z
	"/>
</svg>
