<?xml version="1.0" encoding="utf-8"?>
<!-- Generator: Adobe Illustrator 18.1.1, SVG Export Plug-In . SVG Version: 6.00 Build 0)  -->
<svg version="1.1" id="Expand" xmlns="http://www.w3.org/2000/svg" xmlns:xlink="http://www.w3.org/1999/xlink" x="0px" y="0px"
	 viewBox="0 0 16 16" enable-background="new 0 0 16 16" xml:space="preserve">
	<path d="M8,16c-4.4,0-8-3.6-8-8c0-4.4,3.6-8,8-8s8,3.6,8,8C16,12.4,12.4,16,8,16z M8,0.9C4.1,0.9,0.9,4.1,0.9,8 c0,3.9,3.2,7.1,7.1,7.1s7.1-3.2,7.1-7.1C15.1,4.1,11.9,0.9,8,0.9z"/>
<path d="M10.5,5L8.4,5V4.3l2.9,0l0.5,0l0,0.5l0,2.7l-0.7,0l0-1.9l0,0l-0.3,0.3L8.8,7.8L8.2,7.2l1.9-1.9L10.5,5L10.5,5z"/>
<path d="M5.7,10.9l2.1,0v0.7l-2.9,0l-0.5,0l0-0.5l0-2.7l0.7,0l0,1.9l0,0l0.3-0.3L7.4,8L8,8.6l-1.9,1.9L5.7,10.9L5.7,10.9z"/>
</svg>
