<?xml version="1.0" encoding="utf-8"?>
<!-- Generator: Adobe Illustrator 19.1.0, SVG Export Plug-In . SVG Version: 6.00 Build 0)  -->
<svg version="1.1" id="search-hamburger" xmlns="http://www.w3.org/2000/svg" xmlns:xlink="http://www.w3.org/1999/xlink" x="0px"
	 y="0px" viewBox="0 0 16 16" style="enable-background:new 0 0 16 16;" xml:space="preserve">
<path d="M0.1,14.7c1-1,2.4-2.4,3.4-3.4c0.5,0.5,0.8,0.8,1.3,1.3c-1,1-2.4,2.4-3.4,3.4C0.9,15.6,0.6,15.2,0.1,14.7z"/>
<path d="M9.8,1c2.9,0,5.1,2.3,5.1,5.1s-2.3,5.1-5.1,5.1S4.6,9,4.6,6.2S6.9,1,9.8,1 M9.8,0C6.4,0,3.6,2.8,3.6,6.2s2.8,6.2,6.2,6.2
	s6.2-2.8,6.2-6.2S13.2,0,9.8,0L9.8,0z"/>
<path d="M7.1,4.1V3.4h5.4v0.7H7.1z"/>
<path d="M7.1,8.8V8.2h5.4v0.7H7.1z"/>
<path d="M7.1,6.5V5.8h5.4v0.7H7.1z"/>
</svg>
