<?xml version="1.0" encoding="utf-8"?>
<!-- Generator: Adobe Illustrator 19.0.0, SVG Export Plug-In . SVG Version: 6.00 Build 0)  -->
<svg version="1.1" id="Cluster_map_marker" xmlns="http://www.w3.org/2000/svg" xmlns:xlink="http://www.w3.org/1999/xlink" x="0px"
	 y="0px" viewBox="0 0 16 16" enable-background="new 0 0 16 16" xml:space="preserve">
<path d="M10.6,3.8c-0.5,0-0.9,0.1-1.3,0.2C8.6,3.7,7.8,3.7,7,4C6.5,3.8,6,3.6,5.5,3.6c-1.8,0-3.4,1.5-3.4,3.3c0,1.4,0.9,2.6,2.3,3.1
	l1.1,3.1l1.1-3c0.1,0,0.2,0.1,0.3,0.1L8,13.3l1.2-3.1c0,0,0.1,0,0.1,0l0,0l0.1,0.1l1.2,3.1l1.1-3.1C13,9.7,13.9,8.4,13.9,7
	C13.9,5.3,12.4,3.8,10.6,3.8z M4.7,7c0,1.1,0.5,2.1,1.5,2.7l-0.6,1.5L4.7,9.1l0,0C3.7,8.8,3,7.9,3,6.8c0-1.3,1.1-2.4,2.5-2.4
	c0.1,0,0.3,0,0.4,0.1C5.1,5.2,4.7,6.1,4.7,7z M10.6,7c0,1-0.7,1.9-1.7,2.3l0,0l-0.8,2L7.3,9.4l0,0l0,0C6.2,8.9,5.5,8.1,5.5,7
	c0-1.3,1.1-2.4,2.5-2.4C9.3,4.7,10.5,5.7,10.6,7z M9.9,9.8c1-0.7,1.6-1.6,1.6-2.8c0-0.9-0.4-1.7-1.1-2.3c0.1,0,0.2,0,0.2,0
	C11.9,4.7,13,5.7,13,7c0,1-0.7,1.9-1.8,2.3l0,0l-0.7,2L9.9,9.8z"/>
<path d="M8,16c-4.4,0-8-3.6-8-8c0-4.4,3.6-8,8-8c4.4,0,8,3.6,8,8C16,12.4,12.4,16,8,16z M8,0.9C4.1,0.9,0.9,4.1,0.9,8
	c0,3.9,3.2,7.1,7.1,7.1c3.9,0,7.1-3.2,7.1-7.1C15.1,4.1,11.9,0.9,8,0.9z"/>
</svg>
