<?xml version="1.0" encoding="utf-8"?>
<!-- Generator: Adobe Illustrator 18.1.1, SVG Export Plug-In . SVG Version: 6.00 Build 0)  -->
<svg version="1.1" id="Attachment" xmlns="http://www.w3.org/2000/svg" xmlns:xlink="http://www.w3.org/1999/xlink" x="0px" y="0px"
	 viewBox="0 0 16 16" enable-background="new 0 0 16 16" xml:space="preserve">
<path fill-rule="evenodd" clip-rule="evenodd" d="M12.2,0.3c-0.7,0-1.3,0.3-1.8,0.8c-2.7,2.7-5.4,5.4-8,8c-0.5,0.5-0.9,1.1-1.1,1.7 c-1,2.5,1.4,4.7,3.2,4.5c1.1-0.1,2-0.6,2.8-1.4c1.8-1.8,3.5-3.5,5.3-5.3c0.1-0.1,0.1-0.1,0.2-0.2c0.1-0.2,0.1-0.5-0.1-0.7 c-0.2-0.2-0.4-0.2-0.7,0c-0.1,0.1-0.1,0.1-0.2,0.2c-1.8,1.8-3.5,3.5-5.3,5.3c-0.4,0.4-0.9,0.8-1.5,1c-0.9,0.3-1.6,0.1-2.3-0.6 c-0.6-0.6-0.9-1.4-0.6-2.3c0.2-0.6,0.6-1.1,1-1.5c2.6-2.6,5.3-5.3,7.9-7.9c0.1-0.1,0.1-0.1,0.2-0.2c0.5-0.4,1.1-0.5,1.6-0.2 c0.3,0.1,0.5,0.3,0.7,0.6c0.6,0.7,0.5,1.4-0.1,2c-2.3,2.3-4.6,4.6-6.8,6.8c-0.1,0.1-0.3,0.3-0.5,0.4c-0.3,0.2-0.6,0.1-0.9-0.2 C5,10.8,5,10.6,5.2,10.2c0.1-0.1,0.2-0.2,0.3-0.3c1.4-1.4,2.8-2.8,4.1-4.1c0.1-0.1,0.2-0.2,0.2-0.2C10,5.3,10,5.1,9.8,4.9 C9.6,4.7,9.4,4.7,9.2,4.8C9.1,4.9,9,5,8.9,5C7.5,6.4,6.1,7.8,4.7,9.2C4.6,9.3,4.4,9.5,4.3,9.7c-0.6,1-0.1,2.3,1.1,2.6 c0.8,0.2,1.4-0.1,1.9-0.7C9.7,9.4,12,7,14.3,4.7c0.3-0.3,0.6-0.7,0.7-1.1C15.3,2,13.9,0.3,12.2,0.3z"/>
</svg>
