<?xml version="1.0" encoding="utf-8"?>
<!-- Generator: Adobe Illustrator 19.1.0, SVG Export Plug-In . SVG Version: 6.00 Build 0)  -->
<svg version="1.1" id="Refresh" xmlns="http://www.w3.org/2000/svg" xmlns:xlink="http://www.w3.org/1999/xlink" x="0px" y="0px"
	 viewBox="0 0 16 16" enable-background="new 0 0 16 16" xml:space="preserve">
<path d="M7.4,4.1c0-0.1-0.1-0.3-0.2-0.4L5.4,2.2l1.9-1.4c0.1-0.1,0.2-0.2,0.2-0.3C7.5,0.2,7.3,0,7.1,0C7,0,6.9,0,6.8,0.1L4.4,1.8
	C4.3,1.9,4.2,2,4.2,2.2c0,0.1,0,0.1,0,0.2c0,0.1,0.1,0.1,0.1,0.2l2.2,1.9c0.1,0.1,0.2,0.1,0.3,0.1C7.2,4.6,7.4,4.4,7.4,4.1z"/>
<path d="M14,5.3c-1.2-2.6-3.9-4.1-6.8-3.8l-0.2,0l0,0l0,0l0,0l0,0C7,1.6,6.4,1.9,6.9,2.5l0.3,0c2.5-0.3,4.9,1,6,3.3
	c0.8,1.6,0.7,3.3,0.1,4.8l0.7,0.7C14.8,9.4,14.9,7.2,14,5.3z"/>
<path d="M8.3,11.9c0,0.1,0.1,0.3,0.2,0.4l1.8,1.6l-1.9,1.4c-0.1,0.1-0.2,0.2-0.2,0.3c0,0.2,0.2,0.5,0.4,0.5c0.1,0,0.2,0,0.3-0.1
	l2.4-1.7c0.1-0.1,0.2-0.2,0.2-0.4c0-0.1,0-0.1,0-0.2c0-0.1-0.1-0.1-0.1-0.2L9,11.5c-0.1-0.1-0.2-0.1-0.3-0.1
	C8.5,11.4,8.3,11.6,8.3,11.9z"/>
<path d="M1.6,10.7c1.2,2.6,3.9,4.1,6.8,3.8l0.2,0l0,0l0,0l0,0l0,0c0.1,0,0.7-0.4,0.2-0.9l-0.3,0c-2.5,0.3-4.9-1-6-3.3
	C1.7,8.7,1.7,7,2.4,5.5L1.7,4.8C0.8,6.6,0.7,8.8,1.6,10.7z"/>
</svg>
