<?xml version="1.0" encoding="utf-8"?>
<!-- Generator: Adobe Illustrator 18.1.0, SVG Export Plug-In . SVG Version: 6.00 Build 0)  -->
<!DOCTYPE svg PUBLIC "-//W3C//DTD SVG 1.1//EN" "http://www.w3.org/Graphics/SVG/1.1/DTD/svg11.dtd">
<svg version="1.1" id="rightarrow2" xmlns="http://www.w3.org/2000/svg" xmlns:xlink="http://www.w3.org/1999/xlink" x="0px"
	 y="0px" viewBox="0 0 16 16" enable-background="new 0 0 16 16" xml:space="preserve">
<path d="M8.9,7.6L1.8,0.5c-0.2-0.2-0.5-0.2-0.7,0S0.9,1,1.1,1.2L7.8,8L1,14.8c-0.2,0.2-0.2,0.5,0,0.7c0.1,0.1,0.2,0.1,0.4,0.1
	s0.3,0,0.4-0.1l7.2-7.2C9,8.1,9,7.8,8.9,7.6z"/>
<path d="M15,7.6L7.9,0.5c-0.2-0.2-0.5-0.2-0.7,0S7,1,7.2,1.2L13.9,8l-6.8,6.8C7,15,7,15.3,7.1,15.5c0.1,0.1,0.2,0.1,0.4,0.1
	s0.3,0,0.4-0.1L15,8.3C15.2,8.1,15.2,7.8,15,7.6z"/>
</svg>
