<?xml version="1.0" encoding="utf-8"?>
<!-- Generator: Adobe Illustrator 19.0.1, SVG Export Plug-In . SVG Version: 6.00 Build 0)  -->
<svg version="1.1" id="map_marker_plus" xmlns="http://www.w3.org/2000/svg" xmlns:xlink="http://www.w3.org/1999/xlink" x="0px"
	 y="0px" viewBox="0 0 16 16" enable-background="new 0 0 16 16" xml:space="preserve">
<path d="M14.1,6c0-3.3-2.7-6-6-6s-6,2.7-6,6c0,2.8,1.9,5.1,4.5,5.8L8.1,16l1.6-4.3C12.2,11,14.1,8.7,14.1,6z M8.1,10.9
	c-2.7,0-5-2.2-5-5s2.2-5,5-5c2.7,0,5,2.2,5,5S10.9,10.9,8.1,10.9z"/>
<polygon points="10.8,5.5 8.7,5.5 8.7,3.4 7.6,3.4 7.6,5.5 5.5,5.5 5.5,6.6 7.6,6.6 7.6,8.7 8.7,8.7 8.7,6.6 10.8,6.6 "/>
</svg>
