<?xml version="1.0" encoding="utf-8"?>
<!-- Generator: Adobe Illustrator 19.0.1, SVG Export Plug-In . SVG Version: 6.00 Build 0)  -->
<svg version="1.1" id="Default_Search" xmlns="http://www.w3.org/2000/svg" xmlns:xlink="http://www.w3.org/1999/xlink" x="0px"
	 y="0px" viewBox="0 0 16 16" enable-background="new 0 0 16 16" xml:space="preserve">
<path d="M0.1,14.7c1-1,2.4-2.4,3.4-3.4c0.5,0.5,0.8,0.8,1.3,1.3c-1,1-2.4,2.4-3.4,3.4C0.9,15.6,0.6,15.2,0.1,14.7z"/>
<path d="M9.5,13C5.9,13,3,10.1,3,6.5C3,2.9,5.9,0,9.5,0s6.5,2.9,6.5,6.5C15.9,10.1,13,13,9.5,13z M9.5,1C6.5,1,4,3.5,4,6.5
	S6.5,12,9.5,12c3,0,5.5-2.5,5.5-5.5S12.5,1,9.5,1z"/>
<path d="M13.3,3.9c-0.1,0-0.2-0.1-0.3,0c0,0-0.1,0-0.1,0.1c-0.3,0.2-0.8,0.5-1.3,0.5c-0.1,0-0.3,0-0.4-0.1c-0.5-0.2-1-0.5-1.7-0.5
	c-0.9,0-1.8,0.5-2.1,0.7C7.4,4.6,7.3,4.7,7.3,4.8v3.2c0,0.1,0.1,0.2,0.1,0.2c0,0,0.1,0,0.1,0s0.1,0,0.1,0C8.2,7.9,9,7.5,9.6,7.5
	c0.5,0,0.8,0.2,1.3,0.4L11,8c0.2,0.1,0.4,0.1,0.7,0.1c0.6,0,1.3-0.4,1.5-0.5c0,0,0.1,0,0.1,0c0.1,0,0.1-0.1,0.1-0.2V4.1
	C13.4,4,13.4,3.9,13.3,3.9z M13,7.3c-0.3,0.1-0.8,0.4-1.3,0.4c-0.2,0-0.3,0-0.4-0.1l-0.1-0.1c-0.5-0.2-0.9-0.5-1.6-0.5
	C9,7.1,8.3,7.3,7.7,7.6V4.9c0.5-0.3,1.2-0.6,1.8-0.6c0.6,0,1.1,0.2,1.6,0.5c0.2,0.1,0.4,0.1,0.6,0.1c0.5,0,1-0.2,1.3-0.4V7.3z"/>
<path d="M7.1,3.8c0-0.3-0.2-0.5-0.5-0.5C6.3,3.3,6,3.5,6,3.8C6,4,6.2,4.2,6.3,4.3v5.2c0,0.1,0,0.1,0.1,0.1h0.3c0.1,0,0.1,0,0.1-0.1
	V4.3C7,4.2,7.1,4,7.1,3.8z"/>
</svg>
