<?xml version="1.0" encoding="utf-8"?>
<!-- Generator: Adobe Illustrator 19.1.0, SVG Export Plug-In . SVG Version: 6.00 Build 0)  -->
<svg version="1.1" id="Trashcan" xmlns="http://www.w3.org/2000/svg" xmlns:xlink="http://www.w3.org/1999/xlink" x="0px" y="0px"
	 viewBox="0 0 16 16" style="enable-background:new 0 0 16 16;" xml:space="preserve">
<path d="M11.4,2V1.6c0-0.9-0.3-1.3-1.3-1.6L6,0l0,0C5.5,0.1,5,0.3,4.8,0.7C4.7,1,4.6,1.2,4.6,1.4c0,0.2,0,0.3,0,0.5c0,0,0,0.1,0,0.1
	H0v0.9h1.6l1.2,11.9c0.1,0.6,0.5,1,1.2,1.2c0,0,0,0,0.1,0l0,0l7.9,0l0,0c0.1,0,0.2-0.1,0.3-0.1c0.2-0.1,0.4-0.2,0.6-0.3
	c0.4-0.3,0.4-0.7,0.4-1l1.2-11.7H16V2H11.4z M6.4,0.8c1.1,0,2.1,0,3.2,0c0.6,0,0.8,0.2,0.8,0.6V2H5.7c0-0.1,0-0.1,0-0.2
	c0-0.2,0-0.4,0-0.7c0-0.2,0.2-0.3,0.5-0.3C6.2,0.8,6.3,0.8,6.4,0.8z M11.4,15.2H4.7c-0.1,0-0.1,0-0.2,0c-0.4,0-0.6-0.2-0.6-0.5
	L2.6,2.9h10.7l-1.2,11.6c0,0.1,0,0.2,0,0.3c0,0.2-0.2,0.4-0.5,0.4C11.6,15.1,11.5,15.2,11.4,15.2z"/>
<polygon points="10.2,3.9 9.7,14.1 10.6,14.1 11,3.9 "/>
<polygon points="5.8,3.9 5,3.9 5.4,14.1 6.3,14.1 "/>
<rect x="7.6" y="3.9" width="0.8" height="10.1"/>
</svg>
