<?xml version="1.0" encoding="utf-8"?>
<!-- Generator: Adobe Illustrator 19.1.0, SVG Export Plug-In . SVG Version: 6.00 Build 0)  -->
<svg version="1.1" id="zoom-to-selected" xmlns="http://www.w3.org/2000/svg" xmlns:xlink="http://www.w3.org/1999/xlink" x="0px"
	 y="0px" viewBox="0 0 16 16" style="enable-background:new 0 0 16 16;" xml:space="preserve">
<polygon points="6.8,2.5 6,2.5 6,4.2 4.6,4.2 4.6,4.9 6,4.9 6,6.6 6.8,6.6 6.8,4.9 8.3,4.9 8.3,4.2 6.8,4.2 "/>
<path d="M0,10.5c0.3,0.3,0.6,0.6,0.9,0.9c0.7-0.7,1.6-1.6,2.3-2.3C2.9,8.7,2.7,8.5,2.3,8.1C1.6,8.9,0.7,9.8,0,10.5z"/>
<path d="M11,4.5C11,2,8.9,0,6.4,0C3.9,0,1.9,2,1.9,4.5c0,2.5,2,4.6,4.5,4.6c0.6,0,1.2-0.1,1.8-0.4v0.7h1l0-1H8.8
	C10.1,7.5,11,6.1,11,4.5z M6.4,8.5c-2.1,0-3.8-1.8-3.8-4c0-2.2,1.7-3.9,3.8-3.9c2.2,0,3.9,1.7,3.9,3.9C10.3,6.7,8.5,8.5,6.4,8.5z"/>
<path d="M13.9,10.8c-1.6,1.5-2,2.2-2.2,2.8l-0.2,0.1c-0.1,0.1-0.2,0.2-0.3,0.2c0-0.1,0-0.2-0.1-0.4L11,13.4
	c-0.2-0.4-0.3-0.7-0.4-0.8c-0.1-0.2-0.2-0.3-0.3-0.3c0.2-0.2,0.3-0.2,0.5-0.2c0.2,0,0.4,0.3,0.6,0.7l0.1,0.2
	c0.4-0.7,0.8-1.3,2.4-2.7L13.9,10.8z"/>
<rect x="15" y="8.3" width="1" height="1"/>
<rect x="8.1" y="15" width="1" height="1"/>
<rect x="15" y="15" width="1" height="1"/>
<rect x="8.1" y="10" width="1" height="1"/>
<rect x="15" y="10" width="1" height="1"/>
<rect x="8.1" y="11.7" width="1" height="1"/>
<rect x="15" y="11.7" width="1" height="1"/>
<rect x="8.1" y="13.3" width="1" height="1"/>
<rect x="15" y="13.3" width="1" height="1"/>
<rect x="13.3" y="8.3" width="1" height="1"/>
<rect x="13.3" y="15" width="1" height="1"/>
<rect x="11.6" y="8.3" width="1" height="1"/>
<rect x="11.6" y="15" width="1" height="1"/>
<rect x="9.9" y="8.3" width="1" height="1"/>
<rect x="9.9" y="15" width="1" height="1"/>
</svg>
