<?xml version="1.0" encoding="utf-8"?>
<!-- Generator: Adobe Illustrator 19.1.0, SVG Export Plug-In . SVG Version: 6.00 Build 0)  -->
<svg version="1.1" id="video" xmlns="http://www.w3.org/2000/svg" xmlns:xlink="http://www.w3.org/1999/xlink" x="0px" y="0px"
	 viewBox="0 0 16 16" style="enable-background:new 0 0 16 16;" xml:space="preserve">
<path d="M8,6.7c0.3,0,0.5,0.1,0.7,0.3C8.9,7.2,9,7.5,9,7.7v3.1c0,0.3-0.1,0.5-0.3,0.7c-0.2,0.2-0.4,0.3-0.7,0.3H4.8
	c-0.3,0-0.5-0.1-0.7-0.3c-0.2-0.2-0.3-0.4-0.3-0.7V7.7c0-0.3,0.1-0.5,0.3-0.7c0.2-0.2,0.4-0.3,0.7-0.3H8z"/>
<path d="M11.9,6.7c0.1,0,0.2,0.1,0.2,0.2v4.7c0,0.1-0.1,0.2-0.2,0.2c0,0-0.1,0-0.1,0c-0.1,0-0.1,0-0.2-0.1L9.5,9.7V8.9l2.1-2.2
	C11.7,6.7,11.8,6.7,11.9,6.7C11.9,6.7,11.9,6.7,11.9,6.7z"/>
<path d="M13.8,3.9c0-0.2-0.1-0.4-0.2-0.6l-3.1-3.1C10.3,0.1,10.1,0,9.8,0H2.9C2.5,0,2.1,0.4,2.1,0.9v14.3c0,0.5,0.4,0.9,0.9,0.9h10
	c0.5,0,0.9-0.4,0.9-0.9V3.9z M9.9,0.6c0,0,0.1,0,0.1,0.1l3.1,3.1c0,0,0.1,0.1,0.1,0.1H9.9V0.6z M13.2,15.1c0,0.2-0.1,0.3-0.3,0.3
	h-10c-0.2,0-0.3-0.1-0.3-0.3V0.9c0-0.2,0.1-0.3,0.3-0.3h6.4v3.9h3.9V15.1z"/>
</svg>
