<?xml version="1.0" encoding="utf-8"?>
<!-- Generator: Adobe Illustrator 19.1.0, SVG Export Plug-In . SVG Version: 6.00 Build 0)  -->
<svg version="1.1" id="All_Paths" xmlns="http://www.w3.org/2000/svg" xmlns:xlink="http://www.w3.org/1999/xlink" x="0px" y="0px"
	 viewBox="0 0 16 16" style="enable-background:new 0 0 16 16;" xml:space="preserve">
<rect x="12.1" y="7.4" width="0.6" height="0.6"/>
<rect x="10.8" y="7.4" width="0.6" height="0.6"/>
<rect x="4.4" y="7.4" width="0.6" height="0.6"/>
<rect x="3.1" y="7.4" width="0.6" height="0.6"/>
<rect x="6.7" y="12.8" transform="matrix(0.7456 0.6664 -0.6664 0.7456 10.5256 -1.3174)" width="0.6" height="0.6"/>
<rect x="5.7" y="11.9" transform="matrix(0.7455 0.6665 -0.6665 0.7455 9.7047 -0.8931)" width="0.6" height="0.6"/>
<rect x="4.7" y="11.1" transform="matrix(0.7451 0.667 -0.667 0.7451 8.8902 -0.4666)" width="0.6" height="0.6"/>
<rect x="3.8" y="10.2" transform="matrix(0.7456 0.6664 -0.6664 0.7456 8.0598 -4.560085e-02)" width="0.6" height="0.6"/>
<rect x="2.8" y="9.3" transform="matrix(0.7453 0.6667 -0.6667 0.7453 7.2417 0.3799)" width="0.6" height="0.6"/>
<rect x="1.8" y="8.5" transform="matrix(0.7451 0.667 -0.667 0.7451 6.4219 0.8054)" width="0.6" height="0.6"/>
<rect x="1.5" y="5.8" transform="matrix(0.8822 0.4709 -0.4709 0.8822 3.089 -0.1584)" width="0.6" height="0.6"/>
<rect x="2.1" y="4.6" transform="matrix(0.8824 0.4705 -0.4705 0.8824 2.6196 -0.5806)" width="0.6" height="0.6"/>
<rect x="2.8" y="3.5" transform="matrix(0.8828 0.4697 -0.4697 0.8828 2.149 -1.0013)" width="0.6" height="0.6"/>
<rect x="3.4" y="2.3" transform="matrix(0.8824 0.4705 -0.4705 0.8824 1.6867 -1.4236)" width="0.6" height="0.6"/>
<rect x="9" y="13.1" transform="matrix(0.6953 0.7187 -0.7187 0.6953 12.4875 -2.6413)" width="0.6" height="0.6"/>
<rect x="10" y="12.2" transform="matrix(0.6953 0.7187 -0.7187 0.6953 12.1229 -3.5854)" width="0.6" height="0.6"/>
<rect x="10.9" y="11.3" transform="matrix(0.6953 0.7187 -0.7187 0.6953 11.7583 -4.5295)" width="0.6" height="0.6"/>
<rect x="11.8" y="10.4" transform="matrix(0.6953 0.7187 -0.7187 0.6953 11.3937 -5.4736)" width="0.6" height="0.6"/>
<rect x="12.8" y="9.5" transform="matrix(0.6953 0.7187 -0.7187 0.6953 11.0291 -6.4177)" width="0.6" height="0.6"/>
<rect x="13.7" y="8.6" transform="matrix(0.6955 0.7185 -0.7185 0.6955 10.659 -7.3607)" width="0.6" height="0.6"/>
<rect x="6.4" y="4.4" transform="matrix(0.4805 0.877 -0.877 0.4805 7.6131 -3.4135)" width="0.6" height="0.6"/>
<rect x="5.7" y="3.3" transform="matrix(0.4807 0.8769 -0.8769 0.4807 6.2906 -3.4573)" width="0.6" height="0.6"/>
<rect x="5.1" y="2.1" transform="matrix(0.4805 0.877 -0.877 0.4805 4.9715 -3.501)" width="0.6" height="0.6"/>
<path d="M2.4,7.4H2C1.9,7,1.5,6.6,1,6.6c-0.6,0-1,0.5-1,1c0,0.6,0.5,1,1,1c0.4,0,0.7-0.2,0.9-0.6h0.5V7.4z"/>
<circle cx="8.1" cy="14.4" r="1"/>
<circle cx="4.5" cy="1" r="1"/>
<path d="M14.9,6.6c-0.5,0-0.9,0.4-1,0.8h-0.5v0.6H14c0.2,0.3,0.5,0.6,0.9,0.6c0.6,0,1-0.5,1-1C16,7.1,15.5,6.6,14.9,6.6z"/>
<path d="M10.2,7.4H9.6C9.5,6.6,8.8,5.9,7.9,5.9c-0.1,0-0.1,0-0.2,0L7.4,5.4L6.9,5.7l0.2,0.4C6.6,6.4,6.3,6.9,6.2,7.4H5.7v0.6h0.6
	c0.2,0.7,0.9,1.3,1.6,1.3s1.4-0.5,1.6-1.3h0.6V7.4z"/>
</svg>
