<?xml version="1.0" encoding="utf-8"?>
<!-- Generator: Adobe Illustrator 18.1.1, SVG Export Plug-In . SVG Version: 6.00 Build 0)  -->
<svg version="1.1" id="Data_Pool" xmlns="http://www.w3.org/2000/svg" xmlns:xlink="http://www.w3.org/1999/xlink" x="0px" y="0px"
	 viewBox="0 0 16 16" enable-background="new 0 0 16 16" xml:space="preserve">
<polyline fill="none" stroke="#000000" stroke-width="0.6266" stroke-miterlimit="10" points="12.3,2.4 8,4.6 3.8,2.4 "/>
<path fill="none" stroke="#000000" stroke-width="0.6262" stroke-miterlimit="10" d="M8.2,1.7"/>
<polygon fill="none" stroke="#000000" stroke-width="0.6415" stroke-miterlimit="10" points="3.8,2.5 8,0.5 12.3,2.5 12.3,7.2 8,9.4 3.8,7.2 "/>
<line fill="none" stroke="#000000" stroke-width="0.6411" stroke-miterlimit="10" x1="8" y1="4.8" x2="8" y2="9.4"/>
<path fill="none" stroke="#000000" stroke-width="0.6679" stroke-miterlimit="10" d="M1.6,11c0.9-0.4,1.9-0.4,2.8-0.1 c0.2,0.1,0.4,0.2,0.7,0.3c0.6,0.2,1.2,0.3,1.8,0.2c0,0,0,0,0.1,0c0.1,0,0.2,0,0.3-0.1c0.1,0,0.2-0.1,0.3-0.1c0.1,0,0.2-0.1,0.4-0.1 c0.9-0.4,1.9-0.4,2.8-0.1c0.2,0.1,0.4,0.2,0.7,0.3c0.6,0.2,1.2,0.3,1.8,0.2c0,0,0,0,0.1,0c0.1,0,0.2,0,0.3-0.1 c0.1,0,0.2-0.1,0.3-0.1c0.1,0,0.2-0.1,0.4-0.1"/>
<path fill="none" stroke="#000000" stroke-width="0.6679" stroke-miterlimit="10" d="M1.6,13.1c0.9-0.4,1.9-0.4,2.8-0.1 c0.2,0.1,0.4,0.2,0.7,0.3c0.6,0.2,1.2,0.3,1.8,0.2c0,0,0,0,0.1,0c0.1,0,0.2,0,0.3-0.1c0.1,0,0.2-0.1,0.3-0.1c0.1,0,0.2-0.1,0.4-0.1 c0.9-0.4,1.9-0.4,2.8-0.1c0.2,0.1,0.4,0.2,0.7,0.3c0.6,0.2,1.2,0.3,1.8,0.2c0,0,0,0,0.1,0c0.1,0,0.2,0,0.3-0.1 c0.1,0,0.2-0.1,0.3-0.1c0.1,0,0.2-0.1,0.4-0.1"/>
<path fill="none" stroke="#000000" stroke-width="0.6679" stroke-miterlimit="10" d="M1.6,15.3c0.9-0.4,1.9-0.4,2.8-0.1 c0.2,0.1,0.4,0.2,0.7,0.3c0.6,0.2,1.2,0.3,1.8,0.2c0,0,0,0,0.1,0c0.1,0,0.2,0,0.3-0.1c0.1,0,0.2-0.1,0.3-0.1c0.1,0,0.2-0.1,0.4-0.1 c0.9-0.4,1.9-0.4,2.8-0.1c0.2,0.1,0.4,0.2,0.7,0.3c0.6,0.2,1.2,0.3,1.8,0.2c0,0,0,0,0.1,0c0.1,0,0.2,0,0.3-0.1 c0.1,0,0.2-0.1,0.3-0.1c0.1,0,0.2-0.1,0.4-0.1"/>
</svg>
