<?xml version="1.0" encoding="utf-8"?>
<!-- Generator: Adobe Illustrator 18.1.1, SVG Export Plug-In . SVG Version: 6.00 Build 0)  -->
<svg version="1.1" id="shared_workspace" xmlns="http://www.w3.org/2000/svg" xmlns:xlink="http://www.w3.org/1999/xlink" x="0px"
	 y="0px" viewBox="0 0 16 16" enable-background="new 0 0 16 16" xml:space="preserve">
<path d="M14.2,7.4C14.8,7,15.4,6.7,16,6.4c-0.4-0.2-0.7-0.3-1-0.5c-2.2-1.1-4.5-2.2-6.7-3.4c-0.2-0.1-0.3-0.1-0.5,0
	C5.3,3.8,2.8,5,0.3,6.3C0.2,6.3,0.1,6.4,0,6.4C0.6,6.8,1.2,7,1.8,7.4C1.2,7.7,0.6,8,0,8.3c0.6,0.3,1.2,0.6,1.8,0.9
	C1.2,9.5,0.6,9.8,0,10.1c0.4,0.2,0.7,0.3,1,0.5c1,0.5,2,1,3,1.5c0.8,1.5,2.3,2.5,4,2.5c1.8,0,3.3-1,4.1-2.5c1.2-0.6,2.5-1.2,3.7-1.9
	c0.1,0,0.1-0.1,0.2-0.1c-0.6-0.3-1.2-0.6-1.8-0.9c0.6-0.3,1.2-0.6,1.8-0.9C15.4,8,14.8,7.7,14.2,7.4z M1.6,6.5
	c-0.1,0-0.1-0.1-0.2-0.1C1.6,6.3,1.8,6.2,2,6.1c1.9-1,3.9-1.9,5.8-2.9c0.1-0.1,0.3-0.1,0.4,0c2.1,1,4.2,2.1,6.3,3.2
	c0,0,0.1,0,0.1,0.1c-0.1,0-0.1,0.1-0.2,0.1C13.6,7,12.8,7.4,12,7.7c-0.8-1.4-2.3-2.4-4.1-2.4c-1.8,0-3.3,1-4.1,2.5
	c0,0,0-0.1,0.1-0.1C3.1,7.3,2.3,6.9,1.6,6.5z M1.3,8.3c0.4-0.2,0.7-0.4,1.1-0.5c0.1,0,0.2,0,0.3,0.1C3.1,8,3.4,8.1,3.7,8.3
	c0,0,0,0,0,0C3.5,8.8,3.4,9.3,3.4,9.9c0,0,0,0,0,0c0-0.2,0-0.4,0.1-0.6C3.2,9.2,3.1,9.1,2.9,9C2.4,8.8,1.9,8.5,1.3,8.3z M1.5,10.2
	c0,0-0.1,0-0.1-0.1c0.4-0.2,0.7-0.4,1-0.5c0.1,0,0.3,0,0.4,0C3,9.7,3.2,9.9,3.4,10c0,0.4,0.1,0.9,0.2,1.2
	C2.9,10.9,2.2,10.5,1.5,10.2z M7.9,14c-2.1,0-3.9-1.8-3.9-4.1c0-2.2,1.7-4,3.9-4c2.2,0,4,1.8,4,4C12,12.1,10.1,14,7.9,14z
	 M14.6,10.1c-0.1,0.1-0.2,0.1-0.2,0.1c-0.7,0.3-1.3,0.7-2,1c0.1-0.4,0.2-0.8,0.2-1.3c0.2-0.1,0.4-0.2,0.6-0.3c0.2-0.1,0.3-0.1,0.5,0
	C14,9.8,14.3,9.9,14.6,10.1z M12.6,9.3c0-0.4-0.1-0.7-0.3-1c0.3-0.2,0.6-0.3,1-0.5c0.2-0.1,0.3-0.1,0.5,0C14,8,14.3,8.1,14.6,8.3
	C13.9,8.6,13.2,9,12.6,9.3z"/>
<path d="M11.1,9.3c0-0.8-0.6-1.4-1.4-1.4c-0.1,0-0.3,0-0.4,0.1C9,7.5,8.5,7.2,7.9,7.2c-0.5,0-1,0.3-1.3,0.7c-0.1,0-0.2,0-0.3,0
	C5.6,7.9,5,8.5,5,9.3c0,0.5,0.3,0.9,0.7,1.2c-0.2,0.4-0.3,0.8-0.3,1.2c0,0.6,0.8,0.6,1,0.6c0.2,0,0.4,0,0.7,0c0.6,0,1.3,0,1.8,0
	c0.2,0,0.5,0,0.6,0c0,0,0,0,0,0c0.3,0,1,0,1-0.6c0-0.4-0.1-0.8-0.3-1.1C10.8,10.4,11.1,9.9,11.1,9.3z M7.9,7.7C8.5,7.7,9,8.2,9,8.8
	S8.5,9.9,7.9,9.9S6.9,9.4,6.9,8.8S7.4,7.7,7.9,7.7z M5.4,9.3c0-0.5,0.4-1,1-1c0,0,0,0,0,0c0,0.1-0.1,0.3-0.1,0.5
	c0,0.3,0.1,0.5,0.2,0.7c-0.3,0.2-0.5,0.4-0.6,0.6C5.6,10,5.4,9.7,5.4,9.3z M9.6,11.8c-0.2,0-0.4,0-0.6,0c-0.3,0-0.6,0-1,0
	c-0.3,0-0.6,0-0.9,0c-0.2,0-0.5,0-0.6,0c-0.5,0-0.5-0.1-0.5-0.1c0-0.7,0.3-1.3,0.9-1.7c0.2,0.2,0.5,0.3,0.8,0.3c0,0,0.1,0,0.1,0
	c0.2,0,0.3,0,0.5,0c0,0,0.1,0,0.1,0c0.3-0.1,0.6-0.2,0.8-0.3c0.6,0.4,0.9,1,0.9,1.7C10,11.7,10,11.8,9.6,11.8z M10,10.2
	C9.8,9.9,9.6,9.7,9.3,9.5c0.1-0.2,0.2-0.5,0.2-0.7c0-0.1,0-0.3-0.1-0.4c0.1,0,0.1,0,0.2,0c0.5,0,1,0.4,1,1
	C10.6,9.7,10.4,10.1,10,10.2z"/>
</svg>
