<?xml version="1.0" encoding="utf-8"?>
<!-- Generator: Adobe Illustrator 19.0.1, SVG Export Plug-In . SVG Version: 6.00 Build 0)  -->
<svg version="1.1" id="Filter" xmlns="http://www.w3.org/2000/svg" xmlns:xlink="http://www.w3.org/1999/xlink" x="0px" y="0px"
	 viewBox="0 0 16 16" enable-background="new 0 0 16 16" xml:space="preserve">
<path fill-rule="evenodd" clip-rule="evenodd" d="M16,1.4H3.8C3.7,0.6,3.2,0,2.8,0S1.8,0.6,1.7,1.4H0v1.5h1.7
	c0.2,0.8,0.6,1.4,1.1,1.4s0.9-0.6,1.1-1.4H16V1.4z"/>
<path fill-rule="evenodd" clip-rule="evenodd" d="M16,13.1H6.8c-0.2-0.8-0.6-1.4-1.1-1.4s-0.9,0.6-1.1,1.4H0v1.5h4.7
	C4.8,15.4,5.3,16,5.8,16s0.9-0.6,1.1-1.4H16V13.1z"/>
<path fill-rule="evenodd" clip-rule="evenodd" d="M0,8.9h11.2c0.2,0.8,0.6,1.4,1.1,1.4s0.9-0.6,1.1-1.4H16V7.4h-2.7
	C13.2,6.6,12.7,6,12.3,6s-0.9,0.6-1.1,1.4H0L0,8.9z"/>
</svg>
