<?xml version="1.0" encoding="utf-8"?>
<!-- Generator: Adobe Illustrator 19.1.0, SVG Export Plug-In . SVG Version: 6.00 Build 0)  -->
<svg version="1.1" id="Shortest_Path" xmlns="http://www.w3.org/2000/svg" xmlns:xlink="http://www.w3.org/1999/xlink" x="0px"
	 y="0px" viewBox="0 0 16 16" style="enable-background:new 0 0 16 16;" xml:space="preserve">
<rect x="13.3" y="9.1" width="1" height="1"/>
<rect x="13.3" y="7.4" width="1" height="1"/>
<rect x="13.3" y="5.6" width="1" height="1"/>
<path d="M13.6,10.7c-1.2,0-2.2,0.9-2.3,2H2.5c0-0.1-0.1-0.3-0.2-0.4l9.5-8.2c0.4,0.6,1.1,0.9,1.9,0.9c1.3,0,2.4-1.1,2.4-2.4
	s-1.1-2.4-2.4-2.4s-2.4,1.1-2.4,2.4c0,0.3,0.1,0.6,0.2,0.9L1.8,12c-0.2-0.1-0.3-0.1-0.5-0.1c-0.7,0-1.3,0.6-1.3,1.3
	c0,0.7,0.6,1.3,1.3,1.3c0.6,0,1.1-0.4,1.2-0.9h8.8c0.2,1.1,1.1,2,2.3,2c1.3,0,2.4-1.1,2.4-2.4C16,11.8,14.9,10.7,13.6,10.7z"/>
</svg>
