<?xml version="1.0" encoding="utf-8"?>
<!-- Generator: Adobe Illustrator 18.1.0, SVG Export Plug-In . SVG Version: 6.00 Build 0)  -->
<!DOCTYPE svg PUBLIC "-//W3C//DTD SVG 1.1//EN" "http://www.w3.org/Graphics/SVG/1.1/DTD/svg11.dtd">
<svg version="1.1" id="leftarrow2" xmlns="http://www.w3.org/2000/svg" xmlns:xlink="http://www.w3.org/1999/xlink" x="0px" y="0px"
	 viewBox="0 0 16 16" enable-background="new 0 0 16 16" xml:space="preserve">
<path d="M7,7.6l7.1-7.1c0.2-0.2,0.5-0.2,0.7,0s0.2,0.5,0,0.7L8.1,8l6.8,6.8c0.2,0.2,0.2,0.5,0,0.7c-0.1,0.1-0.2,0.1-0.4,0.1
	s-0.3,0-0.4-0.1L7,8.3C6.8,8.1,6.8,7.8,7,7.6z"/>
<path d="M0.8,7.6l7.1-7.1c0.2-0.2,0.5-0.2,0.7,0s0.2,0.5,0,0.7L1.9,8l6.8,6.8c0.2,0.2,0.2,0.5,0,0.7c-0.1,0.1-0.2,0.1-0.4,0.1
	s-0.3,0-0.4-0.1L0.8,8.3C0.6,8.1,0.6,7.8,0.8,7.6z"/>
</svg>
