<?xml version="1.0" encoding="utf-8"?>
<!-- Generator: Adobe Illustrator 18.1.1, SVG Export Plug-In . SVG Version: 6.00 Build 0)  -->
<svg version="1.1" id="Relationship_svg" xmlns="http://www.w3.org/2000/svg" xmlns:xlink="http://www.w3.org/1999/xlink" x="0px"
	 y="0px" viewBox="0 0 16 16" enable-background="new 0 0 16 16" xml:space="preserve">
<path d="M2.4,14.9L1,13.5c-0.5-0.5-0.8-1.2-0.8-1.9c0-0.7,0.3-1.4,0.8-1.9l2-2c0.5-0.5,1.2-0.8,1.9-0.8c0.8,0,1.5,0.3,2,0.8l0.8-0.8 c-0.5-0.5-0.8-1.2-0.8-2c0-0.7,0.3-1.4,0.8-1.9l2-2c0.5-0.5,1.2-0.8,1.9-0.8c0.7,0,1.4,0.3,1.9,0.8l1.4,1.4c0.5,0.5,0.8,1.2,0.8,1.9 c0,0.7-0.3,1.4-0.8,1.9l-2,2C12.4,8.7,11.7,9,11,9c-0.8,0-1.5-0.3-2-0.8L8.2,9C8.7,9.5,9,10.2,9,11c0,0.7-0.3,1.4-0.8,1.9l-2,2 c-0.5,0.5-1.2,0.8-1.9,0.8C3.6,15.7,2.9,15.4,2.4,14.9z M11.8,7.8l2.7-2.7c0.2-0.2,0.4-0.6,0.4-0.9c0-0.3-0.1-0.7-0.4-0.9l-1.9-1.9 C12.4,1.1,12,1,11.7,1c-0.3,0-0.7,0.1-0.9,0.4L8.1,4.1C7.8,4.4,7.7,4.7,7.7,5c0,0.4,0.1,0.7,0.4,0.9C8.6,5.5,8.9,5,9.6,5 c0.7,0,1.3,0.6,1.3,1.3c0,0.7-0.5,1-0.9,1.5c0.3,0.3,0.6,0.4,1,0.4C11.2,8.2,11.5,8.1,11.8,7.8z M5.1,14.5l2.7-2.7 c0.2-0.2,0.4-0.6,0.4-0.9c0-0.4-0.1-0.7-0.4-0.9c-0.4,0.4-0.8,0.9-1.5,0.9C5.6,10.9,5,10.3,5,9.6c0-0.7,0.5-1,0.9-1.5 C5.7,7.9,5.4,7.7,5,7.7c-0.3,0-0.7,0.1-0.9,0.4l-2.7,2.7C1.1,11,1,11.3,1,11.7s0.1,0.7,0.3,0.9l1.9,1.9c0.2,0.2,0.6,0.4,0.9,0.4 C4.5,14.9,4.8,14.7,5.1,14.5z"/>
</svg>
