<?xml version="1.0" encoding="utf-8"?>
<!-- Generator: Adobe Illustrator 19.1.0, SVG Export Plug-In . SVG Version: 6.00 Build 0)  -->
<svg version="1.1" id="Saveas" xmlns="http://www.w3.org/2000/svg" xmlns:xlink="http://www.w3.org/1999/xlink" x="0px" y="0px"
	 viewBox="0 0 16 16" enable-background="new 0 0 16 16" xml:space="preserve">
<path id="path2992_1_" d="M9.3,11.2c0.4,0.4,0.7,0.7,1.1,1.1l2.8-2.8l-1.1-1.1L9.3,11.2z"/>
<path id="path2994_1_" d="M8.5,13.1c0.5-0.1,1-0.3,1.5-0.4c-0.4-0.4-0.8-0.7-1.1-1.1C8.8,12,8.7,12.5,8.5,13.1z"/>
<path d="M14.5,0H1.5C0.7,0,0,0.7,0,1.5v13.1C0,15.3,0.7,16,1.5,16h9.3h3.8c0.8,0,1.5-0.7,1.5-1.5V1.5C16,0.7,15.4,0,14.5,0z
	 M9.1,0.8h4.1v3H9.1V0.8z M2.6,8.9v6.3H1.5c-0.4,0-0.7-0.3-0.7-0.7V1.5c0-0.4,0.3-0.7,0.7-0.7h6.8V4c0,0.4,0.3,0.7,0.6,0.7h4.5
	C13.7,4.7,14,4.4,14,4V0.8h0.5c0.4,0,0.7,0.3,0.7,0.7V8c-0.9-1.5-2.6-2.5-4.4-2.5c-1.9,0-3.6,1.1-4.5,2.7H3.3
	C2.9,8.2,2.6,8.5,2.6,8.9z M3.5,15.2V9h2.4c-0.2,0.5-0.3,1.1-0.3,1.7c0,1.9,1,3.5,2.5,4.4H3.5z M6.5,10.8c0-0.6,0.1-1.2,0.4-1.7
	c0.1-0.3,0.3-0.6,0.5-0.8c0.8-1,2-1.7,3.3-1.7c2.3,0,4.2,1.9,4.2,4.2c0,1.3-0.6,2.5-1.6,3.3c-0.3,0.2-0.5,0.4-0.8,0.5
	C12,14.9,11.4,15,10.8,15C8.4,15,6.5,13.1,6.5,10.8z M15.2,14.5c0,0.4-0.3,0.7-0.7,0.7h-1c0.7-0.4,1.3-1,1.7-1.7V14.5z"/>
</svg>
