<?xml version="1.0" encoding="utf-8"?>
<!-- Generator: Adobe Illustrator 19.1.0, SVG Export Plug-In . SVG Version: 6.00 Build 0)  -->
<svg version="1.1" id="table" xmlns="http://www.w3.org/2000/svg" xmlns:xlink="http://www.w3.org/1999/xlink" x="0px" y="0px"
	 viewBox="0 0 16 16" enable-background="new 0 0 16 16" xml:space="preserve">
<path d="M0,13.9c0-4.6,0-7,0-11.6C0,2,0,2,0.3,2C2.8,2,5.4,2,8,2c2.6,0,5.2,0,7.7,0C15.9,2,16,2.1,16,2.2c0,4.6,0,7.1,0,11.6L0,13.9
	z M15.6,9.3c-1.6,0-3.2,0-4.8,0c0,0.6,0,1.3,0,1.9c1.6,0,3.2,0,4.8,0C15.6,10.6,15.6,9.9,15.6,9.3z M5.6,11.2c1.6,0,3.2,0,4.8,0
	c0-0.6,0-1.3,0-1.9c-1.6,0-3.2,0-4.8,0C5.6,9.9,5.6,10.5,5.6,11.2z M0.4,11.2c1.6,0,3.2,0,4.8,0c0-0.6,0-1.3,0-1.9
	c-1.6,0-3.2,0-4.8,0C0.4,9.9,0.4,10.5,0.4,11.2z M10.8,6.6c1.6,0,3.2,0,4.8,0c0-0.6,0-1.3,0-1.9c-1.6,0-3.2,0-4.8,0
	C10.8,5.3,10.8,6,10.8,6.6z M5.6,4.7c0,0.6,0,1.3,0,1.9c1.6,0,3.2,0,4.8,0c0-0.6,0-1.3,0-1.9C8.8,4.7,7.2,4.7,5.6,4.7z M0.4,6.6
	c1.6,0,3.2,0,4.8,0c0-0.6,0-1.3,0-1.9c-1.6,0-3.2,0-4.8,0C0.4,5.3,0.4,6,0.4,6.6z M10.8,8.9c1.6,0,3.2,0,4.8,0c0-0.6,0-1.2,0-1.9
	c-1.6,0-3.2,0-4.8,0C10.8,7.6,10.8,8.2,10.8,8.9z M10.4,8.9c0-0.6,0-1.2,0-1.9C8.8,7,7.2,7,5.6,7c0,0.6,0,1.2,0,1.9
	C7.2,8.9,8.8,8.9,10.4,8.9z M0.4,8.9c1.6,0,3.2,0,4.8,0c0-0.6,0-1.2,0-1.9C3.6,7,2,7,0.4,7C0.4,7.6,0.4,8.2,0.4,8.9z M5.2,11.6
	c-1.6,0-3.2,0-4.8,0c0,0.6,0,1.2,0,1.9c1.6,0,3.2,0,4.8,0C5.2,12.8,5.2,12.2,5.2,11.6z M5.6,13.5c1.6,0,3.2,0,4.8,0
	c0-0.6,0-1.2,0-1.9c-1.6,0-3.2,0-4.8,0C5.6,12.2,5.6,12.8,5.6,13.5z M10.8,11.6c0,0.6,0,1.2,0,1.9c1.6,0,3.2,0,4.8,0
	c0-0.6,0-1.2,0-1.9C14,11.6,12.4,11.6,10.8,11.6z"/>
</svg>
