<?xml version="1.0" encoding="utf-8"?>
<!-- Generator: Adobe Illustrator 19.0.0, SVG Export Plug-In . SVG Version: 6.00 Build 0)  -->
<svg version="1.1" id="expand_window_solid" xmlns="http://www.w3.org/2000/svg" xmlns:xlink="http://www.w3.org/1999/xlink"
	 x="0px" y="0px" viewBox="0 0 16 16" enable-background="new 0 0 16 16" xml:space="preserve">
<path d="M14.3,5.7L16,0.3c0-0.1,0-0.2,0-0.3S15.8,0,15.7,0l-5.4,1.6c-0.3,0.1-0.3,0.3-0.1,0.5l0.7,0.7L8.5,5.3c-0.3,0.3-0.3,0.7,0,1
	l1.2,1.2c0.3,0.3,0.7,0.3,1,0l2.5-2.5l0.7,0.7C14.1,6,14.3,5.9,14.3,5.7z M13.9,4.4l-0.7-0.7l-3,3L9.3,5.8l3-3l-0.7-0.7l0,0l0.1,0.1
	l2.9-0.9L13.9,4.4L13.9,4.4L13.9,4.4z"/>
<path d="M1.7,10.3L0,15.7c0,0.1,0,0.2,0,0.3C0.1,16,0.2,16,0.3,16l5.4-1.6c0.3-0.1,0.3-0.3,0.1-0.5l-0.7-0.7l2.5-2.5
	c0.3-0.3,0.3-0.7,0-1L6.3,8.5c-0.3-0.3-0.7-0.3-1,0l-2.5,2.5l-0.7-0.7C1.9,10,1.7,10.1,1.7,10.3z M2.1,11.6l0.7,0.7l3-3l0.9,0.9
	l-3,3l0.7,0.7l0,0l-0.1-0.1l-2.9,0.9L2.1,11.6L2.1,11.6L2.1,11.6z"/>
</svg>
