<?xml version="1.0" encoding="utf-8"?>
<!-- Generator: Adobe Illustrator 19.0.0, SVG Export Plug-In . SVG Version: 6.00 Build 0)  -->
<svg version="1.1" id="Download_csv" xmlns="http://www.w3.org/2000/svg" xmlns:xlink="http://www.w3.org/1999/xlink" x="0px"
	 y="0px" viewBox="0 0 16 16" enable-background="new 0 0 16 16" xml:space="preserve">
<path d="M4,8.2C4,8,4,7.8,4.1,7.5C4.1,7.3,4.3,7.2,4.4,7c0.1-0.2,0.3-0.3,0.5-0.4s0.4-0.1,0.7-0.1c0.3,0,0.6,0.1,0.8,0.2
	C6.6,6.8,6.8,7,6.9,7.2L6.4,7.6c0-0.1-0.1-0.2-0.1-0.2C6.1,7.3,6.1,7.2,6,7.2S5.9,7.1,5.8,7.1c-0.1,0-0.1,0-0.2,0
	c-0.2,0-0.3,0-0.4,0.1C5,7.2,4.9,7.3,4.9,7.4C4.8,7.5,4.7,7.6,4.7,7.8c0,0.1-0.1,0.3-0.1,0.4c0,0.1,0,0.3,0.1,0.4
	c0,0.1,0.1,0.3,0.2,0.4s0.2,0.2,0.3,0.3c0.1,0.1,0.2,0.1,0.4,0.1c0.1,0,0.1,0,0.2,0c0.1,0,0.2,0,0.2-0.1c0.1,0,0.1-0.1,0.2-0.2
	s0.1-0.1,0.1-0.2l0.5,0.3C6.9,9.3,6.8,9.4,6.7,9.5C6.6,9.6,6.5,9.6,6.4,9.7C6.2,9.8,6.1,9.8,6,9.9c-0.1,0-0.3,0.1-0.4,0.1
	c-0.2,0-0.5-0.1-0.6-0.2C4.7,9.7,4.6,9.5,4.4,9.4C4.3,9.2,4.2,9,4.1,8.8C4,8.6,4,8.4,4,8.2z"/>
<path d="M9.4,7.4c0,0-0.1-0.1-0.1-0.1C9.2,7.3,9.1,7.2,9,7.2C9,7.1,8.9,7.1,8.8,7.1c-0.1,0-0.2,0-0.3,0c-0.2,0-0.3,0-0.4,0.1
	C8,7.2,7.9,7.3,7.9,7.4c0,0.1,0,0.1,0.1,0.2c0,0,0.1,0.1,0.1,0.1c0.1,0,0.1,0.1,0.2,0.1c0.1,0,0.2,0.1,0.3,0.1C8.9,8,9,8,9.2,8.1
	c0.1,0.1,0.3,0.1,0.3,0.2c0.1,0.1,0.2,0.2,0.2,0.3c0.1,0.1,0.1,0.2,0.1,0.4c0,0.2,0,0.3-0.1,0.5C9.6,9.5,9.5,9.6,9.4,9.7
	C9.3,9.8,9.2,9.8,9,9.9c-0.2,0-0.3,0.1-0.5,0.1c-0.3,0-0.5,0-0.8-0.1C7.5,9.7,7.3,9.6,7.1,9.5l0.3-0.6c0,0,0.1,0.1,0.2,0.1
	c0.1,0,0.2,0.1,0.3,0.1c0.1,0,0.2,0.1,0.3,0.1c0.1,0,0.3,0,0.4,0c0.4,0,0.5-0.1,0.5-0.3c0-0.1,0-0.1-0.1-0.2c0-0.1-0.1-0.1-0.2-0.1
	c-0.1,0-0.2-0.1-0.3-0.1c-0.1,0-0.2-0.1-0.4-0.1c-0.2,0-0.3-0.1-0.4-0.1C7.7,8.3,7.6,8.2,7.5,8.1C7.4,8.1,7.4,8,7.3,7.9
	c0-0.1-0.1-0.2-0.1-0.3c0-0.2,0-0.3,0.1-0.5c0.1-0.1,0.2-0.2,0.3-0.3C7.7,6.7,7.9,6.6,8,6.5c0.1,0,0.3-0.1,0.5-0.1
	c0.2,0,0.5,0,0.7,0.1c0.2,0.1,0.4,0.2,0.5,0.3L9.4,7.4z"/>
<path d="M10.6,6.5l0.9,2.6l0.9-2.6h0.7l-1.3,3.4h-0.6L9.9,6.5H10.6z"/>
<circle cx="3.2" cy="9.6" r="0.4"/>
<g>
	<path d="M10,13.2c-0.1-0.1-0.2-0.1-0.3,0l-1.2,1.1c-0.1,0.1-0.1,0-0.1-0.1v-0.4c0-0.1,0-0.3,0-0.4v-0.3c0-0.1,0-0.3,0-0.4v-1.1
		c0-0.1-0.1-0.2-0.2-0.2H7.7c-0.1,0-0.2,0.1-0.2,0.2v1.1c0,0.1,0,0.3,0,0.4v0.3c0,0.1,0,0.3,0,0.4v0.4c0,0.1-0.1,0.1-0.1,0.1l-1.1-1
		c-0.1-0.1-0.2-0.1-0.3,0l-0.2,0.2c-0.1,0.1-0.1,0.2,0,0.3l1.5,1.5c0.1,0.1,0.2,0.2,0.3,0.3l0.2,0.2c0.1,0.1,0.2,0.1,0.3,0l0.2-0.2
		c0.1-0.1,0.2-0.2,0.3-0.3l1.6-1.6c0.1-0.1,0.1-0.2,0-0.3L10,13.2z"/>
</g>
<path d="M14.7,0H5.5C5.2,0,4.9,0.1,4.7,0.3L0.9,4.1C0.7,4.3,0.6,4.6,0.6,4.9V14h0.9V5h4.6V0.9h8.4V14h0.9V0.7
	C15.4,0.3,15.1,0,14.7,0z M5.2,4.2H2.1l3.1-3.1V4.2z"/>
</svg>
