<?xml version="1.0" encoding="utf-8"?>
<!-- Generator: Adobe Illustrator 19.0.1, SVG Export Plug-In . SVG Version: 6.00 Build 0)  -->
<svg version="1.1" id="nineclrdots" xmlns="http://www.w3.org/2000/svg" xmlns:xlink="http://www.w3.org/1999/xlink" x="0px"
	 y="0px" viewBox="0 0 16 16" enable-background="new 0 0 16 16" xml:space="preserve">
<path d="M2.4,4.8C1.1,4.8,0,3.8,0,2.4C0,1.1,1.1,0,2.4,0c1.3,0,2.4,1.1,2.4,2.4C4.7,3.8,3.7,4.8,2.4,4.8z M2.4,0.9
	c-0.8,0-1.5,0.7-1.5,1.6C0.9,3.3,1.5,4,2.4,4c0.8,0,1.5-0.7,1.5-1.6C3.9,1.6,3.2,0.9,2.4,0.9z"/>
<path d="M8,4.8c-1.3,0-2.4-1.1-2.4-2.4C5.6,1.1,6.7,0,8,0s2.4,1.1,2.4,2.4C10.4,3.8,9.3,4.8,8,4.8z M8,0.9c-0.8,0-1.5,0.7-1.5,1.6
	C6.5,3.3,7.2,4,8,4s1.5-0.7,1.5-1.6C9.5,1.6,8.8,0.9,8,0.9z"/>
<path d="M13.6,4.8c-1.3,0-2.4-1.1-2.4-2.4c0-1.3,1.1-2.4,2.4-2.4S16,1.1,16,2.4C16,3.8,14.9,4.8,13.6,4.8z M13.6,0.9
	c-0.8,0-1.5,0.7-1.5,1.6c0,0.9,0.7,1.6,1.5,1.6s1.5-0.7,1.5-1.6C15.2,1.6,14.5,0.9,13.6,0.9z"/>
<path d="M2.4,10.4C1.1,10.4,0,9.3,0,8c0-1.3,1.1-2.4,2.4-2.4c1.3,0,2.4,1.1,2.4,2.4C4.7,9.3,3.7,10.4,2.4,10.4z M2.4,6.4
	C1.5,6.4,0.9,7.1,0.9,8c0,0.9,0.7,1.6,1.5,1.6c0.8,0,1.5-0.7,1.5-1.6C3.9,7.1,3.2,6.4,2.4,6.4z"/>
<path d="M8,10.4c-1.3,0-2.4-1.1-2.4-2.4c0-1.3,1.1-2.4,2.4-2.4s2.4,1.1,2.4,2.4C10.4,9.3,9.3,10.4,8,10.4z M8,6.4
	C7.2,6.4,6.5,7.1,6.5,8c0,0.9,0.7,1.6,1.5,1.6S9.5,8.8,9.5,8C9.5,7.1,8.8,6.4,8,6.4z"/>
<path d="M13.6,10.4c-1.3,0-2.4-1.1-2.4-2.4c0-1.3,1.1-2.4,2.4-2.4S16,6.6,16,8C16,9.3,14.9,10.4,13.6,10.4z M13.6,6.4
	c-0.8,0-1.5,0.7-1.5,1.6c0,0.9,0.7,1.6,1.5,1.6s1.5-0.7,1.5-1.6C15.2,7.1,14.5,6.4,13.6,6.4z"/>
<path d="M2.4,15.9c-1.3,0-2.4-1.1-2.4-2.4s1.1-2.4,2.4-2.4c1.3,0,2.4,1.1,2.4,2.4S3.7,15.9,2.4,15.9z M2.4,11.9
	c-0.8,0-1.5,0.7-1.5,1.6s0.7,1.6,1.5,1.6c0.8,0,1.5-0.7,1.5-1.6S3.2,11.9,2.4,11.9z"/>
<path d="M8,15.9c-1.3,0-2.4-1.1-2.4-2.4s1.1-2.4,2.4-2.4s2.4,1.1,2.4,2.4S9.3,15.9,8,15.9z M8,11.9c-0.8,0-1.5,0.7-1.5,1.6
	s0.7,1.6,1.5,1.6s1.5-0.7,1.5-1.6S8.8,11.9,8,11.9z"/>
<path d="M13.6,15.9c-1.3,0-2.4-1.1-2.4-2.4s1.1-2.4,2.4-2.4s2.4,1.1,2.4,2.4S14.9,15.9,13.6,15.9z M13.6,11.9
	c-0.8,0-1.5,0.7-1.5,1.6s0.7,1.6,1.5,1.6s1.5-0.7,1.5-1.6S14.5,11.9,13.6,11.9z"/>
</svg>
