<?xml version="1.0" encoding="utf-8"?>
<!-- Generator: Adobe Illustrator 18.1.1, SVG Export Plug-In . SVG Version: 6.00 Build 0)  -->
<svg version="1.1" id="Add_Attach" xmlns="http://www.w3.org/2000/svg" xmlns:xlink="http://www.w3.org/1999/xlink" x="0px" y="0px"
	 viewBox="0 0 16 16" enable-background="new 0 0 16 16" xml:space="preserve">
<path fill-rule="evenodd" clip-rule="evenodd" d="M12.4,0c-0.8,0-1.4,0.3-1.9,0.8C7.7,3.7,4.8,6.5,2,9.4C1.5,9.9,1,10.5,0.8,11.2
	c-1.1,2.6,1.5,5,3.4,4.8c1.2-0.1,2.1-0.7,2.9-1.5c1.9-1.9,3.8-3.8,5.6-5.6c0.1-0.1,0.2-0.1,0.2-0.2c0.2-0.2,0.1-0.5-0.1-0.7
	c-0.2-0.2-0.5-0.2-0.7-0.1C12.1,7.9,12.1,8,12,8.1c-1.9,1.9-3.7,3.7-5.6,5.6c-0.5,0.5-1,0.8-1.6,1.1c-0.9,0.3-1.7,0.1-2.4-0.6
	c-0.7-0.7-0.9-1.5-0.6-2.4c0.2-0.6,0.6-1.2,1.1-1.6c2.8-2.8,5.6-5.6,8.4-8.4c0.1-0.1,0.1-0.1,0.2-0.2c0.5-0.5,1.1-0.6,1.7-0.2
	c0.3,0.2,0.5,0.4,0.7,0.6c0.6,0.7,0.6,1.4-0.1,2.1c-2.4,2.4-4.8,4.9-7.3,7.3c-0.2,0.2-0.3,0.3-0.5,0.4c-0.4,0.2-0.7,0.1-0.9-0.2
	c-0.3-0.3-0.3-0.5-0.1-0.9c0.1-0.1,0.2-0.3,0.3-0.4c1.5-1.5,2.9-2.9,4.4-4.4c0.1-0.1,0.2-0.2,0.2-0.3c0.1-0.2,0.1-0.5-0.1-0.7
	C9.6,4.7,9.4,4.7,9.2,4.8C9.1,4.9,9,4.9,8.9,5C7.4,6.5,6,8,4.5,9.4C4.3,9.6,4.2,9.8,4,10c-0.7,1.1-0.1,2.5,1.2,2.8
	c0.8,0.2,1.5-0.1,2-0.7c2.5-2.4,4.9-4.9,7.4-7.4c0.3-0.3,0.6-0.7,0.7-1.2C15.7,1.8,14.2,0,12.4,0z"/>
<polygon points="14,13 14,11 13,11 13,13 11,13 11,14 13,14 13,16 14,16 14,14 16,14 16,13 "/>
</svg>
