<?xml version="1.0" encoding="utf-8"?>
<!-- Generator: Adobe Illustrator 18.1.1, SVG Export Plug-In . SVG Version: 6.00 Build 0)  -->
<svg version="1.1" id="SNA_svg" xmlns="http://www.w3.org/2000/svg" xmlns:xlink="http://www.w3.org/1999/xlink" x="0px" y="0px"
	 viewBox="0 0 16 16" enable-background="new 0 0 16 16" xml:space="preserve">
<path d="M14,8.9c0.8,0,1.5-0.7,1.5-1.5S14.8,5.9,14,5.9c-0.7,0-1.2,0.5-1.4,1.1l-1.7,0.2c-0.1-0.3-0.3-0.5-0.4-0.7l2-2.3
	c0.3,0.2,0.7,0.4,1.1,0.4c1.1,0,2-0.9,2-2c0-1.1-0.9-2-2-2c-1.1,0-2,0.9-2,2c0,0.4,0.1,0.8,0.3,1.1L9.9,6C9.5,5.7,9.1,5.6,8.6,5.6
	c0,0-0.1,0-0.1,0L8.2,3.8C8.7,3.6,9.1,3,9.1,2.4c0-0.8-0.7-1.5-1.5-1.5S6.1,1.6,6.1,2.4c0,0.8,0.6,1.4,1.4,1.5l0.3,1.9
	c-0.5,0.2-1,0.5-1.3,1L4.4,5.7c0-0.1,0-0.1,0-0.2c0-1.1-0.9-2-2-2c-1.1,0-2,0.9-2,2c0,1.1,0.9,2,2,2c0.8,0,1.4-0.4,1.8-1.1l2.1,1
	C6.1,7.6,6.1,7.9,6.1,8.1c0,0.4,0.1,0.9,0.3,1.2l-2.2,2.3c-0.3-0.1-0.6-0.2-0.9-0.2c-1.1,0-2,0.9-2,2c0,1.1,0.9,2,2,2
	c1.1,0,2-0.9,2-2c0-0.5-0.2-1-0.5-1.3L7,10c0.4,0.4,1,0.6,1.6,0.6c0.6,0,1.1-0.2,1.5-0.5l1.7,2c-0.3,0.4-0.5,0.8-0.5,1.3
	c0,1.1,0.9,2,2,2s2-0.9,2-2c0-1.1-0.9-2-2-2c-0.3,0-0.6,0.1-0.9,0.2l-1.7-2.2c0.3-0.4,0.4-0.9,0.4-1.4c0-0.1,0-0.1,0-0.2l1.5-0.2
	C12.7,8.4,13.3,8.9,14,8.9z"/>
</svg>
