<?xml version="1.0" encoding="utf-8"?>
<!-- Generator: Adobe Illustrator 18.1.1, SVG Export Plug-In . SVG Version: 6.00 Build 0)  -->
<svg version="1.1" id="map-marker-toggle" xmlns="http://www.w3.org/2000/svg" xmlns:xlink="http://www.w3.org/1999/xlink" x="0px"
	 y="0px" viewBox="0 0 16 16" enable-background="new 0 0 16 16" xml:space="preserve">
<path d="M11.4,3.5c0-1.9-1.5-3.4-3.4-3.4S4.6,1.6,4.6,3.5c0,1.2,0.7,2.3,1.7,2.9L8,11.2l1.7-4.7C10.7,5.8,11.4,4.7,11.4,3.5z
	 M5.6,3.6c0-1.3,1.1-2.4,2.4-2.4s2.4,1.1,2.4,2.4S9.3,6,8,6S5.6,4.9,5.6,3.6z"/>
<path d="M16,9.5c0-1.5-1.3-2.8-2.8-2.8S10.3,8,10.3,9.5c0,1.1,0.7,2,1.6,2.5h0l1.3,3.8l1.3-3.8h0C15.3,11.6,16,10.6,16,9.5z
	 M13.2,11.6c-1.1,0-2.1-0.9-2.1-2.1c0-1.2,0.9-2.1,2.1-2.1c1.1,0,2.1,0.9,2.1,2.1C15.2,10.7,14.2,11.6,13.2,11.6z"/>
<path d="M5.7,9.5c0-1.5-1.2-2.8-2.8-2.8C1.3,6.7,0,8,0,9.5c0,1.1,0.7,2,1.6,2.5h0l1.3,3.8L4.2,12h0C5,11.6,5.7,10.6,5.7,9.5z
	 M2.8,11.6c-1.1,0-2.1-0.9-2.1-2.1c0-1.2,0.9-2.1,2.1-2.1c1.1,0,2.1,0.9,2.1,2.1C4.9,10.7,4.1,11.6,2.8,11.6z"/>
</svg>
