<?xml version="1.0" encoding="utf-8"?>
<!-- Generator: Adobe Illustrator 18.1.1, SVG Export Plug-In . SVG Version: 6.00 Build 0)  -->
<svg version="1.1" id="Notes_svg" xmlns="http://www.w3.org/2000/svg" xmlns:xlink="http://www.w3.org/1999/xlink" x="0px" y="0px"
	 viewBox="0 0 16 16" enable-background="new 0 0 16 16" xml:space="preserve">
<rect x="7.1" y="2.8" width="5.8" height="0.8"/>
<rect x="7.1" y="5.1" width="5.8" height="0.8"/>
<rect x="7.1" y="7.3" width="5.8" height="0.8"/>
<path d="M14.6,0.2h-1.5h-10H1.6C1.3,0.2,1,0.5,1,0.8v0.1v0.1V15c0,0.3,0.3,0.6,0.6,0.6h8.7c0.2,0,0.5-0.1,0.7-0.3l3.9-3.8 c0.2-0.2,0.3-0.4,0.3-0.6V1V0.8V0.8C15.2,0.5,14.9,0.2,14.6,0.2z M2.9,11.2c-0.6,0-1-0.5-1-1c0-0.6,0.5-1,1-1s1,0.5,1,1 C4,10.7,3.5,11.2,2.9,11.2z M2.9,5.8c-0.6,0-1-0.5-1-1c0-0.6,0.5-1,1-1s1,0.5,1,1C4,5.3,3.5,5.8,2.9,5.8z M10.5,14.7v-3.3h3.3 L10.5,14.7z M14.5,10.7H9.9v4h-5V1h9.2h0.4V10.7z"/>
</svg>
