<?xml version="1.0" encoding="utf-8"?>
<!-- Generated by IcoMoon.io -->
<!DOCTYPE svg PUBLIC "-//W3C//DTD SVG 1.1//EN" "http://www.w3.org/Graphics/SVG/1.1/DTD/svg11.dtd">
<svg version="1.1" xmlns="http://www.w3.org/2000/svg" xmlns:xlink="http://www.w3.org/1999/xlink" width="1024" height="1024" viewBox="0 0 1024 1024">
<path d="M211.2 806.4l275.2-70.4-204.8-211.2z"></path>
<path d="M806.4 320v0l-38.4-38.4-32-38.4-38.4-32-32-38.4-38.4 38.4-262.4 256 38.4 38.4 256-256 38.4 32-256 262.4 32 32 256-256 38.4 38.4-256 256 32 32 300.8-294.4z"></path>
<path d="M512 0c-281.6 0-512 230.4-512 512s230.4 512 512 512 512-230.4 512-512-230.4-512-512-512zM512 960c-249.6 0-448-198.4-448-448s198.4-448 448-448 448 198.4 448 448-198.4 448-448 448z"></path>
</svg>
