<?xml version="1.0" encoding="utf-8"?>
<!-- Generator: Adobe Illustrator 19.1.0, SVG Export Plug-In . SVG Version: 6.00 Build 0)  -->
<svg version="1.1" id="show-only-selected" xmlns="http://www.w3.org/2000/svg" xmlns:xlink="http://www.w3.org/1999/xlink" x="0px"
	 y="0px" viewBox="0 0 16 16" style="enable-background:new 0 0 16 16;" xml:space="preserve">
<path d="M5.8,11.6C2.6,11.6,0,9,0,5.8S2.6,0,5.8,0s5.8,2.6,5.8,5.8c0,0.3,0,0.6-0.1,1l-0.1,0.4h-1.1l0.1-0.6
	c0.1-0.3,0.1-0.5,0.1-0.8c0-2.6-2.1-4.7-4.7-4.7c-2.6,0-4.7,2.1-4.7,4.7c0,2.6,2.1,4.7,4.7,4.7c0.1,0,0.2,0,0.3,0l0.5,0l0,1.1
	l-0.5,0C6,11.6,5.9,11.6,5.8,11.6z"/>
<path d="M9.7,5.5C8.7,3.9,7.3,3,5.8,3c-1.5,0-3,0.9-4,2.6L1.7,5.7l0.1,0.1c1,1.6,2.5,2.6,4,2.6c0,0,0,0,0.1,0c1.5,0,2.9-1,3.9-2.7
	l0.1-0.1L9.7,5.5z M8.9,5.6C8.1,6.8,7,7.5,5.8,7.5l0,0l0,0c0,0,0,0-0.1,0c-1.2,0-2.3-0.7-3.2-1.9c0.9-1.2,2-1.9,3.2-1.9
	C7,3.8,8.1,4.4,8.9,5.6z"/>
<rect x="8.1" y="8.3" width="1" height="1"/>
<path d="M13.9,10.8c-1.6,1.5-2,2.2-2.2,2.8l-0.2,0.1c-0.1,0.1-0.2,0.2-0.3,0.2c0-0.1,0-0.2-0.1-0.4L11,13.4
	c-0.2-0.4-0.3-0.7-0.4-0.8c-0.1-0.2-0.2-0.3-0.3-0.3c0.2-0.2,0.3-0.2,0.5-0.2c0.2,0,0.4,0.3,0.6,0.7l0.1,0.2
	c0.4-0.7,0.8-1.3,2.4-2.7L13.9,10.8z"/>
<rect x="15" y="8.3" width="1" height="1"/>
<rect x="8.1" y="15" width="1" height="1"/>
<rect x="15" y="15" width="1" height="1"/>
<rect x="8.1" y="10" width="1" height="1"/>
<rect x="15" y="10" width="1" height="1"/>
<rect x="8.1" y="11.7" width="1" height="1"/>
<rect x="15" y="11.7" width="1" height="1"/>
<rect x="8.1" y="13.3" width="1" height="1"/>
<rect x="15" y="13.3" width="1" height="1"/>
<rect x="13.3" y="8.3" width="1" height="1"/>
<rect x="13.3" y="15" width="1" height="1"/>
<rect x="11.6" y="8.3" width="1" height="1"/>
<rect x="11.6" y="15" width="1" height="1"/>
<rect x="9.9" y="8.3" width="1" height="1"/>
<rect x="9.9" y="15" width="1" height="1"/>
<path d="M5.8,4.1C5,4.1,4.3,4.8,4.3,5.6S5,7,5.8,7s1.4-0.6,1.4-1.4S6.5,4.1,5.8,4.1z M5.8,6.4c-0.5,0-0.9-0.4-0.9-0.9
	s0.4-0.9,0.9-0.9s0.9,0.4,0.9,0.9S6.2,6.4,5.8,6.4z"/>
</svg>
