<?xml version="1.0" encoding="utf-8"?>
<!-- Generator: Adobe Illustrator 19.0.0, SVG Export Plug-In . SVG Version: 6.00 Build 0)  -->
<svg version="1.1" id="marker" xmlns="http://www.w3.org/2000/svg" xmlns:xlink="http://www.w3.org/1999/xlink" x="0px" y="0px"
	 viewBox="0 0 16 16" enable-background="new 0 0 16 16" xml:space="preserve">
<path d="M15.4,4.7L16,3.4l-3.4-2.2l-1,1l-4.5,7C6.9,9.5,6.9,9.8,7,10.3c0,0.1,0,0.2,0.1,0.2c0.1,0.4,0.2,0.7,0.1,1.1
	c-0.1,0.5-0.4,1-0.6,1.4c-0.1,0.2-0.2,0.4-0.3,0.5c-0.1,0.2-0.2,0.2-0.4,0.2c0,0,0,0,0,0c-1.6,0-2.6,0-3.9,0l-1.9,0l0,0.6l0.2,0
	c0,0,0.1,0,0.1,0l0.6,0c1,0,1.8,0,2.6,0c1,0,2,0,3.3,0c0.1,0,0.3,0,0.4-0.1c0.3-0.3,0.6-0.6,0.9-0.9l0.1-0.1
	c0.1-0.1,0.1-0.1,0.2-0.2c0.1-0.1,0.1-0.2,0.2-0.2c0.5-0.4,1.1-0.5,1.6-0.6c0.3,0,0.6-0.2,0.8-0.5L15.4,4.7z M7.6,9.5L12,2.6
	l2.9,1.9l-4.5,6.9L7.6,9.5z M12.3,2.2l0.3-0.5l2.8,1.8L15.2,4L12.3,2.2z M8.3,11.6c-0.5-0.3-0.9-0.7-0.9-1.4c0,0,2.2,1.4,2.5,1.6
	C9.2,11.9,8.8,11.9,8.3,11.6z M6.8,13.4l0.3,0.2c-0.1,0.3-0.2,0.3-0.6,0.2L6.8,13.4z M7.7,13.1c-0.1,0.1-0.1,0.2-0.2,0.2
	c-0.2-0.1-0.4-0.2-0.6-0.3c0,0,0.1-0.2,0.1-0.3c0,0,0-0.1,0.1-0.1L7.8,13C7.8,13,7.7,13,7.7,13.1z M7.9,12.5
	c-0.6-0.3-0.6-0.3-0.4-0.9c0,0,0-0.1,0-0.1l1.1,0.7l-0.1,0.1c-0.2,0.1-0.3,0.2-0.5,0.3C8,12.6,8,12.6,7.9,12.5z"/>
</svg>
