<?xml version="1.0" encoding="utf-8"?>
<!-- Generator: Adobe Illustrator 19.1.0, SVG Export Plug-In . SVG Version: 6.00 Build 0)  -->
<svg version="1.1" id="plain_doc" xmlns="http://www.w3.org/2000/svg" xmlns:xlink="http://www.w3.org/1999/xlink" x="0px" y="0px"
	 viewBox="0 0 16 16" style="enable-background:new 0 0 16 16;" xml:space="preserve">
<path d="M13.9,3.9c0-0.2-0.1-0.4-0.2-0.6l-3.1-3.1C10.4,0.1,10.2,0,10,0H3C2.6,0,2.2,0.4,2.2,0.9v14.3C2.2,15.6,2.6,16,3,16h10
	c0.5,0,0.9-0.4,0.9-0.9V3.9z M10,0.6c0,0,0.1,0,0.1,0.1l3.1,3.1c0,0,0.1,0.1,0.1,0.1H10V0.6z M13.3,15.1c0,0.2-0.1,0.3-0.3,0.3H3
	c-0.2,0-0.3-0.1-0.3-0.3V0.9c0-0.2,0.1-0.3,0.3-0.3h6.4v3.9h3.9V15.1z"/>
</svg>
