<?xml version="1.0" encoding="utf-8"?>
<!-- Generator: Adobe Illustrator 19.1.0, SVG Export Plug-In . SVG Version: 6.00 Build 0)  -->
<svg version="1.1" id="Undo" xmlns="http://www.w3.org/2000/svg" xmlns:xlink="http://www.w3.org/1999/xlink" x="0px" y="0px"
	 viewBox="0 0 16 16" enable-background="new 0 0 16 16" xml:space="preserve">
<path d="M0.1,4.9c0.1-0.2,0.4-0.3,0.7-0.2C0.9,4.8,1,4.9,1,5l0.5,2.6l2.4-1.1c0.1-0.1,0.3-0.1,0.4,0C4.6,6.7,4.7,7,4.5,7.2
	C4.5,7.4,4.4,7.4,4.3,7.5l-3,1.3c-0.1,0-0.2,0.1-0.2,0.1c-0.1,0-0.2,0-0.2-0.1C0.7,8.7,0.6,8.6,0.6,8.4L0,5.2C0,5.1,0,5,0.1,4.9z"/>
<path d="M8.9,14.3c3.4-0.2,6.1-3,6.1-6.4c0-3.5-2.9-6.4-6.4-6.4c-2.8,0-5.2,1.8-6.1,4.4L2.4,6.2C1.6,6.5,1.6,5.7,1.6,5.6l0,0l0,0
	l0,0l0,0l0.1-0.2c1-3,3.8-4.9,7-4.9c4.1,0,7.4,3.3,7.4,7.4c0,3.9-3.1,7.1-7,7.4l-0.2,0c-0.7-0.4-0.1-1-0.1-1L8.9,14.3z"/>
</svg>
