<?xml version="1.0" encoding="utf-8"?>
<!-- Generator: Adobe Illustrator 19.1.0, SVG Export Plug-In . SVG Version: 6.00 Build 0)  -->
<svg version="1.1" id="Data_Pool" xmlns="http://www.w3.org/2000/svg" xmlns:xlink="http://www.w3.org/1999/xlink" x="0px" y="0px"
	 viewBox="0 0 16 16" style="enable-background:new 0 0 16 16;" xml:space="preserve">
<path d="M8,0.1L3.4,2.3v5L8,9.8l4.6-2.4V2.3L8,0.1z M8,0.8l3.4,1.6L8,4.2L4.6,2.5L8,0.8z M4.1,2.9l3.6,1.8h0v4.1L4.1,7V2.9z
	 M8.3,8.9V4.8h0L12,2.9V7L8.3,8.9z"/>
<path d="M12.6,11.6c-0.5,0-0.9-0.1-1.3-0.2c-0.1,0-0.2-0.1-0.3-0.1c-0.1,0-0.2-0.1-0.3-0.1c-0.8-0.3-1.7-0.2-2.6,0.1l-0.1,0
	c-0.1,0-0.2,0.1-0.3,0.1l-0.1,0c-0.1,0-0.1,0-0.2,0.1l-0.1,0c-0.1,0-0.1,0-0.2,0c-0.7,0.1-1.4,0.1-2.1-0.2c-0.1,0-0.2-0.1-0.3-0.1
	c-0.1,0-0.2-0.1-0.3-0.1c-0.8-0.3-1.7-0.2-2.6,0.1l-0.3-0.6c1-0.4,2-0.5,3-0.2c0.1,0,0.3,0.1,0.4,0.1c0.1,0,0.2,0.1,0.3,0.1
	C5.8,11,6.3,11,6.9,10.9l0.1,0c0,0,0.1,0,0.1,0l0.1,0c0.1,0,0.1,0,0.2,0l0.1,0c0.1,0,0.2-0.1,0.2-0.1l0.1,0c1-0.4,2-0.5,3-0.1
	c0.1,0,0.3,0.1,0.4,0.1c0.1,0,0.2,0.1,0.3,0.1c0.6,0.2,1.1,0.2,1.7,0.1l0.1,0c0,0,0.1,0,0.1,0l0.1,0c0.1,0,0.1,0,0.2,0l0.1,0
	c0.1,0,0.2-0.1,0.2-0.1l0.1,0l0.2,0.6l-0.1,0c-0.1,0-0.2,0.1-0.3,0.1l-0.1,0c-0.1,0-0.1,0-0.2,0.1l-0.1,0c-0.1,0-0.1,0-0.2,0
	C13.1,11.6,12.9,11.6,12.6,11.6z"/>
<path d="M12.6,13.8c-0.5,0-0.9-0.1-1.3-0.2c-0.1,0-0.2-0.1-0.3-0.1c-0.1,0-0.2-0.1-0.3-0.1c-0.8-0.3-1.7-0.2-2.6,0.1l-0.1,0
	c-0.1,0-0.2,0.1-0.3,0.1l-0.1,0c-0.1,0-0.1,0-0.2,0.1l-0.1,0c-0.1,0-0.1,0-0.2,0c-0.7,0.1-1.4,0.1-2.1-0.2c-0.1,0-0.2-0.1-0.3-0.1
	c-0.1,0-0.2-0.1-0.3-0.1c-0.8-0.3-1.7-0.2-2.6,0.1l-0.3-0.6c1-0.4,2-0.5,3-0.1c0.1,0,0.3,0.1,0.4,0.1c0.1,0,0.2,0.1,0.3,0.1
	c0.6,0.2,1.1,0.2,1.7,0.1L7,13c0,0,0.1,0,0.1,0l0.1,0c0.1,0,0.1,0,0.2,0l0.1,0c0.1,0,0.2-0.1,0.2-0.1l0.1,0c1-0.4,2-0.5,3-0.1
	c0.1,0,0.3,0.1,0.4,0.1c0.1,0,0.2,0.1,0.3,0.1c0.6,0.2,1.1,0.2,1.7,0.1l0.1,0c0,0,0.1,0,0.1,0l0.1,0c0.1,0,0.1,0,0.2,0l0.1,0
	c0.1,0,0.2-0.1,0.2-0.1l0.1,0l0.2,0.6l-0.1,0c-0.1,0-0.2,0.1-0.3,0.1l-0.1,0c-0.1,0-0.1,0-0.2,0.1l-0.1,0c-0.1,0-0.1,0-0.2,0
	C13.1,13.7,12.9,13.8,12.6,13.8z"/>
<path d="M12.6,15.9c-0.5,0-0.9-0.1-1.3-0.2c-0.1,0-0.2-0.1-0.3-0.1c-0.1,0-0.2-0.1-0.3-0.1c-0.8-0.3-1.7-0.2-2.6,0.1l-0.1,0
	c-0.1,0-0.2,0.1-0.3,0.1l-0.1,0c-0.1,0-0.1,0-0.2,0.1l-0.1,0c-0.1,0-0.1,0-0.2,0C6.3,16,5.6,15.9,5,15.7c-0.1,0-0.2-0.1-0.3-0.1
	c-0.1,0-0.2-0.1-0.3-0.1c-0.8-0.3-1.7-0.2-2.6,0.1L1.5,15c1-0.4,2-0.5,3-0.2c0.1,0,0.3,0.1,0.4,0.1C5,15,5.1,15,5.2,15.1
	c0.6,0.2,1.1,0.2,1.7,0.1l0.1,0c0,0,0.1,0,0.1,0l0.1,0c0,0,0.1,0,0.1,0l0.1,0c0.1,0,0.1-0.1,0.2-0.1l0.1,0c1-0.4,2-0.5,3-0.1
	c0.1,0,0.3,0.1,0.4,0.1c0.1,0,0.2,0.1,0.3,0.1c0.6,0.2,1.1,0.2,1.7,0.1l0.1,0c0,0,0.1,0,0.1,0l0.1,0c0,0,0.1,0,0.1,0l0.1,0
	c0.1,0,0.1-0.1,0.2-0.1l0.1,0l0.2,0.6l-0.1,0c-0.1,0-0.2,0.1-0.3,0.1l-0.1,0c-0.1,0-0.1,0-0.2,0.1l-0.1,0c-0.1,0-0.1,0-0.2,0
	C13.1,15.9,12.9,15.9,12.6,15.9z"/>
</svg>
