<?xml version="1.0" encoding="utf-8"?>
<!-- Generator: Adobe Illustrator 19.1.0, SVG Export Plug-In . SVG Version: 6.00 Build 0)  -->
<svg version="1.1" id="Organize" xmlns="http://www.w3.org/2000/svg" xmlns:xlink="http://www.w3.org/1999/xlink" x="0px" y="0px"
	 viewBox="0 0 16 16" style="enable-background:new 0 0 16 16;" xml:space="preserve">
<path d="M2.3,0.3C2.3,0.1,2.4,0,2.6,0l11.1,0c0.3,0,0.4,0,0.4,0.4l0,3.7c0,0.4-0.4,0.8-0.9,0.8c-3.4,0-6.7,0-10.1,0
	c-0.5,0-0.8-0.4-0.8-0.8L2.3,0.3z M2.8,4.1c0,0.2,0.1,0.3,0.4,0.3c3.3,0,6.7,0,10,0c0.3,0,0.4-0.1,0.4-0.4l0-3.6
	c-3.6,0-7.2,0-10.7,0L2.8,4.1z"/>
<path d="M8.2,1.3c-0.6,0-1.1,0.5-1.1,1.1c0,0.6,0.5,1.1,1.1,1.1s1.1-0.5,1.1-1.1C9.3,1.8,8.8,1.3,8.2,1.3z M8.2,3.2
	c-0.4,0-0.7-0.3-0.7-0.7s0.3-0.7,0.7-0.7c0.4,0,0.7,0.3,0.7,0.7S8.6,3.2,8.2,3.2z"/>
<path d="M2.3,5.9c0-0.2,0.1-0.3,0.3-0.3l11.1,0c0.3,0,0.4,0,0.4,0.4l0,3.7c0,0.4-0.4,0.8-0.9,0.8c-3.4,0-6.7,0-10.1,0
	c-0.5,0-0.8-0.4-0.8-0.8L2.3,5.9z M2.8,9.6c0,0.2,0.1,0.3,0.4,0.3c3.3,0,6.7,0,10,0c0.3,0,0.4-0.1,0.4-0.4l0-3.6C10,6,6.4,6,2.8,6
	L2.8,9.6z"/>
<path d="M8.2,6.9C7.6,6.9,7.1,7.4,7.1,8c0,0.6,0.5,1.1,1.1,1.1S9.3,8.6,9.3,8C9.3,7.4,8.8,6.9,8.2,6.9z M8.2,8.7
	C7.8,8.7,7.4,8.4,7.4,8c0-0.4,0.3-0.7,0.7-0.7c0.4,0,0.7,0.3,0.7,0.7C8.9,8.4,8.6,8.7,8.2,8.7z"/>
<path d="M2.3,11.4c0-0.2,0.1-0.3,0.3-0.3l11.1,0c0.3,0,0.4,0,0.4,0.4l0,3.7c0,0.4-0.4,0.8-0.9,0.8c-3.4,0-6.7,0-10.1,0
	c-0.5,0-0.8-0.4-0.8-0.8L2.3,11.4z M2.8,15.2c0,0.2,0.1,0.3,0.4,0.3c3.3,0,6.7,0,10,0c0.3,0,0.4-0.1,0.4-0.4l0-3.6
	c-3.6,0-7.2,0-10.7,0L2.8,15.2z"/>
<path d="M8.2,12.4c-0.6,0-1.1,0.5-1.1,1.1c0,0.6,0.5,1.1,1.1,1.1s1.1-0.5,1.1-1.1C9.3,12.9,8.8,12.4,8.2,12.4z M8.2,14.3
	c-0.4,0-0.7-0.3-0.7-0.7c0-0.4,0.3-0.7,0.7-0.7c0.4,0,0.7,0.3,0.7,0.7C8.9,13.9,8.6,14.3,8.2,14.3z"/>
</svg>
