<?xml version="1.0" encoding="utf-8"?>
<!-- Generator: Adobe Illustrator 19.0.1, SVG Export Plug-In . SVG Version: 6.00 Build 0)  -->
<svg version="1.1" id="tree" xmlns="http://www.w3.org/2000/svg" xmlns:xlink="http://www.w3.org/1999/xlink" x="0px" y="0px"
	 viewBox="0 0 16 16" enable-background="new 0 0 16 16" xml:space="preserve">
<path d="M11.4,6.3c-1.2,0-2.1,1-2.1,2.1c0,0.4,0.1,0.8,0.3,1.1c-0.3,0.3-0.8,0.7-0.9,0.7c-0.2-0.1-0.3-3.6-0.1-4.4
	c0.1-0.2,0.6-0.6,1-0.9c0.2,0.2,0.6,0.4,0.9,0.4c0.7,0,1.3-0.6,1.3-1.3c0-0.7-0.6-1.3-1.3-1.3S9.1,3.3,9.1,4c0,0.1,0,0.3,0.1,0.4
	C8.9,4.7,8.5,5,8.4,5c-0.1,0-0.2-1.1-0.2-1.8c0.7-0.2,1.2-0.8,1.2-1.5C9.4,0.7,8.7,0,7.8,0S6.3,0.7,6.3,1.6c0,0.8,0.5,1.4,1.3,1.5
	c0,1.2-0.1,3.5-0.2,3.5C7.2,6.7,6.8,6.3,6.4,6c0.1-0.2,0.2-0.5,0.2-0.8c0-1.1-0.9-2-2-2c-1.1,0-2,0.9-2,2s0.9,2,2,2
	c0.6,0,1.1-0.3,1.5-0.7c0.5,0.3,1.1,0.8,1.2,1c0.1,0.6,0.1,3.5-0.1,3.6c-0.1,0.1-0.5-0.2-0.8-0.5c0.1-0.2,0.2-0.4,0.2-0.7
	c0-0.9-0.7-1.6-1.6-1.6S3.3,9,3.3,9.9c0,0.9,0.7,1.6,1.6,1.6c0.4,0,0.8-0.2,1.1-0.5c0.3,0.2,0.8,0.6,0.9,0.9C7.1,12.6,6.7,16,6.7,16
	H9c0,0-0.4-4.6-0.3-4.9c0.1-0.2,0.8-0.7,1.2-1.1c0.4,0.4,0.9,0.6,1.5,0.6c1.2,0,2.1-1,2.1-2.1C13.5,7.3,12.6,6.3,11.4,6.3z"/>
</svg>
