<?xml version="1.0" encoding="utf-8"?>
<!-- Generator: Adobe Illustrator 19.0.1, SVG Export Plug-In . SVG Version: 6.00 Build 0)  -->
<svg version="1.1" id="thumbsdn" xmlns="http://www.w3.org/2000/svg" xmlns:xlink="http://www.w3.org/1999/xlink" x="0px" y="0px"
	 viewBox="0 0 16 16" enable-background="new 0 0 16 16" xml:space="preserve">
<path d="M1.6,4.9c0.1,0.1,0.1,0.2,0,0.5C1.3,5.9,1.3,6.5,1.6,7c0.1,0.1,0.1,0.3,0,0.5c-0.3,0.6-0.2,1.2,0,1.7c0.3,0.6,0.9,0.9,1.6,1
	c0.2,0,0.5,0,0.8,0c0.1,0,0.2,0,0.5,0c0.1,0,0.2,0,0.5,0h1l-0.2,0.5c-0.1,0.2-0.1,0.5-0.2,0.6c-0.7,1.8,0.1,3.7,1.8,4.5
	c0.7,0.3,1.1,0.1,1.4-0.6l0.5-1.1c0.7-1.7,1.4-3.4,1.9-5.1c0.1-0.2,0.2-0.3,0.5-0.3c0.5,0,0.8,0,1.1,0h1.2c0.6,0,0.9-0.3,0.9-0.9
	c0-1.8,0-3.5,0-5.3c0-0.6-0.3-0.9-0.9-0.9h-1.5c-0.5,0-0.9,0-1.4,0l0,0c-0.2,0-0.3-0.1-0.5-0.2C9.7,0.5,8.7,0.1,7.8,0.1
	c-1.1,0-2,0-2.8,0C4.4,0,3.8,0,3.1,0S2,0.3,1.7,0.9S1.2,2.2,1.6,2.8c0.1,0.1,0,0.3,0,0.3C1.3,3.7,1.3,4.3,1.6,4.9z M2.4,2.7
	C2,2.3,2,1.8,2.2,1.5C2.5,1,2.8,0.8,3.4,0.8h2.4c0.7,0,1.4,0,2,0c1,0,1.9,0.5,2.7,1.1C10.6,2,10.9,2.2,11,2.2v0.1l0,0V2.2
	c0.5,0,0.9,0,1.5,0h1.9V8h-3.2c-0.3,0-0.3,0-0.5,0.3l-2.5,6.6V15l-0.1,0.2L8,15.1c-0.9-0.3-1.5-1-1.7-1.9c-0.1-0.6-0.1-1.1,0.1-1.7
	L7,10.1c0.1-0.2,0.1-0.3,0-0.5C6.7,9.5,6.6,9.4,6.3,9.4H6.2c-0.9,0-1.9,0-2.8,0c-0.6,0-0.9-0.2-1.1-0.7C2,8.4,2,7.8,2.4,7.5
	c0.1-0.1,0.1-0.3,0-0.6c-0.5-0.6-0.5-1,0-1.6c0.1-0.2,0.1-0.3,0-0.6c-0.5-0.6-0.5-1,0-1.6C2.6,3.1,2.6,3,2.4,2.7z"/>
</svg>
