<?xml version="1.0" encoding="utf-8"?>
<!-- Generator: Adobe Illustrator 18.1.1, SVG Export Plug-In . SVG Version: 6.00 Build 0)  -->
<svg version="1.1" id="Edit" xmlns="http://www.w3.org/2000/svg" xmlns:xlink="http://www.w3.org/1999/xlink" x="0px" y="0px"
	 viewBox="0 0 16 16" enable-background="new 0 0 16 16" xml:space="preserve">
<g>
	<path d="M0.3,15.9c-0.1,0-0.2-0.1-0.2-0.2l1.1-3.2l1.1-3.2c0-0.1,0.2-0.2,0.3-0.1l2.2,2.2l2.2,2.2c0.1,0.1,0,0.2-0.1,0.3L3.6,15
		L0.3,15.9z"/>
	<path d="M15.8,4l-3.7-3.7c-0.2-0.2-0.5-0.2-0.7,0.1L3.5,8.2l4.4,4.4l7.8-7.8C15.9,4.6,15.9,4.2,15.8,4z M5.9,9.3L4.8,8.2l7-7
		l1.1,1.1L5.9,9.3z M7.8,11.4l-1.1-1.1l7-7l1.1,1.1L7.8,11.4z"/>
</g>
</svg>
