<?xml version="1.0" encoding="utf-8"?>
<!-- Generator: Adobe Illustrator 18.1.1, SVG Export Plug-In . SVG Version: 6.00 Build 0)  -->
<svg version="1.1" id="Contract" xmlns="http://www.w3.org/2000/svg" xmlns:xlink="http://www.w3.org/1999/xlink" x="0px" y="0px"
	 viewBox="0 0 16 16" enable-background="new 0 0 16 16" xml:space="preserve">
	<path d="M8,16c-4.4,0-8-3.6-8-8c0-4.4,3.6-8,8-8s8,3.6,8,8C16,12.4,12.4,16,8,16z M8,0.9C4.1,0.9,0.9,4.1,0.9,8 c0,3.9,3.2,7.1,7.1,7.1s7.1-3.2,7.1-7.1C15.1,4.1,11.9,0.9,8,0.9z"/>
<path d="M9.5,7.1l2.1,0v0.7l-2.9,0l-0.5,0l0-0.5l0-2.7l0.7,0l0,1.9l0,0l0.3-0.3l1.9-1.9l0.6,0.6L9.9,6.7L9.5,7.1L9.5,7.1z"/>
<path d="M6.6,8.9l-2.1,0V8.2l2.9,0l0.5,0l0,0.5l0,2.7l-0.7,0l0-1.9l0,0L6.8,9.8l-1.9,1.9l-0.6-0.6l1.9-1.9L6.6,8.9L6.6,8.9z"/>
</svg>
