<?xml version="1.0" encoding="utf-8"?>
<!-- Generator: Adobe Illustrator 18.1.1, SVG Export Plug-In . SVG Version: 6.00 Build 0)  -->
<svg version="1.1" id="check" xmlns="http://www.w3.org/2000/svg" xmlns:xlink="http://www.w3.org/1999/xlink" x="0px" y="0px"
	 viewBox="0 0 16 16" enable-background="new 0 0 16 16" xml:space="preserve">
<path d="M12.3,0H4.1C1.9,0,0,1.3,0,3.4v8.2C0,13.7,1.9,16,4.1,16h8.2c2.2,0,3.6-2.3,3.6-4.4V3.4C16,1.3,14.4,0,12.3,0z M12.3,4.4
	c-1.5,2.3-3,4.4-4.3,6.7c-0.1,0.2-0.2,0.3-0.5,0.3c-0.3,0.1-0.6,0-0.8-0.2C5.9,10.4,5,9.4,4.2,8.4C4,8.3,4,8.1,4,8
	c0-0.1,0.1-0.3,0.2-0.5c0.2-0.2,0.7-0.3,0.9-0.1c0.5,0.3,1,0.8,1.5,1.1C6.7,8.7,7,8.8,7.1,8.9C7.4,8.4,7.8,8,8.2,7.5
	C9.1,6.3,10,5,11.1,3.6c0.1-0.1,0.3-0.3,0.7-0.2c0.2,0,0.5,0.1,0.6,0.5c0.1,0.1,0.1,0.2,0.1,0.3C12.4,4.2,12.3,4.3,12.3,4.4z"/>
</svg>
