<?xml version="1.0" encoding="utf-8"?>
<!-- Generator: Adobe Illustrator 19.1.0, SVG Export Plug-In . SVG Version: 6.00 Build 0)  -->
<svg version="1.1" id="csv" xmlns="http://www.w3.org/2000/svg" xmlns:xlink="http://www.w3.org/1999/xlink" x="0px" y="0px"
	 viewBox="0 0 16 16" style="enable-background:new 0 0 16 16;" xml:space="preserve">
<path d="M10.9,16h-10C0.4,16,0,15.6,0,15.1V0.8C0,0.4,0.4,0,0.9,0h6.9C8,0,8.2,0.1,8.4,0.2l3.1,3.1c0.2,0.2,0.2,0.4,0.2,0.6v2.3
	h-0.6V4.4H7.3V0.6H0.9c-0.2,0-0.3,0.1-0.3,0.3v14.3c0,0.2,0.1,0.3,0.3,0.3h10c0.2,0,0.3-0.1,0.3-0.3v-0.7h0.6v0.7
	C11.7,15.6,11.3,16,10.9,16z M7.9,3.9h3.3c0,0,0-0.1-0.1-0.1L8,0.6c0,0-0.1-0.1-0.1-0.1V3.9z"/>
<path d="M15.3,13.4H5c-0.4,0-0.7-0.3-0.7-0.7V8c0-0.4,0.3-0.7,0.7-0.7h10.3C15.7,7.3,16,7.6,16,8v4.7C16,13.1,15.7,13.4,15.3,13.4z
	 M5,7.8C4.9,7.8,4.9,7.9,4.9,8v4.7c0,0.1,0.1,0.1,0.1,0.1h10.3c0.1,0,0.1-0.1,0.1-0.1V8c0-0.1-0.1-0.1-0.1-0.1H5z"/>
<path d="M8.3,10.8l0.4,0.1c-0.1,0.3-0.2,0.6-0.4,0.7c-0.2,0.2-0.5,0.3-0.8,0.3c-0.3,0-0.6-0.1-0.8-0.2c-0.2-0.1-0.4-0.3-0.5-0.6
	c-0.1-0.2-0.2-0.5-0.2-0.8c0-0.3,0.1-0.6,0.2-0.8C6.4,9.3,6.6,9.1,6.8,9C7,8.9,7.2,8.8,7.5,8.8c0.3,0,0.6,0.1,0.8,0.2
	c0.2,0.2,0.3,0.4,0.4,0.6L8.3,9.8C8.2,9.5,8.1,9.4,8,9.3C7.9,9.2,7.7,9.1,7.5,9.1c-0.2,0-0.4,0.1-0.6,0.2C6.8,9.4,6.7,9.6,6.6,9.8
	c-0.1,0.2-0.1,0.4-0.1,0.6c0,0.3,0,0.5,0.1,0.7c0.1,0.2,0.2,0.3,0.3,0.4c0.2,0.1,0.3,0.1,0.5,0.1c0.2,0,0.4-0.1,0.6-0.2
	C8.2,11.2,8.3,11.1,8.3,10.8z"/>
<path d="M9.1,10.9l0.4,0c0,0.2,0.1,0.3,0.1,0.4c0.1,0.1,0.2,0.2,0.3,0.2c0.1,0.1,0.3,0.1,0.5,0.1c0.2,0,0.3,0,0.4-0.1
	c0.1,0,0.2-0.1,0.3-0.2s0.1-0.2,0.1-0.3c0-0.1,0-0.2-0.1-0.2c-0.1-0.1-0.1-0.1-0.3-0.2c-0.1,0-0.3-0.1-0.5-0.1
	c-0.3-0.1-0.5-0.1-0.6-0.2c-0.1-0.1-0.2-0.2-0.3-0.3C9.2,9.9,9.2,9.8,9.2,9.6c0-0.2,0-0.3,0.1-0.4C9.4,9.1,9.5,9,9.7,8.9
	c0.2-0.1,0.3-0.1,0.5-0.1c0.2,0,0.4,0,0.6,0.1C11,9,11.1,9.1,11.2,9.2c0.1,0.1,0.1,0.3,0.1,0.5l-0.4,0c0-0.2-0.1-0.3-0.2-0.4
	c-0.1-0.1-0.3-0.1-0.5-0.1c-0.2,0-0.4,0-0.5,0.1C9.6,9.4,9.6,9.5,9.6,9.6c0,0.1,0,0.2,0.1,0.3c0.1,0.1,0.3,0.1,0.6,0.2
	s0.5,0.1,0.7,0.2c0.2,0.1,0.3,0.2,0.4,0.3c0.1,0.1,0.1,0.3,0.1,0.4c0,0.2,0,0.3-0.1,0.5c-0.1,0.1-0.2,0.3-0.4,0.3
	c-0.2,0.1-0.4,0.1-0.6,0.1c-0.3,0-0.5,0-0.7-0.1c-0.2-0.1-0.3-0.2-0.4-0.4C9.1,11.3,9.1,11.1,9.1,10.9z"/>
<path d="M12.9,11.8l-1.2-3h0.4l0.8,2.2c0.1,0.2,0.1,0.3,0.2,0.5c0-0.2,0.1-0.3,0.2-0.5L14,8.9h0.4l-1.2,3L12.9,11.8L12.9,11.8z"/>
</svg>
