<?xml version="1.0" encoding="utf-8"?>
<!-- Generator: Adobe Illustrator 19.0.0, SVG Export Plug-In . SVG Version: 6.00 Build 0)  -->
<svg version="1.1" id="globe" xmlns="http://www.w3.org/2000/svg" xmlns:xlink="http://www.w3.org/1999/xlink" x="0px" y="0px"
	 viewBox="0 0 16 16" enable-background="new 0 0 16 16" xml:space="preserve">
<path d="M16,8c0-4.4-3.6-8-8-8C3.5,0,0,3.6,0,8c0,4.4,3.6,8,8,8c1.5,0,3-0.5,4.2-1.2l0,0c0,0,0,0,0,0C14.5,13.4,16,10.8,16,8z
	 M14.5,5.4c-0.6,0.9-1.4,1.7-2.2,2.4C11.7,5.3,10.5,2.9,8.6,1C11.3,1.3,13.5,3,14.5,5.4z M11.3,14.1c-0.7,0.4-1.5,0.7-2.4,0.8
	c-1.2-1-2.1-2.2-2.8-3.6C8,11,9.8,10.4,11.5,9.4C11.7,11.1,11.6,12.7,11.3,14.1z M5.7,10.4C4.6,7.6,4.4,4.3,5,1.7
	c0.7-0.3,1.4-0.5,2.1-0.6c2.3,1.9,3.6,4.6,4.2,7.3C9.6,9.5,7.7,10.1,5.7,10.4z M3.9,2.4c-0.4,2.6-0.2,5.5,0.8,8.2
	c-1.1,0.1-2.2,0-3.2-0.1C1.2,9.7,1,8.9,1,8C1,5.7,2.1,3.6,3.9,2.4z M2,11.5c0.5,0.1,1.1,0.1,1.6,0.1c0.5,0,1,0,1.6-0.1
	c0.6,1.3,1.4,2.4,2.4,3.5C5.1,14.8,3.1,13.5,2,11.5z M12.5,13.4c0.2-1.5,0.2-3,0-4.6c0.9-0.6,1.7-1.4,2.4-2.3C14.9,7,15,7.5,15,8
	C15,10.1,14,12.1,12.5,13.4z"/>
</svg>
