<?xml version="1.0" encoding="utf-8"?>
<!-- Generator: Adobe Illustrator 19.0.1, SVG Export Plug-In . SVG Version: 6.00 Build 0)  -->
<svg version="1.1" id="Add_Object" xmlns="http://www.w3.org/2000/svg" xmlns:xlink="http://www.w3.org/1999/xlink" x="0px" y="0px"
	 viewBox="0 0 16 16" enable-background="new 0 0 16 16" xml:space="preserve">
<polygon points="14,13 14,11 13,11 13,13 11,13 11,14 13,14 13,16 14,16 14,14 16,14 16,13 "/>
<path d="M12.4,8.5c0,0.6,0,1.2,0,1.8c0,0.1,0,0.1-0.1,0.2c-1,0.5-2,1-3,1.5c-0.1,0-0.1,0-0.2,0c-0.9-0.5-1.8-0.9-2.8-1.4
	c-0.1,0-0.1,0-0.2,0c-0.9,0.5-1.8,0.9-2.7,1.4c-0.1,0.1-0.2,0-0.3,0c-1-0.5-2-1-3-1.5C0,10.4,0,10.3,0,10.2C0,9,0,7.9,0,6.7
	c0-0.1,0-0.2,0.1-0.2C1,6,2,5.6,2.9,5.1C3,5.1,3,5,3,4.9c0-1.1,0-2.1,0-3.2c0-0.1,0-0.2,0.1-0.2c1-0.5,2-1,3-1.5c0.1,0,0.1,0,0.2,0
	c1,0.5,2,1,3,1.5c0.1,0,0.1,0.1,0.1,0.2c0,1.1,0,2.1,0,3.2c0,0.1,0,0.2,0.1,0.2c0.9,0.5,1.8,0.9,2.7,1.4c0.1,0,0.1,0.1,0.1,0.2
	C12.4,7.3,12.4,7.9,12.4,8.5z M3.5,2.2C3.5,2.2,3.5,2.2,3.5,2.2c0,1,0,1.9,0,2.8c0,0.1,0.1,0.1,0.1,0.2c0.7,0.4,1.5,0.7,2.2,1.1
	c0,0,0.1,0,0.1,0c0,0,0,0,0-0.1c0-0.9,0-1.8,0-2.8c0-0.1,0-0.1-0.1-0.2C5.1,3,4.4,2.6,3.7,2.3C3.6,2.2,3.6,2.2,3.5,2.2z M9,2.2
	C8.9,2.2,8.9,2.2,9,2.2C8.1,2.6,7.3,3,6.6,3.3c-0.1,0-0.1,0.1-0.1,0.2c0,0.9,0,1.8,0,2.6c0,0,0,0.1,0,0.1c0,0,0.1,0,0.1,0
	c0.8-0.4,1.5-0.8,2.3-1.1C8.9,5.1,9,5,9,5c0-0.7,0-1.5,0-2.2C9,2.6,9,2.4,9,2.2z M0.5,7.1C0.5,7.2,0.5,7.2,0.5,7.1c0,1,0,1.9,0,2.8
	c0,0.1,0,0.1,0.1,0.1c0.8,0.4,1.5,0.8,2.3,1.1c0,0,0.1,0,0.1,0c0,0,0,0,0-0.1c0-0.9,0-1.8,0-2.8c0,0-0.1-0.1-0.1-0.1
	C2.3,8,1.7,7.7,1.1,7.4C0.9,7.3,0.7,7.2,0.5,7.1z M3.5,11.3c0.1,0,0.1,0,0.2-0.1c0.7-0.4,1.5-0.7,2.2-1.1C5.9,10.1,6,10,6,9.9
	c0-0.9,0-1.7,0-2.6c0-0.1,0-0.1,0-0.2c0,0,0,0-0.1,0C5.1,7.5,4.3,7.9,3.6,8.3c0,0-0.1,0.1-0.1,0.2c0,0.9,0,1.8,0,2.7
	C3.5,11.2,3.5,11.2,3.5,11.3z M9,11.3c0-1,0-1.9,0-2.8c0,0-0.1-0.1-0.1-0.1C8.1,7.9,7.3,7.6,6.6,7.2c0,0-0.1,0-0.1,0
	c0,0.1,0,0.1,0,0.1c0,0.9,0,1.8,0,2.6c0,0.1,0,0.2,0.1,0.2c0.7,0.4,1.5,0.7,2.2,1.1C8.8,11.2,8.9,11.3,9,11.3z M9.5,11.3
	C9.5,11.3,9.5,11.3,9.5,11.3c0.8-0.4,1.6-0.8,2.4-1.2c0,0,0.1-0.1,0.1-0.2c0-0.9,0-1.8,0-2.7c0,0,0-0.1,0-0.1c0,0,0,0-0.1,0
	c-0.8,0.4-1.6,0.8-2.3,1.2c0,0-0.1,0.1-0.1,0.1c0,0.5,0,0.9,0,1.4C9.5,10.3,9.5,10.8,9.5,11.3z M3.8,1.7C3.8,1.8,3.8,1.8,3.8,1.7
	c0.8,0.4,1.6,0.8,2.3,1.2c0,0,0.1,0,0.2,0c0.7-0.4,1.5-0.7,2.2-1.1c0,0,0.1,0,0.1-0.1C7.8,1.3,7.1,1,6.3,0.6c0,0-0.1,0-0.1,0
	C5.4,1,4.6,1.3,3.8,1.7z M5.7,6.7C5.6,6.7,5.6,6.7,5.7,6.7C4.8,6.3,4.1,5.9,3.3,5.5c0,0-0.1,0-0.2,0C2.6,5.8,2,6.1,1.5,6.4
	C1.3,6.5,1.1,6.6,0.8,6.7c0.1,0,0.1,0.1,0.1,0.1c0.6,0.3,1.3,0.6,1.9,1c0.3,0.1,0.5,0.2,0.8,0C4.3,7.4,5,7.1,5.7,6.7z M6.8,6.7
	c0.8,0.4,1.6,0.8,2.4,1.2c0,0,0.1,0,0.2,0c0.6-0.3,1.3-0.6,1.9-1c0.1-0.1,0.3-0.1,0.4-0.2c0,0,0,0-0.1,0C10.8,6.3,10,5.9,9.3,5.5
	c0,0-0.1,0-0.2,0C8.5,5.8,8,6.1,7.4,6.4C7.2,6.5,7,6.6,6.8,6.7z"/>
</svg>
