<?xml version="1.0" encoding="utf-8"?>
<!-- Generator: Adobe Illustrator 19.0.0, SVG Export Plug-In . SVG Version: 6.00 Build 0)  -->
<svg version="1.1" id="Cluster" xmlns="http://www.w3.org/2000/svg" xmlns:xlink="http://www.w3.org/1999/xlink" x="0px" y="0px"
	 viewBox="0 0 16 16" enable-background="new 0 0 16 16" xml:space="preserve">
<path d="M11.7,3.5c-0.5-0.4-1.1-0.5-1.6-0.3c-0.2-0.4-0.5-0.8-0.8-1c-1-0.7-2.4-0.4-3.1,0.5C6,2.8,6,2.9,5.9,3.1
	C5.1,2.9,4.2,3.2,3.7,3.9c-0.7,1-0.4,2.3,0.5,3c0.5,0.3,1,0.4,1.5,0.4l2.1,6.4v0.1h0.5v-0.1l1.9-6.3c0.8,0.1,1.6-0.2,2.1-0.9
	C12.9,5.5,12.7,4.2,11.7,3.5z M6.6,3.1c0.5-0.7,1.6-0.9,2.3-0.4c0.7,0.5,0.9,1.6,0.4,2.3C8.8,5.7,7.8,5.9,7.1,5.4
	C6.3,4.8,6.1,3.8,6.6,3.1z M4.5,6.4C3.8,5.9,3.6,4.9,4.1,4.2c0.4-0.6,1.1-0.8,1.7-0.6C5.6,4.4,6,5.2,6.6,5.8c0,0,0.1,0,0.1,0.1
	C6.8,5.9,6.7,6,6.7,6C6.2,6.8,5.2,6.9,4.5,6.4z M6.2,7.1c0.4-0.1,0.8-0.4,1-0.7c0-0.1,0.1-0.2,0.1-0.3c0.2,0,0.3,0.1,0.5,0.1V12
	L6.2,7.1z M8.2,11.9V6.1c0.1,0,0.2,0,0.3-0.1c0,0,0,0-0.1,0C8.7,6.4,8.9,6.8,9.3,7c0.1,0.1,0.3,0.2,0.4,0.2L8.2,11.9z M11.8,6.1
	C11.3,6.9,10.3,7,9.6,6.5C9.3,6.4,9.1,6.1,9,5.9c0.3-0.2,0.5-0.4,0.7-0.6c0.4-0.5,0.5-1.1,0.4-1.6c0.4-0.1,0.8,0,1.2,0.2
	C12.1,4.4,12.3,5.4,11.8,6.1z"/>
<path d="M8,16c-4.4,0-8-3.6-8-8c0-4.4,3.6-8,8-8c4.4,0,8,3.6,8,8C16,12.4,12.4,16,8,16z M8,0.9C4.1,0.9,0.9,4.1,0.9,8
	c0,3.9,3.2,7.1,7.1,7.1c3.9,0,7.1-3.2,7.1-7.1C15.1,4.1,11.9,0.9,8,0.9z"/>
</svg>
