<?xml version="1.0" encoding="utf-8"?>
<!-- Generator: Adobe Illustrator 19.0.1, SVG Export Plug-In . SVG Version: 6.00 Build 0)  -->
<svg version="1.1" id="Save" xmlns="http://www.w3.org/2000/svg" xmlns:xlink="http://www.w3.org/1999/xlink" x="0px" y="0px"
	 viewBox="0 0 16 16" enable-background="new 0 0 16 16" xml:space="preserve">
<path d="M14.5,0H1.5C0.7,0,0,0.7,0,1.5v13.1C0,15.3,0.7,16,1.5,16h13.1c0.8,0,1.5-0.7,1.5-1.5V1.5C16,0.7,15.4,0,14.5,0z M9.1,0.8
	h4.1v3H9.1V0.8z M12.5,15.2h-9V9h9V15.2z M15.2,14.5c0,0.4-0.3,0.7-0.7,0.7h-1.2V8.9c0-0.4-0.3-0.7-0.7-0.7H3.3
	c-0.4,0-0.7,0.3-0.7,0.7v6.3H1.5c-0.4,0-0.7-0.3-0.7-0.7V1.5c0-0.4,0.3-0.7,0.7-0.7h6.8V4c0,0.4,0.3,0.7,0.6,0.7h4.5
	C13.7,4.7,14,4.4,14,4V0.8h0.5c0.4,0,0.7,0.3,0.7,0.7V14.5z"/>
</svg>
