<?xml version="1.0" encoding="utf-8"?>
<!-- Generator: Adobe Illustrator 19.1.0, SVG Export Plug-In . SVG Version: 6.00 Build 0)  -->
<svg version="1.1" id="spotlight-selected" xmlns="http://www.w3.org/2000/svg" xmlns:xlink="http://www.w3.org/1999/xlink" x="0px"
	 y="0px" viewBox="0 0 16 16" style="enable-background:new 0 0 16 16;" xml:space="preserve">
<rect x="8.1" y="8.3" width="1" height="1"/>
<path d="M13.9,10.8c-1.6,1.5-2,2.2-2.2,2.8l-0.2,0.1c-0.1,0.1-0.2,0.2-0.3,0.2c0-0.1,0-0.2-0.1-0.4L11,13.4
	c-0.2-0.4-0.3-0.7-0.4-0.8c-0.1-0.2-0.2-0.3-0.3-0.3c0.2-0.2,0.3-0.2,0.5-0.2c0.2,0,0.4,0.3,0.6,0.7l0.1,0.2
	c0.4-0.7,0.8-1.3,2.4-2.7L13.9,10.8z"/>
<path d="M6.3,12.4c-3.4,0-6.2-2.8-6.2-6.2S2.9,0,6.3,0c3.4,0,6.2,2.8,6.2,6.2c0,0.3,0,0.7-0.1,1.1l0,0.3h-0.8l0.1-0.4
	c0.1-0.3,0.1-0.6,0.1-0.9c0-3-2.4-5.4-5.4-5.4c-3,0-5.4,2.4-5.4,5.4s2.4,5.4,5.4,5.4c0.1,0,0.2,0,0.3,0l0.4,0v0.8l-0.4,0
	C6.5,12.4,6.4,12.4,6.3,12.4z"/>
<path d="M6.3,10.4c-2.3,0-4.2-1.9-4.2-4.2S4,2,6.3,2c2.3,0,4.2,1.9,4.2,4.2c0,0.4,0,0.7-0.1,1.1l-0.1,0.3H9.4l0.1-0.4
	c0.1-0.3,0.1-0.6,0.1-0.9c0-1.9-1.5-3.4-3.4-3.4S2.9,4.4,2.9,6.2s1.5,3.4,3.4,3.4c0.1,0,0.2,0,0.4,0l0.4,0v0.8l-0.3,0
	C6.6,10.4,6.5,10.4,6.3,10.4z"/>
<path d="M6.4,3.9H6.2C5,3.9,4,4.9,4,6.1v0.1c0,1.2,1,2.2,2.2,2.2h0.1c1.2,0,2.2-1,2.2-2.2V6.1C8.6,4.9,7.6,3.9,6.4,3.9z M6.3,7.8
	c-0.9,0-1.6-0.7-1.6-1.6c0-0.9,0.7-1.6,1.6-1.6s1.6,0.7,1.6,1.6C7.9,7.1,7.2,7.8,6.3,7.8z"/>
<rect x="15" y="8.3" width="1" height="1"/>
<rect x="8.1" y="15" width="1" height="1"/>
<rect x="15" y="15" width="1" height="1"/>
<rect x="8.1" y="10" width="1" height="1"/>
<rect x="15" y="10" width="1" height="1"/>
<rect x="8.1" y="11.7" width="1" height="1"/>
<rect x="15" y="11.7" width="1" height="1"/>
<rect x="8.1" y="13.3" width="1" height="1"/>
<rect x="15" y="13.3" width="1" height="1"/>
<rect x="13.3" y="8.3" width="1" height="1"/>
<rect x="13.3" y="15" width="1" height="1"/>
<rect x="11.6" y="8.3" width="1" height="1"/>
<rect x="11.6" y="15" width="1" height="1"/>
<rect x="9.9" y="8.3" width="1" height="1"/>
<rect x="9.9" y="15" width="1" height="1"/>
</svg>
