<?xml version="1.0" encoding="utf-8"?>
<!-- Generator: Adobe Illustrator 19.0.1, SVG Export Plug-In . SVG Version: 6.00 Build 0)  -->
<svg version="1.1" id="Move_to_Folder" xmlns="http://www.w3.org/2000/svg" xmlns:xlink="http://www.w3.org/1999/xlink" x="0px"
	 y="0px" viewBox="0 0 16 16" enable-background="new 0 0 16 16" xml:space="preserve">
<path d="M15.5,2.9c-0.1,0-0.1,0-0.1,0H8c-0.1,0-0.2-0.1-0.3-0.1L6.2,1.4C6.1,1.4,5.9,1.2,5.8,1.2c-1.4,0-1.7,0-3,0
	C2.3,1.2,2,1.5,2,2v3.9h0.8V2h2.7c0.1,0,0.2,0.1,0.3,0.1c0.5,0.4,1,0.9,1.6,1.4c0.1,0.1,0.3,0.2,0.5,0.2h7.4v10H2.8v-3.4H2v3.3
	c0,0.3,0.1,0.5,0.3,0.7c0.1,0.1,0.4,0.3,0.7,0.3h12.4c0.4,0,0.6-0.2,0.7-0.6c0-0.1,0-0.2,0-0.3c0-3,0-7,0-10c0-0.1,0-0.1,0-0.2
	C16,3.2,15.8,3,15.5,2.9z"/>
<polygon points="6.3,5.4 5.7,6.1 7.5,7.8 0,7.8 0,7.8 0,8.8 0,8.8 7.5,8.8 5.7,10.5 6.3,11.1 9.3,8.3 9.3,8.3 9.3,8.3 "/>
</svg>
