<?xml version="1.0" encoding="utf-8"?>
<!-- Generator: Adobe Illustrator 19.0.1, SVG Export Plug-In . SVG Version: 6.00 Build 0)  -->
<svg version="1.1" id="share" xmlns="http://www.w3.org/2000/svg" xmlns:xlink="http://www.w3.org/1999/xlink" x="0px" y="0px"
	 viewBox="0 0 16 16" enable-background="new 0 0 16 16" xml:space="preserve">
<path d="M12.9,9.7c-0.9,0-1.8,0.4-2.4,1.1L6.1,8.6C6.2,8.3,6.3,8,6.3,7.7c0-0.2,0-0.4-0.1-0.6L10.4,5c0.6,0.8,1.5,1.3,2.5,1.3
	c1.7,0,3.1-1.4,3.1-3.1S14.6,0,12.9,0c-1.7,0-3.1,1.4-3.1,3.1c0,0.3,0.1,0.6,0.2,0.9L5.8,6.1C5.3,5.2,4.3,4.6,3.1,4.6
	C1.4,4.6,0,6,0,7.7s1.4,3.1,3.1,3.1c1.1,0,2-0.5,2.5-1.3l4.3,2.2c-0.1,0.4-0.2,0.7-0.2,1.2c0,1.7,1.4,3.1,3.1,3.1
	c1.7,0,3.1-1.4,3.1-3.1C16,11.1,14.6,9.7,12.9,9.7z M12.9,1C14,1,15,2,15,3.1S14,5.2,12.9,5.2s-2.1-0.9-2.1-2.1S11.7,1,12.9,1z
	 M3.1,9.8C2,9.8,1,8.9,1,7.7S2,5.6,3.1,5.6s2.1,0.9,2.1,2.1S4.3,9.8,3.1,9.8z M12.9,15c-1.2,0-2.1-0.9-2.1-2.1s0.9-2.1,2.1-2.1
	s2.1,0.9,2.1,2.1S14,15,12.9,15z"/>
</svg>
