<?xml version="1.0" encoding="utf-8"?>
<!-- Generator: Adobe Illustrator 19.1.0, SVG Export Plug-In . SVG Version: 6.00 Build 0)  -->
<svg version="1.1" id="fieldscustom" xmlns="http://www.w3.org/2000/svg" xmlns:xlink="http://www.w3.org/1999/xlink" x="0px"
	 y="0px" viewBox="0 0 16 16" style="enable-background:new 0 0 16 16;" xml:space="preserve">
<path d="M4.8,8"/>
<path d="M10.6,7C10.7,7,10.8,7,10.9,7l1,0.6c0.1,0,0.2,0.1,0.2,0.1c0.1,0,0.1,0,0.2-0.1c0.1-0.1,0.1-0.4,0.1-0.5l0-6.1h0.6
	c1.1,0,1.9,0.8,1.9,1.9v10.4c0,1-0.9,1.9-1.9,1.9H6.2c-0.3,0-0.5,0.2-0.5,0.5C5.7,15.8,6,16,6.2,16h6.9c1.6,0,2.9-1.3,2.9-2.8V2.8
	C16,1.3,14.7,0,13.1,0h-7C5.9,0,5.6,0.2,5.6,0.5s0.2,0.5,0.5,0.5H9l0,6.3c0,0.3,0.1,0.4,0.2,0.4c0.1,0,0.2,0.1,0.4,0L10.6,7z
	 M11.1,6.3c-0.2-0.1-0.4-0.1-0.6,0L9.7,6.7V0.9h2.1v5.7L11.1,6.3z"/>
<path d="M5,13.5c-0.3,0-0.5-0.2-0.5-0.5V2.9c0-0.3,0.2-0.5,0.5-0.5s0.5,0.2,0.5,0.5V13C5.5,13.2,5.3,13.5,5,13.5z"/>
<path d="M2.4,7.6c0-0.6,0-0.6-0.6-0.7c-0.2,0-0.4-0.1-0.7-0.2C1.1,6.7,1,6.6,1,6.5c0-0.1,0.1-0.2,0.2-0.2c0,0,0.1-0.1,0.2-0.1
	c0.3,0,0.4-0.1,0.6-0.1c0.3,0,0.4-0.1,0.4-0.5V4.6c0-0.6,0-0.7-0.6-0.7l0,0c-0.2,0-0.4-0.1-0.6-0.2C1.1,3.7,0.9,3.6,1,3.5
	c0-0.1,0.1-0.1,0.2-0.2l0.1,0c0,0,0.1,0,0.2-0.1c0.2,0,0.4-0.1,0.6-0.1c0.3,0,0.4-0.1,0.4-0.5c0-0.1,0-0.2,0-0.3c0-0.2,0-0.3,0-0.5
	c0-0.7,0.4-1.1,1.1-1.1l0.5,0c0.3,0,0.4-0.1,0.4-0.4c0-0.1,0-0.2-0.1-0.3C4.3,0,4.1,0,4,0L3.2,0l0,0C2.4,0,1.9,0.5,1.6,1.2
	C1.6,1.4,1.5,1.8,1.5,2.1l0,0.2c0,0.1,0,0.2-0.1,0.2C1.1,2.5,0.8,2.5,0.5,2.7C0.2,2.9,0,3.2,0,3.5c0,0.3,0.2,0.6,0.5,0.8
	C0.8,4.4,1,4.5,1.3,4.6l0.1,0c0.1,0,0.1,0,0.1,0.1c0,0.2,0,0.4,0,0.6c0,0.1,0,0.1-0.1,0.1l-0.1,0C1,5.5,0.7,5.6,0.5,5.7
	C0.2,5.9,0,6.2,0,6.5c0,0.3,0.2,0.6,0.5,0.8C0.7,7.5,1,7.5,1.3,7.6l0.1,0c0.1,0,0.1,0,0.1,0.1c0,0.2,0,0.4,0,0.6
	c0,0.1,0,0.1-0.1,0.1l0,0C1.1,8.5,0.8,8.6,0.6,8.7C0.2,8.9,0,9.2,0,9.5c0,0.4,0.2,0.7,0.6,0.9c0.2,0.1,0.5,0.2,0.8,0.2l0.1,0
	c0.1,0,0.1,0,0.1,0.1c0,0.2,0,0.4,0,0.6c0,0.1,0,0.1-0.1,0.1l-0.1,0c-0.3,0.1-0.6,0.1-0.8,0.3c-0.2,0.1-0.3,0.3-0.4,0.5
	c-0.2,0.4,0,0.8,0.3,1c0.3,0.2,0.6,0.3,1,0.4c0.1,0,0.1,0,0.1,0.1c0,0.2,0,0.4,0,0.5C1.6,15.2,2.2,15.9,3,16l0.9,0c0,0,0,0,0,0
	c0.1,0,0.2,0,0.3-0.1c0.1-0.1,0.1-0.2,0.1-0.3c0-0.2-0.2-0.4-0.4-0.4l-0.4,0c-0.6,0-0.9-0.3-1-0.9l0-0.9C2.4,13.1,2.3,13,2,13
	l-0.4-0.1c-0.2-0.1-0.4-0.1-0.6-0.2c0,0-0.1-0.1-0.1-0.1s0-0.1,0.1-0.2c0.1-0.1,0.2-0.1,0.2-0.1c0.3-0.1,0.5-0.1,0.7-0.1
	c0.3,0,0.4-0.2,0.4-0.5c0-0.4,0-0.9,0-1.3c0-0.3-0.1-0.5-0.4-0.5c-0.3,0-0.5-0.1-0.8-0.2C1.1,9.8,0.9,9.7,1,9.6
	c0-0.1,0.1-0.2,0.2-0.2C1.4,9.3,1.7,9.2,2,9.2c0.3,0,0.4-0.1,0.4-0.5V7.6z"/>
</svg>
