<?xml version="1.0" encoding="utf-8"?>
<!-- Generator: Adobe Illustrator 19.0.1, SVG Export Plug-In . SVG Version: 6.00 Build 0)  -->
<svg version="1.1" id="newwindow" xmlns="http://www.w3.org/2000/svg" xmlns:xlink="http://www.w3.org/1999/xlink" x="0px" y="0px"
	 viewBox="0 0 16 16" enable-background="new 0 0 16 16" xml:space="preserve">
<path d="M12.5,14.6c0,0.4,0,0.4-0.4,0.4H1.7c-0.4,0-0.5,0-0.5-0.5V5.8V5.8l0,0V2.5c0-0.4,0-0.4,0.4-0.4h9.2v-1H1.6
	c-0.9,0-1.4,0.5-1.4,1.4v12.1c0,0.9,0.5,1.4,1.4,1.4l6.1,0l4.4,0c0.9,0,1.4-0.5,1.4-1.4V5.2h-1V14.6z"/>
<polygon points="15.7,4.1 15.7,0 11.4,0 11.4,1.2 13.6,1.2 8.7,6 9.6,6.9 14.5,2.1 14.5,4.1 "/>
</svg>
