<?xml version="1.0" encoding="utf-8"?>
<!-- Generator: Adobe Illustrator 19.0.0, SVG Export Plug-In . SVG Version: 6.00 Build 0)  -->
<svg version="1.1" id="map_marker_outlined" xmlns="http://www.w3.org/2000/svg" xmlns:xlink="http://www.w3.org/1999/xlink"
	 x="0px" y="0px" viewBox="0 0 16 16" enable-background="new 0 0 16 16" xml:space="preserve">
<path fill="#FFFFFF" d="M8.1,16L6.2,11c-2.3-0.8-3.9-2.9-3.9-5.4C2.4,2.6,4.9,0,8,0s5.7,2.5,5.7,5.7c0,2.4-1.6,4.6-3.8,5.3L8.1,16z
	 M8,1C5.4,1,3.3,3.1,3.3,5.7c0,2.1,1.2,3.9,3.2,4.5l0.2,0.1l1.3,3.5l1.2-3.5l0.2-0.1c2-0.7,3.2-2.5,3.2-4.5C12.7,3.1,10.6,1,8,1z"/>
<path d="M12.8,5.7C12.8,3.1,10.6,1,8,1S3.3,3.1,3.3,5.7c0,2.2,1.2,3.9,3.4,4.5l1.4,3.6l1.3-3.6C11.2,9.7,12.8,7.9,12.8,5.7z M8,7.4
	c-0.9,0-1.7-0.7-1.7-1.7c0-0.9,0.7-1.7,1.7-1.7c0.9,0,1.7,0.7,1.7,1.7C9.7,6.6,8.9,7.4,8,7.4z"/>
</svg>
