<?xml version="1.0" encoding="utf-8"?>
<!-- Generator: Adobe Illustrator 19.1.0, SVG Export Plug-In . SVG Version: 6.00 Build 0)  -->
<svg version="1.1" id="xml" xmlns="http://www.w3.org/2000/svg" xmlns:xlink="http://www.w3.org/1999/xlink" x="0px" y="0px"
	 viewBox="0 0 16 16" style="enable-background:new 0 0 16 16;" xml:space="preserve">
<style type="text/css">
	.st0{fill:none;}
</style>
<path d="M10.9,16h-10C0.4,16,0,15.6,0,15.1V0.9C0,0.4,0.4,0,0.9,0h6.9C8,0,8.2,0.1,8.4,0.2l3.1,3.1c0.2,0.2,0.2,0.4,0.2,0.6v2.3
	h-0.6V4.4H7.3V0.6H0.9c-0.2,0-0.3,0.1-0.3,0.3v14.3c0,0.2,0.1,0.3,0.3,0.3h10c0.2,0,0.3-0.1,0.3-0.3v-0.7h0.6v0.7
	C11.7,15.6,11.3,16,10.9,16z M7.9,3.9h3.3c0,0,0-0.1-0.1-0.1L8,0.7c0,0-0.1-0.1-0.1-0.1V3.9z"/>
<path d="M15.3,13.4H4.6c-0.4,0-0.7-0.3-0.7-0.7V8c0-0.4,0.3-0.7,0.7-0.7h10.7C15.7,7.3,16,7.6,16,8v4.7C16,13.1,15.7,13.4,15.3,13.4
	z M4.6,7.9C4.5,7.9,4.4,7.9,4.4,8v4.7c0,0.1,0.1,0.1,0.1,0.1h10.7c0.1,0,0.1-0.1,0.1-0.1V8c0-0.1-0.1-0.1-0.1-0.1H4.6z"/>
<path d="M5.6,11.9l1.2-1.6l-1-1.4h0.5l0.5,0.8C6.8,9.8,6.9,9.9,6.9,10C7,9.9,7.1,9.8,7.2,9.7l0.6-0.8h0.4l-1.1,1.4l1.1,1.6H7.8
	l-0.8-1.1c0-0.1-0.1-0.1-0.1-0.2c-0.1,0.1-0.1,0.2-0.1,0.2l-0.8,1L5.6,11.9L5.6,11.9z"/>
<path d="M8.6,11.9v-3h0.6L9.9,11c0.1,0.2,0.1,0.3,0.1,0.4c0-0.1,0.1-0.3,0.2-0.5L11,8.9h0.5v3h-0.4V9.3l-0.9,2.5H9.9L9,9.3v2.5
	L8.6,11.9L8.6,11.9z"/>
<polygon points="12.1,11.9 12.1,8.9 12.5,8.9 12.5,11.5 14,11.5 14,11.9 12.1,11.9 "/>
<rect id="_x3C_Slice_x3E_" class="st0" width="16" height="16"/>
</svg>
