<?xml version="1.0" encoding="utf-8"?>
<!-- Generator: Adobe Illustrator 19.0.1, SVG Export Plug-In . SVG Version: 6.00 Build 0)  -->
<svg version="1.1" id="Flag" xmlns="http://www.w3.org/2000/svg" xmlns:xlink="http://www.w3.org/1999/xlink" x="0px" y="0px"
	 viewBox="0 0 16 16" enable-background="new 0 0 16 16" xml:space="preserve">
<path d="M15.7,2.3c-0.2-0.1-0.4-0.1-0.6,0c-0.1,0-0.2,0.1-0.3,0.2c-0.6,0.3-1.7,1-2.8,1c-0.3,0-0.6-0.1-0.8-0.2
	c-1-0.5-2.2-1.1-3.7-1.1C5.6,2.2,3.6,3.3,3,3.7C2.9,3.8,2.7,4,2.7,4.2V11c0,0.2,0.1,0.4,0.3,0.5c0.1,0,0.2,0.1,0.3,0.1
	s0.2,0,0.3-0.1c1-0.7,2.9-1.3,4.2-1.3c1.1,0,1.8,0.4,2.7,0.8l0.3,0.1c0.4,0.2,0.9,0.3,1.4,0.3c1.4,0,2.7-0.8,3.3-1.1
	c0.1,0,0.1-0.1,0.2-0.1c0.2-0.1,0.3-0.3,0.3-0.5v-7C15.9,2.6,15.8,2.4,15.7,2.3z M15.1,9.6c-0.6,0.3-1.7,0.9-2.8,0.9
	c-0.4,0-0.7-0.1-1-0.2l-0.3-0.1c-1-0.5-2-1-3.4-1c-1.3,0-2.9,0.5-4.1,1.1V4.4c1.1-0.6,2.6-1.2,3.8-1.2c1.3,0,2.4,0.5,3.4,1
	c0.4,0.2,0.9,0.3,1.4,0.3c1.1,0,2.1-0.5,2.9-0.9V9.6z"/>
<path d="M2.3,2.1C2.3,1.5,1.8,1,1.1,1S0,1.5,0,2.1c0,0.4,0.3,0.8,0.6,1v11.7c0,0.1,0.1,0.2,0.2,0.2h0.6c0.1,0,0.2-0.1,0.2-0.2V3.2
	C2,3,2.3,2.6,2.3,2.1z"/>
</svg>
