<?xml version="1.0" encoding="utf-8"?>
<!-- Generator: Adobe Illustrator 19.0.1, SVG Export Plug-In . SVG Version: 6.00 Build 0)  -->
<svg version="1.1" id="thumbsup" xmlns="http://www.w3.org/2000/svg" xmlns:xlink="http://www.w3.org/1999/xlink" x="0px" y="0px"
	 viewBox="0 0 16 16" enable-background="new 0 0 16 16" xml:space="preserve">
<path d="M14.5,11.1c-0.1-0.1-0.1-0.2,0-0.5c0.2-0.6,0.2-1.1,0-1.7c-0.1-0.1-0.1-0.3,0-0.5c0.2-0.6,0.2-1.3,0-1.8
	c-0.3-0.5-0.9-0.8-1.6-0.9c-0.2,0-0.5,0-0.8,0c-0.1,0-0.2,0-0.5,0c-0.1,0-0.2,0-0.5,0h-1l0.2-0.5c0.1-0.2,0.1-0.5,0.2-0.6
	c0.7-1.8-0.1-3.8-1.8-4.6C7.9-0.1,7.5,0,7.2,0.7L6.8,1.8C6.2,3.5,5.5,5.3,4.8,7C4.7,7.2,4.6,7.3,4.4,7.3c-0.5,0-0.8,0-1.1,0H2
	c-0.7,0-1,0.3-1,0.9c0,1.8,0,3.6,0,5.4c0,0.6,0.3,0.9,0.9,0.9h1.5c0.5,0,0.9,0,1.4,0l0,0c0.2,0,0.3,0.1,0.5,0.2
	C6,15.6,7,15.9,7.9,15.9c1.1,0,2.1,0,2.9,0c0.7,0,1.4,0,1.9,0c0.7,0,1.3-0.3,1.6-0.9c0.3-0.6,0.3-1.3,0.1-1.9c-0.1-0.1,0-0.3,0-0.3
	C14.7,12.3,14.7,11.7,14.5,11.1z M13.7,13.3c0.3,0.3,0.3,0.8,0.2,1.3c-0.2,0.5-0.6,0.7-1.1,0.7h-2.4c-0.7,0-1.4,0-2.1,0
	c-1,0-1.9-0.5-2.8-1.1c-0.1-0.1-0.3-0.2-0.5-0.2v-0.1l0,0v0.1c-0.5,0-0.9,0-1.5,0H1.6V8h3.2c0.3,0,0.3,0,0.5-0.3L7.8,1V0.9l0.1-0.2
	L8,0.8c1,0.3,1.6,1,1.8,1.9C10,3.3,10,3.9,9.8,4.5L9.3,5.8c-0.1,0.2-0.1,0.3,0,0.5c0.1,0.1,0.2,0.1,0.5,0.1h0.1c0.9,0,1.9,0,2.9,0
	c0.6,0,0.9,0.2,1.1,0.7C14.1,7.6,14,8,13.7,8.5c-0.1,0.1-0.1,0.3,0,0.6c0.5,0.6,0.5,1,0,1.6c-0.1,0.2-0.1,0.3,0,0.6
	c0.5,0.6,0.5,1,0,1.6C13.4,12.9,13.4,13.1,13.7,13.3z"/>
</svg>
