<?xml version="1.0" encoding="utf-8"?>
<!-- Generator: Adobe Illustrator 19.1.0, SVG Export Plug-In . SVG Version: 6.00 Build 0)  -->
<svg version="1.1" id="Redo" xmlns="http://www.w3.org/2000/svg" xmlns:xlink="http://www.w3.org/1999/xlink" x="0px" y="0px"
	 viewBox="0 0 16 16" enable-background="new 0 0 16 16" xml:space="preserve">
<path d="M15.9,4.9c-0.1-0.2-0.4-0.3-0.7-0.2C15.1,4.8,15,4.9,15,5l-0.5,2.6l-2.4-1.1c-0.1-0.1-0.3-0.1-0.4,0
	c-0.2,0.1-0.3,0.4-0.2,0.7c0.1,0.1,0.1,0.2,0.2,0.2l3,1.3c0.1,0,0.2,0.1,0.2,0.1c0.1,0,0.2,0,0.2-0.1c0.1-0.1,0.2-0.2,0.3-0.4
	L16,5.2C16,5.1,16,5,15.9,4.9z"/>
<path d="M7.1,14.3C3.7,14.1,1,11.3,1,7.9c0-3.5,2.9-6.4,6.4-6.4c2.8,0,5.2,1.8,6.1,4.4l0.1,0.3c0.8,0.3,0.8-0.6,0.8-0.6l0,0l0,0l0,0
	l0,0l-0.1-0.2c-1-3-3.8-4.9-7-4.9C3.3,0.5,0,3.8,0,7.9c0,3.9,3.1,7.1,7,7.4l0.2,0c0.7-0.4,0.1-1,0.1-1L7.1,14.3z"/>
</svg>
