<?xml version="1.0" encoding="utf-8"?>
<!-- Generator: Adobe Illustrator 19.1.0, SVG Export Plug-In . SVG Version: 6.00 Build 0)  -->
<svg version="1.1" id="question" xmlns="http://www.w3.org/2000/svg" xmlns:xlink="http://www.w3.org/1999/xlink" x="0px" y="0px"
	 viewBox="0 0 16 16" style="enable-background:new 0 0 16 16;" xml:space="preserve">
<path d="M6.3,11.7c0-0.6,0-1.1,0.1-1.5c0.1-0.4,0.2-0.8,0.4-1.1C7,8.8,7.2,8.6,7.4,8.4c0.2-0.2,0.5-0.4,0.8-0.6
	c0.3-0.2,0.7-0.4,1-0.5c0.4-0.2,0.7-0.4,1-0.7c0.3-0.3,0.6-0.6,0.8-1s0.3-0.9,0.3-1.4c0-0.5-0.1-1-0.3-1.4c-0.2-0.4-0.4-0.7-0.7-1
	s-0.7-0.5-1-0.6C8.9,1,8.5,1,8.1,1C7.3,1,6.5,1.2,5.8,1.6c-0.7,0.4-1.2,1-1.5,1.7L3.5,2.9C3.7,2.4,4,2,4.3,1.6C4.6,1.3,5,1,5.4,0.7
	s0.8-0.4,1.3-0.6C7.2,0.1,7.7,0,8.1,0c0.5,0,1.1,0.1,1.6,0.3c0.5,0.2,1,0.4,1.4,0.8c0.4,0.3,0.7,0.8,1,1.3c0.2,0.5,0.4,1.1,0.4,1.8
	c0,0.6-0.1,1.1-0.3,1.6c-0.2,0.4-0.5,0.8-0.8,1.1c-0.3,0.3-0.7,0.6-1.1,0.8C9.8,7.9,9.4,8.1,9.1,8.3C8.8,8.4,8.6,8.6,8.4,8.7
	C8.1,8.9,8,9.1,7.8,9.3c-0.2,0.2-0.3,0.6-0.4,0.9c-0.1,0.4-0.1,0.9-0.1,1.4H6.3z M6.4,16v-2.2h1V16H6.4z"/>
</svg>
