<?xml version="1.0" encoding="utf-8"?>
<!-- Generator: Adobe Illustrator 18.1.1, SVG Export Plug-In . SVG Version: 6.00 Build 0)  -->
<svg version="1.1" id="Close" xmlns="http://www.w3.org/2000/svg" xmlns:xlink="http://www.w3.org/1999/xlink" x="0px" y="0px"
	 viewBox="0 0 16 16" enable-background="new 0 0 16 16" xml:space="preserve">
<path d="M8,16c-4.4,0-8-3.6-8-8c0-4.4,3.6-8,8-8c4.4,0,8,3.6,8,8C16,12.4,12.4,16,8,16z M8,0.9C4.1,0.9,0.9,4.1,0.9,8
	c0,3.9,3.2,7.1,7.1,7.1c3.9,0,7.1-3.2,7.1-7.1C15.1,4.1,11.9,0.9,8,0.9z"/>
<polygon points="12,11.1 8.8,8 12,4.9 11.1,4 8,7.2 4.9,4 4,4.9 7.2,8 4,11.1 4.9,12 8,8.8 11.1,12 "/>
</svg>
