<?xml version="1.0" encoding="utf-8"?>
<!-- Generator: Adobe Illustrator 19.0.1, SVG Export Plug-In . SVG Version: 6.00 Build 0)  -->
<svg version="1.1" id="tag-solid" xmlns="http://www.w3.org/2000/svg" xmlns:xlink="http://www.w3.org/1999/xlink" x="0px" y="0px"
	 viewBox="0 0 16 16" enable-background="new 0 0 16 16" xml:space="preserve">
<path d="M15.6,10.4l-5.2,5.2c-0.3,0.2-0.6,0.4-1,0.4s-0.7-0.1-1-0.4L1,8C0.4,7.5,0,6.5,0,5.7V1.4C0,0.6,0.6,0,1.4,0h4.4
	c0.7,0,1.8,0.4,2.3,1l7.6,7.5c0.2,0.3,0.4,0.6,0.4,1C16,9.8,15.9,10.2,15.6,10.4z M3.4,2C2.6,2,2,2.6,2,3.4s0.6,1.4,1.4,1.4
	s1.4-0.6,1.4-1.4S4.1,2,3.4,2z"/>
</svg>
