<?xml version="1.0" encoding="utf-8"?>
<!-- Generator: Adobe Illustrator 19.1.0, SVG Export Plug-In . SVG Version: 6.00 Build 0)  -->
<svg version="1.1" id="ppt" xmlns="http://www.w3.org/2000/svg" xmlns:xlink="http://www.w3.org/1999/xlink" x="0px" y="0px"
	 viewBox="0 0 16 16" style="enable-background:new 0 0 16 16;" xml:space="preserve">
<style type="text/css">
	.st0{fill:none;}
</style>
<path d="M10.9,16h-10C0.4,16,0,15.6,0,15.1V0.9C0,0.4,0.4,0,0.9,0h6.9C8,0,8.2,0.1,8.4,0.2l3.1,3.1c0.2,0.2,0.2,0.4,0.2,0.6v2.3
	h-0.6V4.4H7.3V0.6H0.9c-0.2,0-0.3,0.1-0.3,0.3v14.3c0,0.2,0.1,0.3,0.3,0.3h10c0.2,0,0.3-0.1,0.3-0.3v-0.7h0.6v0.7
	C11.7,15.6,11.3,16,10.9,16z M7.9,3.9h3.3c0,0,0-0.1-0.1-0.1L8,0.7c0,0-0.1-0.1-0.1-0.1V3.9z"/>
<path d="M15.3,13.4H5c-0.4,0-0.7-0.3-0.7-0.7V8c0-0.4,0.3-0.7,0.7-0.7h10.3C15.7,7.3,16,7.6,16,8v4.7C16,13.1,15.7,13.4,15.3,13.4z
	 M5,7.9C4.9,7.9,4.9,7.9,4.9,8v4.7c0,0.1,0.1,0.1,0.1,0.1h10.3c0.1,0,0.1-0.1,0.1-0.1V8c0-0.1-0.1-0.1-0.1-0.1H5z"/>
<path d="M6.7,10.3h0.8c0.3,0,0.4,0,0.5-0.1C8.1,10,8.1,9.9,8.1,9.7c0-0.1,0-0.2-0.1-0.3C8,9.3,7.9,9.3,7.8,9.2c-0.1,0-0.2,0-0.4,0
	H6.7L6.7,10.3L6.7,10.3z M6.3,11.9v-3h1.1c0.2,0,0.4,0,0.5,0C8,8.9,8.1,9,8.2,9c0.1,0.1,0.2,0.2,0.2,0.3c0.1,0.1,0.1,0.3,0.1,0.4
	c0,0.3-0.1,0.5-0.2,0.6c-0.2,0.2-0.5,0.3-0.9,0.3H6.7v1.2L6.3,11.9L6.3,11.9z"/>
<path d="M9.4,10.3h0.8c0.3,0,0.4,0,0.5-0.1s0.2-0.2,0.2-0.4c0-0.1,0-0.2-0.1-0.3c-0.1-0.1-0.1-0.1-0.2-0.2c-0.1,0-0.2,0-0.4,0H9.4
	L9.4,10.3L9.4,10.3z M9,11.9v-3h1.1c0.2,0,0.4,0,0.5,0C10.8,8.9,10.9,9,11,9c0.1,0.1,0.2,0.2,0.2,0.3c0.1,0.1,0.1,0.3,0.1,0.4
	c0,0.3-0.1,0.5-0.2,0.6c-0.2,0.2-0.5,0.3-0.9,0.3H9.4v1.2L9,11.9L9,11.9z"/>
<polygon points="12.6,11.9 12.6,9.2 11.6,9.2 11.6,8.9 14,8.9 14,9.2 13,9.2 13,11.9 "/>
<rect id="_x3C_Slice_x3E_" class="st0" width="16" height="16"/>
</svg>
