<?xml version="1.0" encoding="utf-8"?>
<!-- Generator: Adobe Illustrator 19.1.0, SVG Export Plug-In . SVG Version: 6.00 Build 0)  -->
<svg version="1.1" id="user" xmlns="http://www.w3.org/2000/svg" xmlns:xlink="http://www.w3.org/1999/xlink" x="0px" y="0px"
	 viewBox="0 0 16 16" style="enable-background:new 0 0 16 16;" xml:space="preserve">
<path d="M0.5,15.4c0.1-0.3,0.1-0.6,0.2-0.9c0.4-1,1.2-1.6,2.1-2.1c0.5-0.2,1.1-0.5,1.6-0.7c0.2-0.1,0.4-0.2,0.6-0.3
	c0.7-0.4,1.1-1.2,0.8-2c-0.1-0.4-0.4-0.7-0.6-1c-0.2-0.4-0.3-0.7-0.6-1C4.3,7,4.2,6.4,4.4,5.9c0.1-0.3,0.1-0.5,0-0.8
	C4.3,4.3,4.2,3.5,4.4,2.6c0.3-1.4,1.1-2.2,2.5-2.5C7.1,0.1,7.2,0,7.4,0c0.4,0,0.8,0,1.2,0c0.6,0.3,1.3,0.6,1.9,0.9
	c0.7,0.4,1.1,1,1.2,1.8c0.2,0.9,0,1.8-0.2,2.6c0,0.1,0,0.3,0,0.5c0.3,0.6,0.1,1.5-0.5,2C11.1,7.8,11,7.9,11,8
	c-0.2,0.5-0.4,0.9-0.7,1.4c-0.1,0.1-0.1,0.2-0.1,0.4c-0.1,1,0.1,1.4,1,1.8c0.7,0.4,1.5,0.6,2.3,1c1,0.5,1.7,1.2,2,2.3
	c0.1,0.4,0.1,0.7,0.1,1.1c-5,0-10,0-15,0C0.5,15.8,0.5,15.6,0.5,15.4z M14.7,15.2c-0.1-0.3-0.2-0.5-0.3-0.8c-0.5-0.8-1.3-1.1-2-1.5
	c-0.8-0.4-1.5-0.7-2.3-1.1c-0.3-0.2-0.5-0.6-0.6-0.9c-0.1-0.5-0.1-1-0.1-1.6c0-0.1,0-0.2,0.1-0.3c0.5-0.4,0.6-1,0.8-1.6
	c0-0.1,0.1-0.3,0.2-0.3C10.9,7,11.1,6.3,10.8,6c-0.2-0.2-0.2-0.3-0.1-0.5c0.3-0.8,0.4-1.6,0.3-2.4c0-0.5-0.2-1.1-0.7-1.4
	c-0.5-0.3-1-0.5-1.5-0.8C8.5,0.8,8.1,0.8,7.8,0.8C6,0.9,5.1,1.8,5.1,3.6c0,0.6,0.2,1.3,0.3,1.9c0,0.1,0,0.3-0.1,0.5
	C5,6.4,5.1,6.9,5.6,7.2c0.1,0,0.1,0.2,0.2,0.3c0.2,0.4,0.2,1,0.5,1.3c0.4,0.4,0.4,0.9,0.4,1.4c0,0.1,0,0.2,0,0.3
	c0,0.6-0.2,1.1-0.8,1.5c-0.2,0.1-0.5,0.3-0.7,0.4c-0.8,0.4-1.6,0.7-2.4,1.1c-0.7,0.4-1.2,0.9-1.4,1.7C5.8,15.2,10.2,15.2,14.7,15.2z
	"/>
</svg>
