<?xml version="1.0" encoding="utf-8"?>
<!-- Generator: Adobe Illustrator 19.1.0, SVG Export Plug-In . SVG Version: 6.00 Build 0)  -->
<svg version="1.1" id="drafting_compass" xmlns="http://www.w3.org/2000/svg" xmlns:xlink="http://www.w3.org/1999/xlink" x="0px"
	 y="0px" viewBox="0 0 16 16" enable-background="new 0 0 16 16" xml:space="preserve">
<circle cx="4" cy="10.4" r="0.8"/>
<path d="M4,11.9c-0.9,0-1.5-0.7-1.5-1.5c0-0.7,0.4-1.2,1-1.4C3.2,8.8,3,8.7,2.9,8.5c-0.1-0.1-0.2-0.1-0.3,0C2.2,8.9,1.8,9.2,1.4,9.6
	c-0.1,0.1,0,0.2,0.1,0.4c0.3,0.3,0.7,0.6,1.1,0.9l-1.8,2.8l0.3,0.2l-0.7,1.6c-0.1,0.1,0,0.2,0.1,0.3L0.8,16C0.9,16,1,16,1.1,15.9
	l1.1-1.4l0.4,0.2l1.8-2.9C4.2,11.9,4.1,11.9,4,11.9z"/>
<path d="M15.5,15.5l-0.7-1.6l0.3-0.2l-1.8-2.9c0.4-0.3,0.7-0.5,1-0.8c0.1-0.1,0.2-0.3,0.1-0.4c-0.4-0.4-0.8-0.8-1.2-1.2
	c-0.1-0.1-0.2-0.1-0.3,0c-0.2,0.2-0.5,0.4-0.7,0.6l-2-3.3c0.3-0.4,0.5-1,0.5-1.5c0-1-0.6-1.9-1.4-2.4c0.2-0.2,0.3-0.5,0.3-0.8
	C9.6,0.5,9.1,0,8.5,0H7.4C6.8,0,6.3,0.5,6.3,1.1c0,0.3,0.1,0.6,0.3,0.8C5.8,2.3,5.2,3.2,5.2,4.3c0,0.6,0.2,1.1,0.5,1.5L3.7,8.9
	c0.1,0,0.2,0,0.3,0c0.7,0,1.3,0.5,1.5,1.1l1.8-3C7.5,7,7.7,7.1,8,7.1c0.2,0,0.4,0,0.6-0.1l1.9,3.1c-1.6,0.6-3.4,0.6-5,0
	c0,0.1,0,0.2,0,0.3c0,0.7-0.5,1.3-1.1,1.5c2.3,0.9,4.9,0.9,7.1,0l1.8,2.9l0.4-0.3l1.1,1.4c0.1,0.1,0.2,0.1,0.3,0.1l0.3-0.2
	C15.6,15.7,15.6,15.6,15.5,15.5z M8,5.9C7,5.9,6.3,5.2,6.3,4.3c0-0.7,0.5-1.3,1.1-1.6v1.1c0,0.3,0.3,0.6,0.6,0.6
	c0.3,0,0.6-0.3,0.6-0.6V2.7C9.2,3,9.6,3.6,9.6,4.3C9.6,5.2,8.9,5.9,8,5.9z"/>
</svg>
