<?xml version="1.0" encoding="utf-8"?>
<!-- Generator: Adobe Illustrator 19.1.0, SVG Export Plug-In . SVG Version: 6.00 Build 0)  -->
<svg version="1.1" id="fieldslist" xmlns="http://www.w3.org/2000/svg" xmlns:xlink="http://www.w3.org/1999/xlink" x="0px" y="0px"
	 viewBox="0 0 16 16" style="enable-background:new 0 0 16 16;" xml:space="preserve">
<path d="M2.4,7.6c0-0.6,0-0.6-0.6-0.7c-0.2,0-0.4-0.1-0.7-0.2C1.1,6.7,1,6.6,1,6.5c0-0.1,0.1-0.2,0.2-0.2c0,0,0.1-0.1,0.2-0.1
	c0.3,0,0.4-0.1,0.6-0.1c0.3,0,0.4-0.1,0.4-0.5V4.6c0-0.6,0-0.7-0.6-0.7l0,0c-0.2,0-0.4-0.1-0.6-0.2C1.1,3.7,0.9,3.6,1,3.5
	c0-0.1,0.1-0.1,0.2-0.2l0.1,0c0,0,0.1,0,0.2-0.1c0.2,0,0.4-0.1,0.6-0.1c0.3,0,0.4-0.1,0.4-0.5c0-0.1,0-0.2,0-0.3c0-0.2,0-0.3,0-0.5
	c0-0.7,0.4-1.1,1.1-1.1l0.5,0c0.3,0,0.4-0.1,0.4-0.4c0-0.1,0-0.2-0.1-0.3C4.3,0,4.1,0,4,0L3.2,0l0,0C2.4,0,1.9,0.5,1.6,1.2
	C1.6,1.4,1.5,1.8,1.5,2.1l0,0.2c0,0.1,0,0.2-0.1,0.2C1.1,2.5,0.8,2.5,0.5,2.7C0.2,2.9,0,3.2,0,3.5c0,0.3,0.2,0.6,0.5,0.8
	C0.8,4.4,1,4.5,1.3,4.6l0.1,0c0.1,0,0.1,0,0.1,0.1c0,0.2,0,0.4,0,0.6c0,0.1,0,0.1-0.1,0.1l-0.1,0C1,5.5,0.7,5.6,0.5,5.7
	C0.2,5.9,0,6.2,0,6.5c0,0.3,0.2,0.6,0.5,0.8C0.7,7.5,1,7.5,1.3,7.6l0.1,0c0.1,0,0.1,0,0.1,0.1c0,0.2,0,0.4,0,0.6
	c0,0.1,0,0.1-0.1,0.1l0,0C1.1,8.5,0.8,8.6,0.6,8.7C0.2,8.9,0,9.2,0,9.5c0,0.4,0.2,0.7,0.6,0.9c0.2,0.1,0.5,0.2,0.8,0.2l0.1,0
	c0.1,0,0.1,0,0.1,0.1c0,0.2,0,0.4,0,0.6c0,0.1,0,0.1-0.1,0.1l-0.1,0c-0.3,0.1-0.6,0.1-0.8,0.3c-0.2,0.1-0.3,0.3-0.4,0.5
	c-0.2,0.4,0,0.8,0.3,1c0.3,0.2,0.6,0.3,1,0.4c0.1,0,0.1,0,0.1,0.1c0,0.2,0,0.4,0,0.5C1.6,15.2,2.2,15.9,3,16l0.9,0c0,0,0,0,0,0
	c0.1,0,0.2,0,0.3-0.1c0.1-0.1,0.1-0.2,0.1-0.3c0-0.2-0.2-0.4-0.4-0.4l-0.4,0c-0.6,0-0.9-0.3-1-0.9l0-0.9C2.4,13.1,2.3,13,2,13
	l-0.4-0.1c-0.2-0.1-0.4-0.1-0.6-0.2c0,0-0.1-0.1-0.1-0.1s0-0.1,0.1-0.2c0.1-0.1,0.2-0.1,0.2-0.1c0.3-0.1,0.5-0.1,0.7-0.1
	c0.3,0,0.4-0.2,0.4-0.5c0-0.4,0-0.9,0-1.3c0-0.3-0.1-0.5-0.4-0.5c-0.3,0-0.5-0.1-0.8-0.2C1.1,9.8,0.9,9.7,1,9.6
	c0-0.1,0.1-0.2,0.2-0.2C1.4,9.3,1.7,9.2,2,9.2c0.3,0,0.4-0.1,0.4-0.5V7.6z"/>
<path d="M13.1,16H6.3c-0.3,0-0.5-0.2-0.5-0.5c0-0.3,0.2-0.5,0.5-0.5h6.9c1.1,0,1.9-0.8,1.9-1.9V2.8c0-1-0.9-1.9-1.9-1.9H6.3
	C6,0.9,5.8,0.7,5.8,0.5S6,0,6.3,0h6.9C14.7,0,16,1.3,16,2.8v10.4C16,14.7,14.7,16,13.1,16z"/>
<path d="M12.3,5H8C7.7,5,7.6,4.7,7.6,4.5S7.7,4,8,4h4.3c0.3,0,0.4,0.2,0.4,0.5S12.6,5,12.3,5z"/>
<path d="M6.1,5H4.8C4.5,5,4.4,4.7,4.4,4.5S4.5,4,4.8,4h1.2c0.3,0,0.4,0.2,0.4,0.5S6.3,5,6.1,5z"/>
<path d="M12.3,8.5H8C7.7,8.5,7.6,8.2,7.6,8c0-0.3,0.1-0.5,0.4-0.5h4.3c0.3,0,0.4,0.2,0.4,0.5C12.7,8.2,12.6,8.5,12.3,8.5z"/>
<path d="M6.1,8.5H4.8C4.5,8.5,4.4,8.2,4.4,8c0-0.3,0.1-0.5,0.4-0.5h1.2c0.3,0,0.4,0.2,0.4,0.5C6.5,8.2,6.3,8.5,6.1,8.5z"/>
<path d="M12.3,12H8c-0.3,0-0.4-0.2-0.4-0.5S7.7,11,8,11h4.3c0.3,0,0.4,0.2,0.4,0.5S12.6,12,12.3,12z"/>
<path d="M6.1,12H4.8c-0.3,0-0.4-0.2-0.4-0.5S4.5,11,4.8,11h1.2c0.3,0,0.4,0.2,0.4,0.5S6.3,12,6.1,12z"/>
</svg>
