<?xml version="1.0" encoding="utf-8"?>
<!-- Generator: Adobe Illustrator 19.1.0, SVG Export Plug-In . SVG Version: 6.00 Build 0)  -->
<svg version="1.1" id="search-plus" xmlns="http://www.w3.org/2000/svg" xmlns:xlink="http://www.w3.org/1999/xlink" x="0px"
	 y="0px" viewBox="0 0 16 16" style="enable-background:new 0 0 16 16;" xml:space="preserve">
<path d="M0.1,14.7c1-1,2.4-2.4,3.4-3.4c0.5,0.5,0.8,0.8,1.3,1.3c-1,1-2.4,2.4-3.4,3.4C0.9,15.6,0.6,15.2,0.1,14.7z"/>
<path d="M9.5,13C5.9,13,3,10.1,3,6.5C3,2.9,5.9,0,9.5,0s6.5,2.9,6.5,6.5C15.9,10.1,13,13,9.5,13z M9.5,1C6.5,1,4,3.5,4,6.5
	S6.5,12,9.5,12c3,0,5.5-2.5,5.5-5.5S12.5,1,9.5,1z"/>
<polygon points="12.4,6 10,6 10,3.6 9,3.6 9,6 6.5,6 6.5,7 9,7 9,9.5 10,9.5 10,7 12.4,7 "/>
</svg>
