<?xml version="1.0" encoding="utf-8"?>
<!-- Generator: Adobe Illustrator 18.1.1, SVG Export Plug-In . SVG Version: 6.00 Build 0)  -->
<svg version="1.1" id="Object_page_open_svg" xmlns="http://www.w3.org/2000/svg" xmlns:xlink="http://www.w3.org/1999/xlink"
	 x="0px" y="0px" viewBox="0 0 16 16" enable-background="new 0 0 16 16" xml:space="preserve">
<path d="M15.4,0.4C15.3,0.2,15.2,0.1,15,0c-0.1,0-0.2,0-0.2,0h-2.7H2.8H1.2C1.1,0,1.1,0,1,0C0.8,0.1,0.7,0.2,0.6,0.4 c0,0.1,0,0.2,0,0.2v0.1v0v0.1v0.1v14.5c0,0.3,0.3,0.6,0.6,0.6h0.3h13h0.3c0.3,0,0.6-0.3,0.6-0.6V0.9V0.8V0.7v0V0.6 C15.4,0.5,15.4,0.4,15.4,0.4z M14.4,15.1l-6.4,0l-6.3,0V1.1h12.7V15.1z"/>
<path d="M12.7,9.5c0,0.4,0,0.8,0,1.3c0,0.1,0,0.1-0.1,0.1c-0.7,0.4-1.4,0.7-2.2,1.1c-0.1,0-0.1,0-0.2,0c-0.7-0.3-1.3-0.7-2-1 c-0.1,0-0.1,0-0.2,0c-0.7,0.3-1.3,0.7-2,1C6.1,12,6,12,6,12c-0.7-0.4-1.4-0.7-2.1-1.1c-0.1,0-0.1-0.1-0.1-0.1c0-0.8,0-1.7,0-2.5 c0-0.1,0-0.1,0.1-0.1c0.7-0.3,1.3-0.7,2-1C5.9,7.1,5.9,7,5.9,7c0-0.8,0-1.5,0-2.3c0-0.1,0-0.1,0.1-0.1c0.7-0.4,1.4-0.7,2.2-1.1 c0.1,0,0.1,0,0.2,0C9,3.8,9.7,4.2,10.5,4.5c0.1,0,0.1,0.1,0.1,0.1c0,0.8,0,1.5,0,2.3c0,0.1,0,0.1,0.1,0.2c0.7,0.3,1.3,0.7,2,1 c0.1,0,0.1,0.1,0.1,0.1C12.7,8.7,12.7,9.1,12.7,9.5z M6.3,5C6.3,5,6.3,5,6.3,5c0,0.7,0,1.4,0,2c0,0.1,0,0.1,0.1,0.1 C6.9,7.4,7.4,7.6,8,7.9c0,0,0.1,0,0.1,0c0,0,0,0,0,0c0-0.7,0-1.3,0-2C8,5.9,8,5.8,8,5.8C7.4,5.6,6.9,5.3,6.4,5C6.4,5,6.3,5,6.3,5z M10.2,5C10.2,5,10.1,5,10.2,5C9.6,5.3,9,5.5,8.5,5.8c-0.1,0-0.1,0.1-0.1,0.1c0,0.6,0,1.3,0,1.9c0,0,0,0.1,0,0.1c0,0,0,0,0.1,0 C9,7.6,9.6,7.4,10.1,7.1c0.1,0,0.1-0.1,0.1-0.1c0-0.5,0-1.1,0-1.6C10.2,5.3,10.2,5.1,10.2,5z M4.1,8.5C4.1,8.6,4.1,8.6,4.1,8.5 c0,0.7,0,1.4,0,2c0,0.1,0,0.1,0.1,0.1c0.5,0.3,1.1,0.5,1.6,0.8c0,0,0,0,0.1,0c0,0,0,0,0,0c0-0.7,0-1.3,0-2c0,0,0-0.1-0.1-0.1 C5.4,9.2,5,9,4.5,8.8C4.4,8.7,4.3,8.6,4.1,8.5z M6.3,11.5c0,0,0.1,0,0.1,0c0.5-0.3,1.1-0.5,1.6-0.8C8,10.7,8,10.6,8,10.5 c0-0.6,0-1.2,0-1.8c0,0,0-0.1,0-0.2c0,0,0,0,0,0C7.4,8.8,6.9,9.1,6.3,9.4c0,0-0.1,0.1-0.1,0.1c0,0.6,0,1.3,0,1.9 C6.3,11.5,6.3,11.5,6.3,11.5z M10.2,11.5c0-0.7,0-1.4,0-2c0,0,0-0.1-0.1-0.1C9.6,9.1,9,8.8,8.5,8.6c0,0,0,0-0.1,0c0,0,0,0.1,0,0.1 c0,0.6,0,1.3,0,1.9c0,0.1,0,0.1,0.1,0.1c0.5,0.3,1.1,0.5,1.6,0.8C10.1,11.5,10.1,11.5,10.2,11.5z M10.5,11.5 C10.6,11.5,10.6,11.5,10.5,11.5c0.6-0.3,1.2-0.6,1.7-0.9c0,0,0.1-0.1,0.1-0.1c0-0.6,0-1.3,0-1.9c0,0,0,0,0-0.1c0,0,0,0,0,0 c-0.6,0.3-1.1,0.6-1.7,0.8c0,0-0.1,0.1-0.1,0.1c0,0.3,0,0.6,0,1C10.5,10.8,10.5,11.2,10.5,11.5z M6.5,4.7C6.5,4.7,6.5,4.7,6.5,4.7 C7.1,5,7.6,5.2,8.2,5.5c0,0,0.1,0,0.1,0C8.8,5.2,9.4,5,9.9,4.7c0,0,0,0,0.1,0C9.4,4.4,8.8,4.1,8.3,3.8c0,0-0.1,0-0.1,0 C7.6,4.1,7.1,4.4,6.5,4.7z M7.8,8.2C7.8,8.2,7.8,8.2,7.8,8.2C7.2,7.9,6.7,7.7,6.1,7.4c0,0-0.1,0-0.1,0C5.6,7.6,5.2,7.8,4.8,8 C4.7,8.1,4.5,8.2,4.3,8.2c0,0,0.1,0,0.1,0.1C4.9,8.5,5.4,8.7,5.8,9C6,9.1,6.2,9.1,6.3,9C6.8,8.7,7.3,8.5,7.8,8.2z M8.6,8.2 c0.6,0.3,1.1,0.6,1.7,0.8c0,0,0.1,0,0.1,0c0.5-0.2,0.9-0.5,1.4-0.7c0.1,0,0.2-0.1,0.3-0.1c0,0,0,0-0.1,0c-0.5-0.3-1.1-0.5-1.6-0.8 c0,0-0.1,0-0.1,0C9.9,7.6,9.5,7.8,9.1,8C8.9,8.1,8.8,8.2,8.6,8.2z"/>
</svg>
